<svg width="100" height="100" viewBox="0 0 100 100" fill="none" xmlns="http://www.w3.org/2000/svg">
<g clip-path="url(#clip0_120_89)">
<path d="M68.6108 39.3439C68.6108 35.6996 67.5193 32.1371 65.4743 29.107C63.4294 26.0769 60.5227 23.7152 57.1221 22.3206C53.7214 20.926 49.9794 20.5611 46.3692 21.2721C42.7591 21.9831 39.4429 23.7379 36.8402 26.3148C34.2374 28.8917 32.4649 32.1749 31.7468 35.7492C31.0287 39.3234 31.3972 43.0282 32.8058 46.3951C34.2144 49.762 36.5998 52.6397 39.6604 54.6644C42.7209 56.689 46.3191 57.7697 50 57.7697C54.9342 57.7642 59.6647 55.8211 63.1537 52.3668C66.6427 48.9125 68.6053 44.229 68.6108 39.3439ZM50 55.3901C46.7915 55.3922 43.6545 54.452 40.9859 52.6884C38.3173 50.9249 36.237 48.4173 35.0082 45.4829C33.7794 42.5485 33.4574 39.3192 34.0828 36.2036C34.7082 33.0879 36.2531 30.2259 38.5218 27.9798C40.7905 25.7336 43.6812 24.2041 46.8282 23.5849C49.9751 22.9657 53.2368 23.2845 56.2007 24.5011C59.1645 25.7177 61.6973 27.7773 63.4786 30.4194C65.2598 33.0615 66.2095 36.1673 66.2074 39.3439C66.2019 43.5979 64.4925 47.6762 61.4543 50.6842C58.416 53.6923 54.2968 55.3847 50 55.3901V55.3901ZM81.8714 78.2129L70.1051 58.049C71.4681 56.409 72.2076 54.3481 72.1951 52.2243V51.3139C72.1783 50.4233 72.3479 49.5388 72.6932 48.7162C73.0385 47.8937 73.552 47.1507 74.2014 46.5342L74.8911 45.8513C76.6165 44.1371 77.5854 41.8157 77.5854 39.3956C77.5854 36.9755 76.6165 34.654 74.8911 32.9398L74.2014 32.257C73.552 31.6405 73.0385 30.8975 72.6932 30.0749C72.3479 29.2523 72.1783 28.3679 72.1951 27.4773V26.4841C72.1978 24.0603 71.2287 21.7345 69.5005 20.0177C67.7724 18.3009 65.4266 17.3335 62.9785 17.3281H62.038C61.1384 17.3446 60.2451 17.1767 59.4142 16.8349C58.5834 16.493 57.833 15.9846 57.2103 15.3417L56.5206 14.6692C54.7891 12.9609 52.4444 12.0017 50 12.0017C47.5556 12.0017 45.2109 12.9609 43.4794 14.6692L42.7897 15.352C42.1649 15.9916 41.4139 16.4971 40.5834 16.837C39.7529 17.177 38.8606 17.3441 37.962 17.3281H36.9902C35.7771 17.3294 34.5762 17.5673 33.4559 18.0282C32.3357 18.4891 31.3182 19.1639 30.4614 20.0141C29.6045 20.8643 28.9253 21.8733 28.4623 22.9834C27.9993 24.0935 27.7618 25.283 27.7631 26.4841V27.4462C27.7812 28.3361 27.6133 29.2201 27.2698 30.0426C26.9263 30.8652 26.4148 31.6085 25.7673 32.226L25.0776 32.9088C23.3521 34.623 22.3833 36.9444 22.3833 39.3645C22.3833 41.7846 23.3521 44.1061 25.0776 45.8203L25.7673 46.5031C26.4208 47.1226 26.936 47.8707 27.2798 48.6993C27.6235 49.5278 27.7882 50.4185 27.7631 51.3139V52.2761C27.7515 54.3997 28.4909 56.4603 29.8531 58.1007L18.1286 78.2129C18.0112 78.4037 17.9504 78.6233 17.9532 78.8466C17.956 79.07 18.0223 79.288 18.1444 79.4758C18.2665 79.6636 18.4395 79.8136 18.6437 79.9087C18.8479 80.0037 19.0749 80.0398 19.2989 80.0131L28.3692 78.9785L32.0266 87.2551C32.1161 87.4588 32.2614 87.6336 32.4461 87.7598C32.6308 87.886 32.8474 87.9584 33.0716 87.969H33.1447C33.3559 87.9702 33.5636 87.9164 33.7471 87.8128C33.9305 87.7093 34.0832 87.5598 34.1897 87.3792L46.6248 66.0566C48.7974 66.8837 51.2026 66.8837 53.3752 66.0566L65.8208 87.4103C65.9288 87.5894 66.0819 87.7378 66.2649 87.8412C66.448 87.9445 66.655 87.9992 66.8657 88H66.9284C67.1532 87.9919 67.3709 87.9204 67.5561 87.7939C67.7412 87.6675 67.886 87.4913 67.9734 87.2861L71.6412 79.0095L80.7115 80.0441C80.9332 80.069 81.1575 80.0318 81.3589 79.9367C81.5603 79.8416 81.7306 79.6924 81.8505 79.5061C81.9683 79.3201 82.0307 79.1049 82.0307 78.8854C82.0307 78.6658 81.9683 78.4507 81.8505 78.2646L81.8714 78.2129ZM31.6922 59.7354C33.2431 60.8066 35.0887 61.3808 36.9797 61.3803H37.2723L28.3692 76.63L21.3889 77.3852L31.6922 59.7354ZM33.2701 84.2134L30.4383 77.8405L39.9056 61.6597C41.0033 61.9753 41.998 62.5712 42.7897 63.3874L43.4794 64.0702C43.8053 64.3917 44.1546 64.6891 44.5244 64.96L33.2701 84.2134ZM45.2141 62.3321L44.4826 61.6597C43.636 60.7993 42.6212 60.1189 41.5001 59.6599C40.3789 59.201 39.1751 58.9732 37.962 58.9905H36.9902C35.1813 58.9877 33.4473 58.2751 32.1682 57.0087C30.8891 55.7424 30.1693 54.0256 30.1666 52.2347V51.3139C30.1912 50.1009 29.9626 48.8958 29.495 47.7743C29.0275 46.6528 28.3312 45.6389 27.4497 44.7961L26.7704 44.1236C25.4942 42.8537 24.7778 41.1352 24.7778 39.3439C24.7778 37.5525 25.4942 35.834 26.7704 34.5641L27.4601 33.8813C28.3325 33.0452 29.0227 32.041 29.4881 30.9307C29.9536 29.8204 30.1845 28.6275 30.1666 27.4255V26.4841C30.1693 24.6932 30.8891 22.9764 32.1682 21.71C33.4473 20.4437 35.1813 19.731 36.9902 19.7283H37.962C39.1776 19.7434 40.3834 19.5115 41.5049 19.0471C42.6264 18.5827 43.6398 17.8955 44.4826 17.028L45.2141 16.3452C46.4967 15.0817 48.2324 14.3723 50.0418 14.3723C51.8512 14.3723 53.5869 15.0817 54.8695 16.3452L55.5488 17.0177C56.3903 17.8775 57.3993 18.5592 58.5147 19.0216C59.6302 19.484 60.8288 19.7173 62.038 19.7076H62.9785C63.8786 19.7049 64.7703 19.8782 65.6026 20.2177C66.4348 20.5571 67.1912 21.056 67.8281 21.6857C68.4651 22.3153 68.9701 23.0634 69.3142 23.8868C69.6584 24.7103 69.8348 25.5929 69.8334 26.4841V27.4462C69.8178 28.647 70.0487 29.8383 70.5122 30.9481C70.9756 32.0578 71.6619 33.0628 72.5294 33.902L73.2191 34.5848C74.4973 35.8516 75.2152 37.5688 75.2152 39.3594C75.2152 41.1499 74.4973 42.8672 73.2191 44.1339L72.5294 44.8168C71.6573 45.6612 70.9683 46.6729 70.5047 47.7901C70.0412 48.9072 69.8127 50.1063 69.8334 51.3139V52.2761C69.8169 54.0634 69.0867 55.7716 67.8023 57.0277C66.518 58.2837 64.7838 58.9857 62.9785 58.9801H62.038C60.8228 58.9652 59.6172 59.195 58.4945 59.6557C57.3717 60.1163 56.3553 60.7981 55.507 61.6597L54.8277 62.3425C53.5465 63.6086 51.8102 64.3196 50 64.3196C48.1898 64.3196 46.4535 63.6086 45.1723 62.3425L45.2141 62.3321ZM66.7194 84.1824L55.4756 64.9082C55.8453 64.6372 56.1945 64.3398 56.5206 64.0185L57.2103 63.3357C58.0063 62.536 59.001 61.9579 60.0944 61.6597L69.4991 77.8611L66.7194 84.1824ZM71.6203 76.63L62.7172 61.3493H62.9785C64.8487 61.341 66.6717 60.7671 68.2033 59.7043L78.6529 77.3852L71.6203 76.63ZM61.829 33.1778C61.6452 33.0221 61.4181 32.925 61.1776 32.8991C60.9371 32.8733 60.6943 32.9199 60.481 33.0329L54.9009 36.0436L50.8987 31.5121C50.7876 31.3841 50.6496 31.2817 50.4944 31.212C50.3392 31.1423 50.1704 31.107 50 31.1086V31.1086C49.8282 31.1083 49.6584 31.1441 49.5016 31.2136C49.3449 31.2832 49.2049 31.3849 49.0909 31.5121L45.0991 36.0436L39.5086 33.0329C39.2949 32.9213 39.0524 32.8755 38.8122 32.9013C38.572 32.9271 38.3451 33.0234 38.1605 33.1778C37.9778 33.3314 37.8462 33.536 37.7828 33.7649C37.7194 33.9938 37.7272 34.2363 37.8053 34.4607L41.9851 46.7307C42.0658 46.9635 42.218 47.1654 42.4203 47.3083C42.6227 47.4511 42.8651 47.5277 43.1137 47.5274H56.8027C57.0516 47.5293 57.2948 47.4533 57.4975 47.3102C57.7002 47.1672 57.852 46.9643 57.9313 46.7307L62.1111 34.4607C62.1865 34.2351 62.192 33.9924 62.1268 33.7637C62.0616 33.5351 61.9288 33.331 61.7454 33.1778H61.829ZM55.9772 45.1789H44.0228L41.0342 36.6022L44.7647 38.6093C45.0064 38.7409 45.2861 38.787 45.5578 38.74C45.8295 38.693 46.0768 38.5556 46.259 38.3507L49.9791 34.1296L53.6992 38.3507C53.8808 38.5532 54.1262 38.689 54.3956 38.736C54.665 38.7829 54.9425 38.7383 55.183 38.6093L58.9031 36.6022L55.9772 45.1789Z" fill="#EAE6E5"/>
<path d="M68.6108 39.3439C68.6108 35.6996 67.5193 32.1371 65.4743 29.107C63.4294 26.0769 60.5227 23.7152 57.1221 22.3206C53.7214 20.926 49.9794 20.5611 46.3692 21.2721C42.7591 21.9831 39.4429 23.7379 36.8402 26.3148C34.2374 28.8917 32.4649 32.1749 31.7468 35.7492C31.0287 39.3234 31.3972 43.0282 32.8058 46.3951C34.2144 49.762 36.5998 52.6397 39.6604 54.6644C42.7209 56.689 46.3191 57.7697 50 57.7697C54.9342 57.7642 59.6647 55.8211 63.1537 52.3668C66.6427 48.9125 68.6053 44.229 68.6108 39.3439ZM50 55.3901C46.7915 55.3922 43.6545 54.452 40.9859 52.6884C38.3173 50.9249 36.237 48.4173 35.0082 45.4829C33.7794 42.5485 33.4574 39.3192 34.0828 36.2036C34.7082 33.0879 36.2531 30.2259 38.5218 27.9798C40.7905 25.7336 43.6812 24.2041 46.8282 23.5849C49.9751 22.9657 53.2368 23.2845 56.2007 24.5011C59.1645 25.7177 61.6973 27.7773 63.4786 30.4194C65.2598 33.0615 66.2095 36.1673 66.2074 39.3439C66.2019 43.5979 64.4925 47.6762 61.4543 50.6842C58.416 53.6923 54.2968 55.3847 50 55.3901V55.3901ZM81.8714 78.2129L70.1051 58.049C71.4681 56.409 72.2076 54.3481 72.1951 52.2243V51.3139C72.1783 50.4233 72.3479 49.5388 72.6932 48.7162C73.0385 47.8937 73.552 47.1507 74.2014 46.5342L74.8911 45.8513C76.6165 44.1371 77.5854 41.8157 77.5854 39.3956C77.5854 36.9755 76.6165 34.654 74.8911 32.9398L74.2014 32.257C73.552 31.6405 73.0385 30.8975 72.6932 30.0749C72.3479 29.2523 72.1783 28.3679 72.1951 27.4773V26.4841C72.1978 24.0603 71.2287 21.7345 69.5005 20.0177C67.7724 18.3009 65.4266 17.3335 62.9785 17.3281H62.038C61.1384 17.3446 60.2451 17.1767 59.4142 16.8349C58.5834 16.493 57.833 15.9846 57.2103 15.3417L56.5206 14.6692C54.7891 12.9609 52.4444 12.0017 50 12.0017C47.5556 12.0017 45.2109 12.9609 43.4794 14.6692L42.7897 15.352C42.1649 15.9916 41.4139 16.4971 40.5834 16.837C39.7529 17.177 38.8606 17.3441 37.962 17.3281H36.9902C35.7771 17.3294 34.5762 17.5673 33.4559 18.0282C32.3357 18.4891 31.3182 19.1639 30.4614 20.0141C29.6045 20.8643 28.9253 21.8733 28.4623 22.9834C27.9993 24.0935 27.7618 25.283 27.7631 26.4841V27.4462C27.7812 28.3361 27.6133 29.2201 27.2698 30.0426C26.9263 30.8652 26.4148 31.6085 25.7673 32.226L25.0776 32.9088C23.3521 34.623 22.3833 36.9444 22.3833 39.3645C22.3833 41.7846 23.3521 44.1061 25.0776 45.8203L25.7673 46.5031C26.4208 47.1226 26.936 47.8707 27.2798 48.6993C27.6235 49.5278 27.7882 50.4185 27.7631 51.3139V52.2761C27.7515 54.3997 28.4909 56.4603 29.8531 58.1007L18.1286 78.2129C18.0112 78.4037 17.9504 78.6233 17.9532 78.8466C17.956 79.07 18.0223 79.288 18.1444 79.4758C18.2665 79.6636 18.4395 79.8136 18.6437 79.9087C18.8479 80.0037 19.0749 80.0398 19.2989 80.0131L28.3692 78.9785L32.0266 87.2551C32.1161 87.4588 32.2614 87.6336 32.4461 87.7598C32.6308 87.886 32.8474 87.9584 33.0716 87.969H33.1447C33.3559 87.9702 33.5636 87.9164 33.7471 87.8128C33.9305 87.7093 34.0832 87.5598 34.1897 87.3792L46.6248 66.0566C48.7974 66.8837 51.2026 66.8837 53.3752 66.0566L65.8208 87.4103C65.9288 87.5894 66.0819 87.7378 66.2649 87.8412C66.448 87.9445 66.655 87.9992 66.8657 88H66.9284C67.1532 87.9919 67.3709 87.9204 67.5561 87.7939C67.7412 87.6675 67.886 87.4913 67.9734 87.2861L71.6412 79.0095L80.7115 80.0441C80.9332 80.069 81.1575 80.0318 81.3589 79.9367C81.5603 79.8416 81.7306 79.6924 81.8505 79.5061C81.9822 79.3165 82.0544 79.0927 82.0581 78.8626C82.0618 78.6326 81.9969 78.4066 81.8714 78.2129V78.2129ZM31.7131 59.6836C33.264 60.7549 35.1096 61.329 37.0006 61.3286H37.2932L28.3692 76.63L21.3889 77.3852L31.7131 59.6836ZM33.291 84.1617L30.4592 77.7887L39.9056 61.6597C41.0033 61.9753 41.998 62.5712 42.7897 63.3874L43.4794 64.0702C43.8053 64.3917 44.1546 64.6891 44.5244 64.96L33.291 84.1617ZM45.2141 62.3321L44.4826 61.6597C43.636 60.7993 42.6212 60.1189 41.5001 59.6599C40.3789 59.201 39.1751 58.9732 37.962 58.9905H36.9902C35.1813 58.9877 33.4473 58.2751 32.1682 57.0087C30.8891 55.7424 30.1693 54.0256 30.1666 52.2347V51.3139C30.1912 50.1009 29.9626 48.8958 29.495 47.7743C29.0275 46.6528 28.3312 45.6389 27.4497 44.7961L26.7704 44.1236C25.4942 42.8537 24.7778 41.1352 24.7778 39.3439C24.7778 37.5525 25.4942 35.834 26.7704 34.5641L27.4601 33.8813C28.3325 33.0452 29.0227 32.041 29.4881 30.9307C29.9536 29.8204 30.1845 28.6275 30.1666 27.4255V26.4841C30.1693 24.6932 30.8891 22.9764 32.1682 21.71C33.4473 20.4437 35.1813 19.731 36.9902 19.7283H37.962C39.1776 19.7434 40.3834 19.5115 41.5049 19.0471C42.6264 18.5827 43.6398 17.8955 44.4826 17.028L45.2141 16.3452C46.4967 15.0817 48.2324 14.3723 50.0418 14.3723C51.8512 14.3723 53.5869 15.0817 54.8695 16.3452L55.5488 17.0177C56.3903 17.8775 57.3993 18.5592 58.5147 19.0216C59.6302 19.484 60.8288 19.7173 62.038 19.7076H62.9785C63.8786 19.7049 64.7703 19.8782 65.6026 20.2177C66.4348 20.5571 67.1912 21.056 67.8281 21.6857C68.4651 22.3153 68.9701 23.0634 69.3142 23.8868C69.6584 24.7103 69.8348 25.5929 69.8334 26.4841V27.4462C69.8178 28.647 70.0487 29.8383 70.5122 30.9481C70.9756 32.0578 71.6619 33.0628 72.5294 33.902L73.2191 34.5848C74.4973 35.8516 75.2152 37.5688 75.2152 39.3594C75.2152 41.1499 74.4973 42.8672 73.2191 44.1339L72.5294 44.8168C71.6573 45.6612 70.9683 46.6729 70.5047 47.7901C70.0412 48.9072 69.8127 50.1063 69.8334 51.3139V52.2761C69.8169 54.0634 69.0867 55.7716 67.8023 57.0277C66.518 58.2837 64.7838 58.9857 62.9785 58.9801H62.038C60.8228 58.9652 59.6172 59.195 58.4945 59.6557C57.3717 60.1163 56.3553 60.7981 55.507 61.6597L54.8277 62.3425C53.5465 63.6086 51.8102 64.3196 50 64.3196C48.1898 64.3196 46.4535 63.6086 45.1723 62.3425L45.2141 62.3321ZM66.7194 84.1824L55.4756 64.9082C55.8453 64.6372 56.1945 64.3398 56.5206 64.0185L57.2103 63.3357C58.0063 62.536 59.001 61.9579 60.0944 61.6597L69.4991 77.8611L66.7194 84.1824ZM71.6203 76.63L62.7172 61.3493H62.9785C64.8487 61.341 66.6717 60.7671 68.2033 59.7043L78.6529 77.3852L71.6203 76.63ZM61.829 33.1778C61.6452 33.0221 61.4181 32.925 61.1776 32.8991C60.9371 32.8733 60.6943 32.9199 60.481 33.0329L54.9009 36.0436L50.8987 31.5121C50.7876 31.3841 50.6496 31.2817 50.4944 31.212C50.3392 31.1423 50.1704 31.107 50 31.1086V31.1086C49.8282 31.1083 49.6584 31.1441 49.5016 31.2136C49.3449 31.2832 49.2049 31.3849 49.0909 31.5121L45.0991 36.0436L39.5086 33.0329C39.2949 32.9213 39.0524 32.8755 38.8122 32.9013C38.572 32.9271 38.3451 33.0234 38.1605 33.1778C37.9778 33.3314 37.8462 33.536 37.7828 33.7649C37.7194 33.9938 37.7272 34.2363 37.8053 34.4607L41.9851 46.7307C42.0658 46.9635 42.218 47.1654 42.4203 47.3083C42.6227 47.4511 42.8651 47.5277 43.1137 47.5274H56.8027C57.0516 47.5293 57.2948 47.4533 57.4975 47.3102C57.7002 47.1672 57.852 46.9643 57.9313 46.7307L62.1111 34.4607C62.192 34.2457 62.2084 34.0122 62.1583 33.7883C62.1083 33.5644 61.9939 33.3595 61.829 33.1985V33.1778ZM55.9772 45.1789H44.0228L41.0342 36.6022L44.7647 38.6093C45.0064 38.7409 45.2861 38.787 45.5578 38.74C45.8295 38.693 46.0768 38.5556 46.259 38.3507L49.9791 34.1296L53.6992 38.3507C53.8808 38.5532 54.1262 38.689 54.3956 38.736C54.665 38.7829 54.9425 38.7383 55.183 38.6093L58.9031 36.6022L55.9772 45.1789Z" stroke="#EAE6E5" stroke-width="0.14" stroke-miterlimit="10"/>
</g>
<defs>
<clipPath id="clip0_120_89">
<rect width="66" height="76" fill="white" transform="translate(17 12)"/>
</clipPath>
</defs>
</svg>
