<svg xmlns="http://www.w3.org/2000/svg" xmlns:xlink="http://www.w3.org/1999/xlink" viewBox="0 0 110.39 76.2"><defs><style>.cls-1{fill:none;}.cls-2{clip-path:url(#clip-path);}.cls-3{isolation:isolate;}.cls-4{clip-path:url(#clip-path-2);}.cls-5{fill:#eae6e5;}</style><clipPath id="clip-path"><rect class="cls-1" width="110.39" height="76.2"/></clipPath><clipPath id="clip-path-2"><rect class="cls-1" x="-33082.67" y="-32122.61" width="65535" height="65535"/></clipPath></defs><g id="Слой_2" data-name="Слой 2"><g id="Слой_1-2" data-name="Слой 1"><g class="cls-2"><g class="cls-3"><g class="cls-4"><path class="cls-5" d="M70.12,20.23a1.19,1.19,0,0,1-1.19,1.19H57.62l-3,4-3-4H40.37a1.19,1.19,0,0,1-1.19-1.19V6a1.19,1.19,0,0,1,1.19-1.19H68.93A1.19,1.19,0,0,1,70.12,6ZM68.93,2.38H40.37A3.57,3.57,0,0,0,36.8,6V20.23a3.57,3.57,0,0,0,3.57,3.57H50.48l4.17,5.55,4.16-5.55H68.93a3.57,3.57,0,0,0,3.57-3.57V6a3.57,3.57,0,0,0-3.57-3.57"/><rect class="cls-5" x="32.04" y="20.69" width="2.38" height="8.58" transform="translate(-8.28 22.64) rotate(-33.71)"/><rect class="cls-5" x="26.68" y="25.82" width="2.38" height="9.06" transform="translate(-11.01 44) rotate(-66.79)"/><path class="cls-5" d="M88,32.13H78.45V29.75a1.19,1.19,0,0,1,1.19-1.19h7.14A1.19,1.19,0,0,1,88,29.75Zm0,8.33H78.45v-6H88Zm0,8.33H78.45V42.84H88Zm0,8.33H78.45V51.17H88Zm0,8.33H78.45v-6H88Zm0,4.76a1.19,1.19,0,0,1-1.19,1.19H79.64a1.19,1.19,0,0,1-1.19-1.19V67.83H88Zm-1.19-44H79.64a3.57,3.57,0,0,0-3.57,3.57V70.21a3.57,3.57,0,0,0,3.57,3.57h7.14a3.57,3.57,0,0,0,3.57-3.57V29.75a3.57,3.57,0,0,0-3.57-3.57"/><path class="cls-5" d="M70.12,32.13H60.6V29.75a1.19,1.19,0,0,1,1.19-1.19h7.14a1.19,1.19,0,0,1,1.19,1.19Zm0,8.33H60.6v-6h9.52Zm0,8.33H60.6V42.84h9.52Zm0,8.33H60.6V51.17h9.52Zm0,8.33H60.6v-6h9.52Zm0,4.76a1.19,1.19,0,0,1-1.19,1.19H61.79a1.19,1.19,0,0,1-1.19-1.19V67.83h9.52ZM55.68,35.6l-1.17,2.07L46.23,33l1.17-2.07A1.18,1.18,0,0,1,49,30.46L55.23,34a1.18,1.18,0,0,1,.45,1.62M50.4,44.92l-7.73-4.38a10.83,10.83,0,0,0,.08-1.27c0-.05,0-.1,0-.15l2.31-4.07,8.28,4.69Zm-4.11,7.24-7.75-4.39A10.8,10.8,0,0,0,42.1,43l7.13,4Zm-4.11,7.25L33.9,54.72l2.94-5.18,8.28,4.7Zm-4.11,7.25L29.79,62l2.94-5.17L41,61.48ZM35.72,70.8a1.19,1.19,0,0,1-1.62.45l-6.21-3.52a1.2,1.2,0,0,1-.45-1.63L28.62,64l8.28,4.7ZM33.23,40.46a3.57,3.57,0,0,1-3.37-2.38h9.32a1.19,1.19,0,0,1,1.19,1.19,7.85,7.85,0,0,1-.09,1.19Zm35.7-14.28H61.79a3.57,3.57,0,0,0-3.57,3.57v5.18a3.74,3.74,0,0,0-.13-.87,3.55,3.55,0,0,0-1.68-2.15L50.2,28.39a3.58,3.58,0,0,0-4.87,1.34l-3.86,6.81a3.55,3.55,0,0,0-2.29-.84H19v2.38H27.4a5.94,5.94,0,0,0,5.83,4.76h6.33A8.33,8.33,0,0,1,32,47.6H19V50H32A11.12,11.12,0,0,0,34,49.81L25.37,64.93a3.58,3.58,0,0,0,1.35,4.87l6.21,3.52a3.57,3.57,0,0,0,1.75.46,3.42,3.42,0,0,0,1-.13A3.57,3.57,0,0,0,37.8,72l20-35.19a3.65,3.65,0,0,0,.47-1.67v35.1a3.57,3.57,0,0,0,3.57,3.57h7.14a3.57,3.57,0,0,0,3.57-3.57V29.75a3.57,3.57,0,0,0-3.57-3.57"/><polygon class="cls-5" points="62.98 14.98 57.03 9.03 52.27 13.79 44.78 6.3 43.1 7.98 52.27 17.15 57.03 12.39 61.3 16.66 58.22 16.66 58.22 19.04 65.36 19.04 65.36 11.9 62.98 11.9 62.98 14.98"/></g></g></g></g></g></svg>