<svg xmlns="http://www.w3.org/2000/svg" xmlns:xlink="http://www.w3.org/1999/xlink" viewBox="0 0 80.57 80.57"><defs><style>.cls-1{fill:none;}.cls-2{clip-path:url(#clip-path);}.cls-3{isolation:isolate;}.cls-4{clip-path:url(#clip-path-2);}.cls-5{fill:#eae6e5;}</style><clipPath id="clip-path"><rect class="cls-1" width="80.57" height="80.57"/></clipPath><clipPath id="clip-path-2"><rect class="cls-1" x="-33712" y="-32116.56" width="65535" height="65535"/></clipPath></defs><g id="Слой_2" data-name="Слой 2"><g id="Слой_1-2" data-name="Слой 1"><g class="cls-2"><g class="cls-3"><g class="cls-4"><path class="cls-5" d="M41.86,61.37a1.58,1.58,0,1,1-1.57-1.57,1.57,1.57,0,0,1,1.57,1.57"/><path class="cls-5" d="M65.94,53.51a6.3,6.3,0,1,1,6.29-6.3,6.31,6.31,0,0,1-6.29,6.3m9.44-6.3a9.44,9.44,0,1,0-9.44,9.44,9.44,9.44,0,0,0,9.44-9.44"/><path class="cls-5" d="M77.43,72.39H59.17a18.92,18.92,0,0,0-2.11-8.68,12,12,0,0,1,8.88-3.91c6.23,0,11.49,5,11.49,11ZM40.29,56.65A15.74,15.74,0,0,1,56,72.39H24.55A15.75,15.75,0,0,1,40.29,56.65M3.15,70.82c0-6,5.26-11,11.49-11a12,12,0,0,1,8.87,3.91,18.92,18.92,0,0,0-2.11,8.68H3.15ZM65.94,56.65A15.4,15.4,0,0,0,55.32,61a18.88,18.88,0,0,0-30.07,0,15.37,15.37,0,0,0-10.61-4.32C6.7,56.65,0,63.14,0,70.82V74a1.57,1.57,0,0,0,1.57,1.58H79A1.57,1.57,0,0,0,80.57,74V70.82c0-7.68-6.7-14.17-14.63-14.17"/><path class="cls-5" d="M14.64,53.51a6.3,6.3,0,1,1,6.29-6.3,6.31,6.31,0,0,1-6.29,6.3m9.44-6.3a9.45,9.45,0,1,0-9.44,9.44,9.45,9.45,0,0,0,9.44-9.44"/><path class="cls-5" d="M40.29,50.36a9.45,9.45,0,1,1,9.44-9.44,9.46,9.46,0,0,1-9.44,9.44m12.59-9.44A12.59,12.59,0,1,0,40.29,53.51,12.6,12.6,0,0,0,52.88,40.92"/><path class="cls-5" d="M44.64,13.88a1.56,1.56,0,0,0-.45,1.39L45,19.71l-4-2.1a1.57,1.57,0,0,0-1.46,0l-4,2.1.77-4.44a1.6,1.6,0,0,0-.46-1.39L32.6,10.74l4.45-.65a1.56,1.56,0,0,0,1.19-.87l2-4.07,2,4.07a1.56,1.56,0,0,0,1.19.87l4.45.65Zm8.1-4.73a1.57,1.57,0,0,0-1.27-1.07l-6.79-1-3-6.22a1.57,1.57,0,0,0-2.82,0l-3,6.22L29,8.08a1.57,1.57,0,0,0-1.27,1.07,1.55,1.55,0,0,0,.4,1.61L33,15.56l-1.16,6.76A1.58,1.58,0,0,0,34.16,24l6.07-3.19L46.31,24a1.57,1.57,0,0,0,2.28-1.66l-1.16-6.76,4.91-4.8a1.55,1.55,0,0,0,.4-1.61"/><path class="cls-5" d="M69.75,24.13a1.56,1.56,0,0,0-.45,1.39l.38,2.25-2-1.06a1.59,1.59,0,0,0-1.47,0l-2,1.06.39-2.25a1.6,1.6,0,0,0-.46-1.39l-1.63-1.6,2.26-.33a1.53,1.53,0,0,0,1.18-.86l1-2.05,1,2.05a1.55,1.55,0,0,0,1.18.86l2.27.33ZM76.26,21A1.55,1.55,0,0,0,75,19.88l-4.6-.67-2-4.17a1.57,1.57,0,0,0-1.41-.88h0a1.56,1.56,0,0,0-1.41.88l-2.06,4.17-4.6.67A1.57,1.57,0,0,0,58,22.56l3.32,3.24-.78,4.58a1.58,1.58,0,0,0,.62,1.54,1.56,1.56,0,0,0,1.66.12l4.12-2.16L71,32a1.56,1.56,0,0,0,1.66-.12,1.58,1.58,0,0,0,.62-1.54l-.78-4.58,3.33-3.24A1.57,1.57,0,0,0,76.26,21"/><path class="cls-5" d="M16.24,24.13a1.56,1.56,0,0,0-.45,1.39l.39,2.25-2-1.06a1.57,1.57,0,0,0-1.46,0l-2,1.06.39-2.25a1.56,1.56,0,0,0-.45-1.39L9,22.53l2.26-.33a1.55,1.55,0,0,0,1.19-.86l1-2.05,1,2.05a1.55,1.55,0,0,0,1.19.86l2.26.33ZM22.76,21a1.57,1.57,0,0,0-1.27-1.07l-4.6-.67L14.83,15A1.57,1.57,0,0,0,12,15L10,19.21l-4.6.67a1.57,1.57,0,0,0-.87,2.68L7.81,25.8,7,30.38A1.58,1.58,0,0,0,9.31,32l4.11-2.16L17.53,32a1.58,1.58,0,0,0,2.29-1.66L19,25.8l3.33-3.24a1.58,1.58,0,0,0,.4-1.61"/><path class="cls-5" d="M47.18,61.86a1.57,1.57,0,1,0-1.73,2.63,9.56,9.56,0,0,1,3.37,3.85A1.57,1.57,0,1,0,51.66,67a12.62,12.62,0,0,0-4.48-5.13"/></g></g></g></g></g></svg>