<svg xmlns="http://www.w3.org/2000/svg" xmlns:xlink="http://www.w3.org/1999/xlink" viewBox="0 0 67.42 67.46"><defs><style>.cls-1{fill:none;}.cls-2{clip-path:url(#clip-path);}.cls-3{isolation:isolate;}.cls-4{clip-path:url(#clip-path-2);}.cls-5{fill:#eae6e5;}</style><clipPath id="clip-path"><rect class="cls-1" width="67.42" height="67.46"/></clipPath><clipPath id="clip-path-2"><rect class="cls-1" x="-33413.05" y="-32408.06" width="65535" height="65535"/></clipPath></defs><g id="Слой_2" data-name="Слой 2"><g id="Слой_1-2" data-name="Слой 1"><g class="cls-2"><g class="cls-3"><g class="cls-4"><path class="cls-5" d="M61.73,33.16h.06a1.14,1.14,0,0,0,1.13-1.06c0-.21,0-.42,0-.64a31.28,31.28,0,0,0-4.19-15.65.26.26,0,0,0,0-.08l-.05-.06A31.57,31.57,0,0,0,47.25,4.27l0,0-.08,0a31.35,31.35,0,0,0-31.3,0l-.09,0s0,0-.07.07a29.93,29.93,0,0,0-3.23,2.12A1.13,1.13,0,0,0,13.8,8.2c.68-.52,1.38-1,2.1-1.45L17,8.67A1.12,1.12,0,1,0,19,7.55L17.84,5.62a28.86,28.86,0,0,1,12.5-3.33v2.2a1.13,1.13,0,1,0,2.25,0V2.28A28.88,28.88,0,0,1,45.08,5.63L44,7.55a1.1,1.1,0,0,0,0,1.12,1.12,1.12,0,0,0,2,0L47,6.76a29.42,29.42,0,0,1,9.14,9.14L54.26,17a1.12,1.12,0,0,0,0,1.95,1.14,1.14,0,0,0,1.13,0l1.91-1.11a28.85,28.85,0,0,1,3.38,13.61c0,.17,0,.34,0,.51a1.13,1.13,0,0,0,1.06,1.19"/><path class="cls-5" d="M49.44,65.18A15.73,15.73,0,1,1,65.18,49.44,15.74,15.74,0,0,1,49.44,65.18m0-33.72a18,18,0,1,0,18,18,18,18,0,0,0-18-18"/><path class="cls-5" d="M31.46,33.71a2.25,2.25,0,1,1,2.25-2.25,2.24,2.24,0,0,1-2.25,2.25m-8.85,8.2a1.16,1.16,0,0,1-1.59,0,1.14,1.14,0,0,1,0-1.59l6.59-6.59a4.33,4.33,0,0,0,1.59,1.59Zm8.85-30.67a1.07,1.07,0,0,1,.8.34,1.11,1.11,0,0,1,.33.78V27.13a4.1,4.1,0,0,0-2.25,0V12.36a1.12,1.12,0,0,1,1.12-1.12M33.85,10a3.29,3.29,0,0,0-2.39-1,3.37,3.37,0,0,0-3.37,3.37V28.52A4.51,4.51,0,0,0,27,31.16l-7.57,7.57A3.37,3.37,0,0,0,24.2,43.5l7.57-7.57a4.46,4.46,0,0,0,3.07-7.41V12.36a3.31,3.31,0,0,0-1-2.37"/><path class="cls-5" d="M4.29,47.29A31.72,31.72,0,0,0,15.67,58.66s0,0,.06.05l.12,0a31.32,31.32,0,0,0,15.61,4.17h.64a1.14,1.14,0,0,0,1.06-1.19A1.16,1.16,0,0,0,32,60.67h-.51A29,29,0,0,1,17.85,57.3L19,55.38A1.12,1.12,0,1,0,17,54.26L15.9,56.17A29.32,29.32,0,0,1,6.76,47l1.91-1.11a1.14,1.14,0,0,0,.57-1,1.13,1.13,0,0,0-1.7-1l-1.92,1.1A29,29,0,0,1,2.28,32.59H4.5a1.13,1.13,0,0,0,0-2.25H2.29a28.89,28.89,0,0,1,3.32-12.5L7.55,19a1.1,1.1,0,0,0,1.12,0,1.14,1.14,0,0,0,.57-1,1.12,1.12,0,0,0-.57-1L6.74,15.89c.45-.71.94-1.41,1.46-2.1A1.13,1.13,0,0,0,7.46,12a1.16,1.16,0,0,0-1,.47,30,30,0,0,0-2.13,3.23s0,0-.07.07a.32.32,0,0,0,0,.09,31.35,31.35,0,0,0,0,31.3s0,.05,0,.08Z"/><path class="cls-5" d="M53.94,54.5a4.06,4.06,0,0,1-3.37,3.79V50.71a4.06,4.06,0,0,1,3.37,3.79M45,44.39a4.08,4.08,0,0,1,3.37-3.8v7.59A4.07,4.07,0,0,1,45,44.39m9,0a1.13,1.13,0,0,0,2.25,0,6.38,6.38,0,0,0-5.62-6.09v-.09a1.13,1.13,0,1,0-2.25,0v.09a6.37,6.37,0,0,0-5.62,6.09,6.36,6.36,0,0,0,5.62,6.08v7.82A4.06,4.06,0,0,1,45,54.5a1.13,1.13,0,0,0-2.25,0,6.37,6.37,0,0,0,5.62,6.09v.09a1.13,1.13,0,0,0,2.25,0v-.09a6.11,6.11,0,0,0,0-12.18V40.59a4.08,4.08,0,0,1,3.37,3.8"/></g></g></g></g></g></svg>