<svg xmlns="http://www.w3.org/2000/svg" xmlns:xlink="http://www.w3.org/1999/xlink" viewBox="0 0 63.16 73.46"><defs><style>.cls-1,.cls-4{fill:none;}.cls-2{clip-path:url(#clip-path);}.cls-3{fill:#eae6e5;}.cls-4{stroke:#eae6e5;stroke-miterlimit:10;stroke-width:0.14px;}</style><clipPath id="clip-path"><rect class="cls-1" width="63.16" height="73.46"/></clipPath></defs><g id="Слой_2" data-name="Слой 2"><g id="Слой_1-2" data-name="Слой 1"><g class="cls-2"><path class="cls-3" d="M49.39,26.43A17.81,17.81,0,1,0,31.58,44.24,17.83,17.83,0,0,0,49.39,26.43M31.58,41.94A15.52,15.52,0,1,1,47.09,26.43,15.53,15.53,0,0,1,31.58,41.94M62.08,64,50.82,44.51a8.78,8.78,0,0,0,2-5.63V38a6.24,6.24,0,0,1,1.92-4.62l.66-.66a8.84,8.84,0,0,0,0-12.48l-.66-.66a6.24,6.24,0,0,1-1.92-4.62V14A8.84,8.84,0,0,0,44,5.15H43.1a6.24,6.24,0,0,1-4.62-1.92l-.66-.65a8.84,8.84,0,0,0-12.48,0l-.66.66a6.27,6.27,0,0,1-4.62,1.91h-.93A8.84,8.84,0,0,0,10.3,14v.93a6.24,6.24,0,0,1-1.91,4.62l-.66.66a8.84,8.84,0,0,0,0,12.48l.66.66A6.2,6.2,0,0,1,10.3,38v.93a8.79,8.79,0,0,0,2,5.63L1.08,64A1.15,1.15,0,0,0,2.2,65.74l8.68-1,3.5,8a1.15,1.15,0,0,0,1,.69h.07a1.15,1.15,0,0,0,1-.57L28.35,52.25a9,9,0,0,0,6.46,0L46.72,72.89a1.17,1.17,0,0,0,1,.57h.06a1.13,1.13,0,0,0,1-.69l3.51-8,8.68,1a1.14,1.14,0,0,0,1.09-.52,1.13,1.13,0,0,0,0-1.2m-48-17.91a8.84,8.84,0,0,0,5.06,1.59h.28L10.88,62.47,4.2,63.2Zm1.51,23.66-2.71-6.16L21.92,48a6.24,6.24,0,0,1,2.76,1.67l.66.66a9,9,0,0,0,1,.86ZM27,48.65,26.3,48a8.54,8.54,0,0,0-6.24-2.58h-.93a6.54,6.54,0,0,1-6.53-6.53V38A8.52,8.52,0,0,0,10,31.7l-.65-.65a6.55,6.55,0,0,1,0-9.24l.66-.66a8.51,8.51,0,0,0,2.59-6.24V14a6.54,6.54,0,0,1,6.53-6.53h.93A8.51,8.51,0,0,0,26.3,4.86L27,4.2a6.55,6.55,0,0,1,9.24,0l.65.65A8.55,8.55,0,0,0,43.1,7.45H44A6.54,6.54,0,0,1,50.56,14v.93a8.57,8.57,0,0,0,2.58,6.24l.66.66a6.53,6.53,0,0,1,0,9.23l-.66.66A8.58,8.58,0,0,0,50.56,38v.93A6.54,6.54,0,0,1,44,45.41H43.1A8.58,8.58,0,0,0,36.85,48l-.65.66a6.54,6.54,0,0,1-9.24,0M47.58,69.77,36.82,51.14a9.07,9.07,0,0,0,1-.86l.66-.66A6.18,6.18,0,0,1,41.24,48l9,15.66Zm4.69-7.3L43.75,47.7H44a8.78,8.78,0,0,0,5-1.59L59,63.2Zm-9.37-42a1.15,1.15,0,0,0-1.29-.14l-5.34,2.91-3.83-4.38a1.12,1.12,0,0,0-.86-.39h0a1.16,1.16,0,0,0-.87.39l-3.82,4.38-5.35-2.91a1.16,1.16,0,0,0-1.29.14,1.14,1.14,0,0,0-.34,1.24l4,11.86a1.14,1.14,0,0,0,1.08.77h13.1a1.13,1.13,0,0,0,1.08-.77l4-11.86a1.15,1.15,0,0,0-.35-1.24M37.3,32.07H25.86L23,23.78l3.57,1.94A1.16,1.16,0,0,0,28,25.47l3.56-4.08,3.56,4.08a1.16,1.16,0,0,0,1.42.25l3.56-1.94Z"/><path class="cls-4" d="M49.39,26.43A17.81,17.81,0,1,0,31.58,44.24,17.83,17.83,0,0,0,49.39,26.43ZM31.58,41.94A15.52,15.52,0,1,1,47.09,26.43,15.53,15.53,0,0,1,31.58,41.94ZM62.08,64,50.82,44.51a8.78,8.78,0,0,0,2-5.63V38a6.24,6.24,0,0,1,1.92-4.62l.66-.66a8.84,8.84,0,0,0,0-12.48l-.66-.66a6.24,6.24,0,0,1-1.92-4.62V14A8.84,8.84,0,0,0,44,5.15H43.1a6.24,6.24,0,0,1-4.62-1.92l-.66-.65a8.84,8.84,0,0,0-12.48,0l-.66.66a6.27,6.27,0,0,1-4.62,1.91h-.93A8.84,8.84,0,0,0,10.3,14v.93a6.24,6.24,0,0,1-1.91,4.62l-.66.66a8.84,8.84,0,0,0,0,12.48l.66.66A6.2,6.2,0,0,1,10.3,38v.93a8.79,8.79,0,0,0,2,5.63L1.08,64A1.15,1.15,0,0,0,2.2,65.74l8.68-1,3.5,8a1.15,1.15,0,0,0,1,.69h.07a1.15,1.15,0,0,0,1-.57L28.35,52.25a9,9,0,0,0,6.46,0L46.72,72.89a1.17,1.17,0,0,0,1,.57h.06a1.13,1.13,0,0,0,1-.69l3.51-8,8.68,1a1.14,1.14,0,0,0,1.09-.52A1.13,1.13,0,0,0,62.08,64Zm-48-17.91a8.84,8.84,0,0,0,5.06,1.59h.28L10.88,62.47,4.2,63.2Zm1.51,23.66-2.71-6.16L21.92,48a6.24,6.24,0,0,1,2.76,1.67l.66.66a9,9,0,0,0,1,.86ZM27,48.65,26.3,48a8.54,8.54,0,0,0-6.24-2.58h-.93a6.54,6.54,0,0,1-6.53-6.53V38A8.52,8.52,0,0,0,10,31.7l-.65-.65a6.55,6.55,0,0,1,0-9.24l.66-.66a8.51,8.51,0,0,0,2.59-6.24V14a6.54,6.54,0,0,1,6.53-6.53h.93A8.51,8.51,0,0,0,26.3,4.86L27,4.2a6.55,6.55,0,0,1,9.24,0l.65.65A8.55,8.55,0,0,0,43.1,7.45H44A6.54,6.54,0,0,1,50.56,14v.93a8.57,8.57,0,0,0,2.58,6.24l.66.66a6.53,6.53,0,0,1,0,9.23l-.66.66A8.58,8.58,0,0,0,50.56,38v.93A6.54,6.54,0,0,1,44,45.41H43.1A8.58,8.58,0,0,0,36.85,48l-.65.66a6.54,6.54,0,0,1-9.24,0ZM47.58,69.77,36.82,51.14a9.07,9.07,0,0,0,1-.86l.66-.66A6.18,6.18,0,0,1,41.24,48l9,15.66Zm4.69-7.3L43.75,47.7H44a8.78,8.78,0,0,0,5-1.59L59,63.2Zm-9.37-42a1.15,1.15,0,0,0-1.29-.14l-5.34,2.91-3.83-4.38a1.12,1.12,0,0,0-.86-.39h0a1.16,1.16,0,0,0-.87.39l-3.82,4.38-5.35-2.91a1.16,1.16,0,0,0-1.29.14,1.14,1.14,0,0,0-.34,1.24l4,11.86a1.14,1.14,0,0,0,1.08.77h13.1a1.13,1.13,0,0,0,1.08-.77l4-11.86A1.15,1.15,0,0,0,42.9,20.49ZM37.3,32.07H25.86L23,23.78l3.57,1.94A1.16,1.16,0,0,0,28,25.47l3.56-4.08,3.56,4.08a1.16,1.16,0,0,0,1.42.25l3.56-1.94Z"/></g></g></g></svg>