<svg xmlns="http://www.w3.org/2000/svg" xmlns:xlink="http://www.w3.org/1999/xlink" viewBox="0 0 72.03 72.03"><defs><style>.cls-1{fill:none;}.cls-2{clip-path:url(#clip-path);}.cls-3{isolation:isolate;}.cls-4{clip-path:url(#clip-path-2);}.cls-5{fill:#eae6e5;}</style><clipPath id="clip-path"><rect class="cls-1" width="72.03" height="72.03"/></clipPath><clipPath id="clip-path-2"><rect class="cls-1" x="-34317.61" y="-32128.24" width="65535" height="65535"/></clipPath></defs><g id="Слой_2" data-name="Слой 2"><g id="Слой_1-2" data-name="Слой 1"><g class="cls-2"><g class="cls-3"><g class="cls-4"><path class="cls-5" d="M14.63,54a3.38,3.38,0,1,1-3.37,3.38A3.39,3.39,0,0,1,14.63,54m0,9A5.63,5.63,0,1,0,9,57.4,5.64,5.64,0,0,0,14.63,63"/><path class="cls-5" d="M4.5,56.27h.59a2.27,2.27,0,0,0,2.14-1.54,5.72,5.72,0,0,1,.28-.68,2.27,2.27,0,0,0-.42-2.6L6.67,51l1.59-1.59.42.42a2.31,2.31,0,0,0,2.6.42A7.13,7.13,0,0,1,12,50a2.28,2.28,0,0,0,1.54-2.13v-.59h2.25v.59A2.28,2.28,0,0,0,17.3,50c.23.09.46.18.68.29a2.29,2.29,0,0,0,2.6-.42l.42-.42L22.59,51l-.42.42a2.27,2.27,0,0,0-.42,2.6,7.13,7.13,0,0,1,.29.69,2.25,2.25,0,0,0,2.13,1.53h.59v2.25h-.59A2.26,2.26,0,0,0,22,60.07c-.09.23-.18.46-.29.68a2.29,2.29,0,0,0,.42,2.6l.42.42L21,65.36l-.42-.42A2.28,2.28,0,0,0,18,64.52a6.65,6.65,0,0,1-.69.28,2.31,2.31,0,0,0-1.54,2.14v.59H13.51v-.59A2.3,2.3,0,0,0,12,64.8a7.1,7.1,0,0,1-.69-.28,2.29,2.29,0,0,0-2.6.42l-.42.42-1.59-1.6.42-.41a2.27,2.27,0,0,0,.42-2.6,5.24,5.24,0,0,1-.28-.69,2.28,2.28,0,0,0-2.14-1.54H4.5ZM3.38,60.78l1.73,0a10,10,0,0,0,.39.94L4.29,63a1.12,1.12,0,0,0,0,1.59l3.18,3.19a1.12,1.12,0,0,0,1.59,0l1.26-1.19c.29.13.58.25.93.38v1.71a1.14,1.14,0,0,0,1.13,1.13h4.5A1.14,1.14,0,0,0,18,68.65l0-1.73c.3-.11.59-.23.93-.39l1.21,1.21a1.14,1.14,0,0,0,1.59,0L25,64.56A1.12,1.12,0,0,0,25,63l-1.19-1.26c.13-.29.26-.59.38-.94h1.72A1.12,1.12,0,0,0,27,59.65v-4.5A1.13,1.13,0,0,0,25.89,54l-1.73,0a10.15,10.15,0,0,0-.4-.94L25,51.83a1.12,1.12,0,0,0,0-1.59l-3.19-3.19a1.11,1.11,0,0,0-.79-.33,1.14,1.14,0,0,0-.8.33l-1.26,1.19c-.29-.13-.58-.26-.93-.38V46.14A1.13,1.13,0,0,0,16.88,45h-4.5a1.13,1.13,0,0,0-1.13,1.12l0,1.74a7.86,7.86,0,0,0-.94.39L9.06,47.05a1.16,1.16,0,0,0-1.59,0L4.29,50.24a1.12,1.12,0,0,0,0,1.59l1.19,1.26c-.14.29-.26.58-.39.93H3.38a1.13,1.13,0,0,0-1.13,1.13v4.5a1.13,1.13,0,0,0,1.13,1.13"/><path class="cls-5" d="M14.63,11.25a3.38,3.38,0,1,1-3.37,3.38,3.39,3.39,0,0,1,3.37-3.38m0,9A5.63,5.63,0,1,0,9,14.63a5.64,5.64,0,0,0,5.63,5.63"/><path class="cls-5" d="M4.5,13.51h.59A2.28,2.28,0,0,0,7.23,12a5.72,5.72,0,0,1,.28-.68,2.27,2.27,0,0,0-.42-2.6l-.42-.42L8.26,6.67l.42.42a2.29,2.29,0,0,0,2.6.42A5.24,5.24,0,0,1,12,7.23a2.31,2.31,0,0,0,1.54-2.14V4.5h2.25v.59A2.3,2.3,0,0,0,17.3,7.23c.23.08.46.18.68.28a2.29,2.29,0,0,0,2.6-.42L21,6.67l1.59,1.6-.42.41a2.27,2.27,0,0,0-.42,2.6A7.13,7.13,0,0,1,22,12a2.26,2.26,0,0,0,2.13,1.54h.59v2.25h-.59A2.25,2.25,0,0,0,22,17.3c-.09.23-.18.46-.29.68a2.29,2.29,0,0,0,.42,2.6l.42.42L21,22.59l-.42-.42A2.28,2.28,0,0,0,18,21.75c-.23.11-.46.2-.69.29a2.28,2.28,0,0,0-1.54,2.13v.59H13.51v-.59A2.28,2.28,0,0,0,12,22a7.13,7.13,0,0,1-.69-.29,2.31,2.31,0,0,0-2.6.42l-.42.42L6.67,21l.42-.42A2.27,2.27,0,0,0,7.51,18a5.24,5.24,0,0,1-.28-.69,2.27,2.27,0,0,0-2.14-1.53H4.5ZM3.38,18l1.73,0A10,10,0,0,0,5.5,19L4.29,20.2a1.12,1.12,0,0,0,0,1.59L7.47,25a1.12,1.12,0,0,0,1.59,0l1.26-1.19c.29.13.58.26.93.38v1.72A1.13,1.13,0,0,0,12.38,27h4.5A1.13,1.13,0,0,0,18,25.89l0-1.74a8.49,8.49,0,0,0,.93-.39L20.2,25a1.16,1.16,0,0,0,1.59,0L25,21.79a1.12,1.12,0,0,0,0-1.59l-1.19-1.26c.13-.29.26-.58.38-.93h1.72A1.13,1.13,0,0,0,27,16.88v-4.5a1.13,1.13,0,0,0-1.12-1.13l-1.73,0a10.15,10.15,0,0,0-.4-.94L25,9.06a1.12,1.12,0,0,0,0-1.59L21.79,4.28A1.11,1.11,0,0,0,21,4a1.14,1.14,0,0,0-.8.33L18.94,5.47c-.29-.13-.58-.25-.93-.38V3.38a1.14,1.14,0,0,0-1.13-1.13h-4.5a1.14,1.14,0,0,0-1.13,1.13l0,1.73a10,10,0,0,0-.94.39L9.06,4.29a1.14,1.14,0,0,0-1.59,0L4.29,7.47a1.12,1.12,0,0,0,0,1.59l1.19,1.26c-.14.29-.26.58-.39.93H3.38a1.13,1.13,0,0,0-1.13,1.13v4.5A1.13,1.13,0,0,0,3.38,18"/><path class="cls-5" d="M61.51,43a1.12,1.12,0,0,0-1.86.85v2.25H53a4.53,4.53,0,0,1-4-2.48L47.15,40l-2,1L47,44.66a6.79,6.79,0,0,0,6,3.73h7.77a1.12,1.12,0,0,0,1.13-1.12v-.93l5,4.31-5,4.3V54a1.12,1.12,0,0,0-1.13-1.12H52a10.06,10.06,0,0,1-9-5.6l-.83-1.66-2,1,.83,1.65A12.29,12.29,0,0,0,52,55.15h7.68V57.4a1.13,1.13,0,0,0,.65,1,1.17,1.17,0,0,0,.47.1,1.13,1.13,0,0,0,.74-.27l7.87-6.75a1.13,1.13,0,0,0,.4-.85,1.15,1.15,0,0,0-.4-.86Z"/><path class="cls-5" d="M33.29,35.3l.94-2a6.67,6.67,0,0,0-2.82-.62H14.63v2.25H31.41a4.48,4.48,0,0,1,1.88.41"/><path class="cls-5" d="M24.76,28.14h7.68a10.24,10.24,0,0,1,4.41,1l1-2a12.47,12.47,0,0,0-5.39-1.23H24.76Z"/><path class="cls-5" d="M31.41,38.27H14.63v2.25H31.41a6.7,6.7,0,0,0,6-3.74l5.46-10.92A10.07,10.07,0,0,1,52,20.26h8.8a1.13,1.13,0,0,0,1.13-1.13V18.2l5,4.31-5,4.31v-.93a1.12,1.12,0,0,0-1.13-1.13H53a6.71,6.71,0,0,0-6,3.73L41.5,39.42A10.09,10.09,0,0,1,32.43,45H24.76v2.25h7.67a12.32,12.32,0,0,0,11.08-6.84L49,29.5A4.47,4.47,0,0,1,53,27h6.65v2.25a1.13,1.13,0,0,0,1.86.86l7.87-6.76a1.11,1.11,0,0,0,.4-.85,1.15,1.15,0,0,0-.4-.86L61.51,14.9a1.12,1.12,0,0,0-1.86.86V18H52A12.31,12.31,0,0,0,40.9,24.85L35.44,35.78a4.49,4.49,0,0,1-4,2.49"/><rect class="cls-5" x="10.13" y="32.64" width="2.25" height="2.25"/><rect class="cls-5" x="5.63" y="32.64" width="2.25" height="2.25"/><rect class="cls-5" x="10.13" y="38.27" width="2.25" height="2.25"/><rect class="cls-5" x="5.63" y="38.27" width="2.25" height="2.25"/></g></g></g></g></g></svg>