<svg width="100" height="100" viewBox="0 0 100 100" fill="none" xmlns="http://www.w3.org/2000/svg">
<path d="M27.477 69.1262C28.1847 69.1241 28.877 69.332 29.4664 69.7237C30.0558 70.1153 30.5158 70.673 30.788 71.3262C31.0603 71.9794 31.1326 72.6986 30.9959 73.3929C30.8591 74.0872 30.5194 74.7254 30.0197 75.2265C29.5201 75.7276 28.883 76.0692 28.1891 76.208C27.4952 76.3469 26.7757 76.2767 26.1217 76.0064C25.4677 75.736 24.9086 75.2777 24.5153 74.6895C24.1219 74.1013 23.9119 73.4095 23.9119 72.7019C23.9147 71.7562 24.2909 70.8499 24.9585 70.1803C25.6262 69.5106 26.5314 69.1318 27.477 69.1262V69.1262ZM27.477 78.6472C28.6563 78.6472 29.8091 78.2971 30.7892 77.6412C31.7694 76.9854 32.5327 76.0533 32.9826 74.9631C33.4324 73.873 33.5485 72.6738 33.3161 71.5176C33.0837 70.3614 32.5133 69.3002 31.6771 68.4686C30.841 67.6369 29.7768 67.0722 28.6194 66.846C27.462 66.6197 26.2634 66.7422 25.1757 67.1979C24.088 67.6535 23.16 68.4219 22.5094 69.4055C21.8588 70.3891 21.5148 71.5437 21.5211 72.723C21.5322 74.2963 22.1643 75.8014 23.2798 76.9109C24.3952 78.0204 25.9037 78.6445 27.477 78.6472" fill="#EAE6E5"/>
<path d="M16.7605 71.5276H17.3847C17.8847 71.5255 18.3715 71.3675 18.7774 71.0754C19.1832 70.7833 19.4878 70.3719 19.6486 69.8985C19.7318 69.6526 19.8307 69.4123 19.9448 69.1791C20.1659 68.7313 20.2419 68.2258 20.1623 67.7328C20.0826 67.2398 19.8513 66.7839 19.5004 66.4286L19.0561 65.9525L20.7382 64.2705L21.1825 64.7148C21.5411 65.0603 21.9967 65.2879 22.4882 65.3673C22.9798 65.4467 23.4839 65.3741 23.933 65.1591C24.182 65.0574 24.4363 64.9691 24.6947 64.8946C25.1656 64.7331 25.575 64.4298 25.8667 64.0264C26.1583 63.6229 26.318 63.1391 26.3239 62.6413V62.0172H28.7041V62.6413C28.7076 63.1353 28.8627 63.6163 29.1483 64.0193C29.434 64.4223 29.8366 64.7278 30.3015 64.8946C30.5448 64.9898 30.7882 65.0851 31.0209 65.2014C31.4694 65.4194 31.9742 65.4938 32.4664 65.4142C32.9587 65.3347 33.4144 65.1052 33.7714 64.7571L34.2157 64.3128L35.8978 65.9525L35.4535 66.3968C35.1026 66.7522 34.8713 67.2081 34.7916 67.7011C34.712 68.1941 34.788 68.6996 35.0092 69.1474C35.1241 69.3851 35.2265 69.6288 35.3159 69.8773C35.4752 70.3488 35.7782 70.7585 36.1824 71.0488C36.5866 71.3392 37.0716 71.4955 37.5693 71.4959H38.1934V73.8761H37.5693C37.0582 73.8728 36.5595 74.0333 36.1464 74.3341C35.7333 74.635 35.4274 75.0602 35.2736 75.5476C35.1784 75.7909 35.0832 76.0342 34.9668 76.267C34.7488 76.7154 34.6745 77.2202 34.754 77.7125C34.8335 78.2048 35.063 78.6605 35.4111 79.0175L35.8555 79.4618L34.2157 81.1439L33.7714 80.6995C33.4169 80.3546 32.965 80.1269 32.4767 80.0474C31.9885 79.9679 31.4877 80.0405 31.0421 80.2552C30.8045 80.3675 30.5608 80.4664 30.3121 80.5514C29.842 80.7176 29.434 81.0235 29.1428 81.4281C28.8516 81.8328 28.6912 82.3168 28.683 82.8153V83.4395H26.2921V82.8153C26.2878 82.3203 26.1326 81.8383 25.8471 81.4338C25.5617 81.0293 25.1597 80.7215 24.6947 80.5514C24.4464 80.4655 24.2027 80.3667 23.9648 80.2552C23.5163 80.0372 23.0115 79.9629 22.5192 80.0424C22.027 80.1219 21.5712 80.3514 21.2142 80.6995L20.7699 81.1439L19.0879 79.4512L19.5322 79.0175C19.883 78.6621 20.1144 78.2062 20.194 77.7133C20.2737 77.2203 20.1976 76.7147 19.9765 76.267C19.8606 76.031 19.7616 75.7871 19.6803 75.537C19.5181 75.0644 19.2132 74.6539 18.8077 74.362C18.4022 74.0702 17.916 73.9115 17.4164 73.9079H16.7605V71.5276ZM15.5757 76.2987H17.4058C17.5264 76.637 17.6641 76.9689 17.8184 77.2931L16.5383 78.6472C16.4274 78.7574 16.3393 78.8884 16.2792 79.0327C16.219 79.1771 16.1881 79.3319 16.1881 79.4883C16.1881 79.6446 16.219 79.7994 16.2792 79.9438C16.3393 80.0881 16.4274 80.2191 16.5383 80.3293L19.9024 83.704C20.0126 83.8149 20.1436 83.903 20.2879 83.9632C20.4323 84.0233 20.5871 84.0542 20.7435 84.0542C20.8998 84.0542 21.0547 84.0233 21.199 83.9632C21.3433 83.903 21.4744 83.8149 21.5845 83.704L22.9174 82.4451C23.2242 82.5826 23.531 82.7095 23.9013 82.8471V84.6561C23.904 84.9723 24.0309 85.2747 24.2545 85.4983C24.4781 85.7219 24.7805 85.8487 25.0967 85.8515H29.8572C30.0156 85.8487 30.1719 85.8148 30.3171 85.7516C30.4624 85.6885 30.5938 85.5973 30.7038 85.4833C30.8139 85.3694 30.9004 85.2349 30.9584 85.0875C31.0164 84.9401 31.0449 84.7827 31.0421 84.6243V82.7942C31.3594 82.6778 31.6662 82.5509 32.0259 82.3816L33.3059 83.6616C33.5311 83.8807 33.8328 84.0033 34.147 84.0033C34.4611 84.0033 34.7628 83.8807 34.988 83.6616L38.4473 80.2975C38.6619 80.0765 38.7819 79.7805 38.7819 79.4724C38.7819 79.1643 38.6619 78.8683 38.4473 78.6472L37.1884 77.3143C37.3259 77.0075 37.4635 76.6901 37.5904 76.3199H39.41C39.5656 76.3158 39.7189 76.281 39.8611 76.2176C40.0032 76.1543 40.1315 76.0635 40.2386 75.9505C40.3457 75.8375 40.4295 75.7046 40.4852 75.5592C40.5408 75.4138 40.5673 75.2589 40.5631 75.1033V70.3428C40.5659 70.1858 40.5377 70.0298 40.4802 69.8837C40.4227 69.7376 40.337 69.6042 40.228 69.4912C40.1189 69.3783 39.9887 69.2879 39.8447 69.2252C39.7007 69.1626 39.5458 69.129 39.3888 69.1262H37.5587C37.4344 68.7878 37.2932 68.4559 37.1355 68.1318L38.4473 66.8306C38.5583 66.7204 38.6464 66.5894 38.7065 66.4451C38.7666 66.3007 38.7976 66.1459 38.7976 65.9896C38.7976 65.8332 38.7666 65.6784 38.7065 65.534C38.6464 65.3897 38.5583 65.2587 38.4473 65.1485L35.0726 61.7738C34.9634 61.6632 34.8332 61.5754 34.6898 61.5155C34.5463 61.4555 34.3924 61.4247 34.2369 61.4247C33.9199 61.4254 33.6158 61.5508 33.3906 61.7738L32.0576 63.0327C31.7508 62.8952 31.4441 62.7577 31.0738 62.6307V60.8112C31.0752 60.6515 31.0447 60.4932 30.9839 60.3455C30.9231 60.1978 30.8334 60.0638 30.72 59.9514C30.6066 59.839 30.4718 59.7505 30.3237 59.691C30.1755 59.6315 30.0169 59.6023 29.8572 59.6052H25.0967C24.7815 59.6052 24.479 59.7296 24.2551 59.9516C24.0312 60.1735 23.9041 60.4748 23.9013 60.79V62.6307C23.5612 62.7466 23.2291 62.8845 22.9069 63.0433L21.5845 61.7738C21.3569 61.5596 21.0561 61.4403 20.7435 61.4403C20.4309 61.4403 20.1301 61.5596 19.9024 61.7738L16.5383 65.1485C16.4274 65.2587 16.3393 65.3897 16.2792 65.534C16.219 65.6784 16.1881 65.8332 16.1881 65.9896C16.1881 66.1459 16.219 66.3007 16.2792 66.4451C16.3393 66.5894 16.4274 66.7204 16.5383 66.8306L17.7972 68.1635C17.6491 68.4703 17.5222 68.7771 17.3847 69.1474H15.5757C15.2586 69.1474 14.9546 69.2733 14.7304 69.4975C14.5062 69.7217 14.3802 70.0257 14.3802 70.3428V75.1033C14.3802 75.4203 14.5062 75.7244 14.7304 75.9486C14.9546 76.1728 15.2586 76.2987 15.5757 76.2987" fill="#EAE6E5"/>
<path d="M27.4769 23.9013C28.1846 23.8992 28.8769 24.1071 29.4664 24.4987C30.0558 24.8904 30.5157 25.4481 30.788 26.1013C31.0602 26.7544 31.1325 27.4737 30.9958 28.168C30.859 28.8623 30.5193 29.5004 30.0196 30.0016C29.52 30.5027 28.8829 30.8443 28.189 30.9831C27.4951 31.122 26.7756 31.0518 26.1216 30.7814C25.4676 30.5111 24.9086 30.0528 24.5152 29.4646C24.1218 28.8763 23.9118 28.1846 23.9118 27.477C23.9146 26.5313 24.2908 25.625 24.9585 24.9554C25.6261 24.2857 26.5313 23.9069 27.4769 23.9013V23.9013ZM27.4769 33.4223C28.6554 33.4223 29.8073 33.0727 30.787 32.4178C31.7667 31.7629 32.53 30.8321 32.9805 29.7432C33.431 28.6542 33.5483 27.4562 33.3176 26.3005C33.087 25.1449 32.5187 24.0837 31.6847 23.2512C30.8507 22.4186 29.7884 21.8522 28.6324 21.6236C27.4764 21.395 26.2785 21.5144 25.1904 21.9669C24.1022 22.4193 23.1728 23.1843 22.5196 24.1651C21.8664 25.146 21.5189 26.2985 21.521 27.477C21.5238 29.0557 22.1522 30.569 23.2685 31.6853C24.3849 32.8017 25.8982 33.4301 27.4769 33.4329" fill="#EAE6E5"/>
<path d="M16.7605 26.2921H17.3847C17.8804 26.2908 18.3638 26.1367 18.7689 25.8509C19.174 25.5651 19.4811 25.1614 19.6486 24.6947C19.7318 24.4488 19.8307 24.2085 19.9448 23.9753C20.1659 23.5276 20.2419 23.022 20.1623 22.5291C20.0826 22.0361 19.8513 21.5802 19.5004 21.2248L19.0561 20.7805L20.7382 19.0561L21.1825 19.5004C21.5395 19.8486 21.9952 20.0781 22.4875 20.1576C22.9798 20.2371 23.4846 20.1628 23.933 19.9448C24.1793 19.8274 24.4339 19.7284 24.6947 19.6486C25.1648 19.4824 25.5728 19.1765 25.864 18.7719C26.1552 18.3672 26.3157 17.8831 26.3239 17.3847V16.7605H28.7041V17.3847C28.7084 17.8797 28.8637 18.3617 29.1491 18.7662C29.4345 19.1707 29.8366 19.4785 30.3015 19.6486C30.5448 19.7332 30.7882 19.839 31.0209 19.9448C31.4694 20.1628 31.9742 20.2371 32.4664 20.1576C32.9587 20.0781 33.4144 19.8486 33.7714 19.5004L34.2157 19.0561L35.8978 20.7488L35.4535 21.1825C35.1026 21.5379 34.8713 21.9938 34.7916 22.4867C34.712 22.9797 34.788 23.4853 35.0092 23.933C35.1108 24.182 35.1991 24.4363 35.2736 24.6947C35.4325 25.1673 35.7351 25.5784 36.1391 25.8705C36.5431 26.1627 37.0284 26.3212 37.5269 26.3239H38.1511V28.7041H37.5269C37.0319 28.703 36.5488 28.8562 36.1449 29.1426C35.741 29.4289 35.4364 29.834 35.2736 30.3015C35.1784 30.5448 35.0832 30.7882 34.9668 31.0209C34.7488 31.4694 34.6745 31.9742 34.754 32.4664C34.8335 32.9587 35.063 33.4144 35.4112 33.7714L35.8555 34.2157L34.2157 35.8978L33.7714 35.4535C33.4169 35.1085 32.965 34.8808 32.4767 34.8013C31.9885 34.7219 31.4877 34.7944 31.0421 35.0092C30.7987 35.1255 30.5554 35.2207 30.3121 35.3159C29.8412 35.4775 29.4318 35.7808 29.1402 36.1842C28.8485 36.5876 28.6888 37.0715 28.683 37.5693V38.1934H26.2921V37.5693C26.2974 37.0681 26.1464 36.5777 25.8601 36.1663C25.5738 35.7549 25.1665 35.4429 24.6947 35.2736C24.4462 35.1842 24.2025 35.0818 23.9648 34.9668C23.5156 34.7519 23.0115 34.6792 22.52 34.7586C22.0284 34.838 21.5728 35.0657 21.2142 35.4112L20.7699 35.8555L19.0561 34.2157L19.5004 33.7714C19.8468 33.4177 20.0754 32.9657 20.1549 32.4771C20.2344 31.9885 20.161 31.4873 19.9448 31.0421C19.8288 30.8061 19.7299 30.5621 19.6486 30.3121C19.486 29.8406 19.1807 29.4315 18.775 29.1414C18.3693 28.8514 17.8834 28.6949 17.3847 28.6935H16.7605V26.2921ZM15.5757 31.0421H17.4058C17.5243 31.4018 17.662 31.755 17.8184 32.0999L16.5383 33.3694C16.4274 33.4796 16.3393 33.6106 16.2792 33.7549C16.219 33.8993 16.1881 34.0541 16.1881 34.2104C16.1881 34.3668 16.219 34.5216 16.2792 34.666C16.3393 34.8103 16.4274 34.9413 16.5383 35.0515L19.9024 38.4473C20.0126 38.5583 20.1436 38.6464 20.2879 38.7065C20.4323 38.7666 20.5871 38.7976 20.7435 38.7976C20.8998 38.7976 21.0547 38.7666 21.199 38.7065C21.3433 38.6464 21.4744 38.5583 21.5845 38.4473L22.9174 37.1884C23.2242 37.3259 23.531 37.4635 23.9013 37.5904V39.41C23.9123 39.7196 24.043 40.0129 24.266 40.2281C24.489 40.4432 24.7869 40.5633 25.0967 40.5631H29.8572C30.1688 40.5604 30.467 40.4361 30.6883 40.2168C30.9096 39.9974 31.0366 39.7004 31.0421 39.3888V37.5481C31.3779 37.4302 31.7064 37.2924 32.0259 37.1355L33.3694 38.4473C33.5971 38.6615 33.8979 38.7808 34.2104 38.7808C34.523 38.7808 34.8238 38.6615 35.0515 38.4473L38.4473 35.0515C38.5583 34.9413 38.6464 34.8103 38.7065 34.666C38.7666 34.5216 38.7976 34.3668 38.7976 34.2104C38.7976 34.0541 38.7666 33.8993 38.7065 33.7549C38.6464 33.6106 38.5583 33.4796 38.4473 33.3694L37.1884 32.0365C37.3259 31.7297 37.4635 31.4229 37.5904 31.0526H39.41C39.7196 31.0417 40.0129 30.9109 40.2281 30.6879C40.4432 30.4649 40.5633 30.1671 40.5631 29.8572V25.0967C40.5631 24.7815 40.4386 24.479 40.2167 24.2551C39.9948 24.0312 39.6935 23.9041 39.3782 23.9013H37.5481C37.4238 23.5629 37.2826 23.231 37.1249 22.9069L38.4473 21.5845C38.5583 21.4744 38.6464 21.3433 38.7065 21.199C38.7666 21.0547 38.7976 20.8998 38.7976 20.7435C38.7976 20.5871 38.7666 20.4323 38.7065 20.2879C38.6464 20.1436 38.5583 20.0126 38.4473 19.9024L35.0515 16.5278C34.8223 16.3236 34.5223 16.2173 34.2157 16.2316C33.8987 16.2322 33.5947 16.3576 33.3694 16.5807L32.0365 17.7867C31.7297 17.6491 31.4229 17.5222 31.0526 17.3847V15.5757C31.0499 15.2595 30.923 14.957 30.6995 14.7334C30.4759 14.5098 30.1734 14.383 29.8572 14.3802H25.0967C24.7805 14.383 24.4781 14.5098 24.2545 14.7334C24.0309 14.957 23.904 15.2595 23.9013 15.5757V17.4058C23.563 17.5264 23.2311 17.6641 22.9069 17.8184L21.5845 16.5383C21.3594 16.3193 21.0576 16.1967 20.7435 16.1967C20.4293 16.1967 20.1276 16.3193 19.9024 16.5383L16.5383 19.9024C16.4274 20.0126 16.3393 20.1436 16.2792 20.2879C16.219 20.4323 16.1881 20.5871 16.1881 20.7435C16.1881 20.8998 16.219 21.0547 16.2792 21.199C16.3393 21.3433 16.4274 21.4744 16.5383 21.5845L17.7972 22.9174C17.6491 23.2242 17.5222 23.531 17.3847 23.9013H15.5757C15.2586 23.9013 14.9546 24.0272 14.7304 24.2514C14.5062 24.4756 14.3802 24.7797 14.3802 25.0967V29.8572C14.383 30.1724 14.5102 30.4738 14.7341 30.6957C14.958 30.9176 15.2604 31.0421 15.5757 31.0421Z" fill="#EAE6E5"/>
<path d="M77.0709 57.4894C76.8992 57.3382 76.6874 57.24 76.4611 57.2066C76.2348 57.1732 76.0036 57.206 75.7956 57.3011C75.5875 57.3962 75.4114 57.5495 75.2885 57.7424C75.1657 57.9354 75.1013 58.1598 75.1032 58.3886V60.7688H68.0682C67.1903 60.7612 66.3312 60.5124 65.585 60.0497C64.8388 59.5871 64.234 58.9283 63.8367 58.1453L61.8796 54.3157L59.7638 55.3736L61.7209 59.2455C62.3149 60.4223 63.2214 61.413 64.3409 62.109C65.4605 62.805 66.75 63.1795 68.0682 63.1914H76.2881C76.4446 63.1928 76.5998 63.1632 76.7447 63.1043C76.8897 63.0454 77.0216 62.9583 77.1327 62.8482C77.2439 62.738 77.3321 62.6069 77.3923 62.4625C77.4525 62.318 77.4835 62.1631 77.4835 62.0066V61.0227L82.773 65.5823L77.4835 70.1312V69.1262C77.4835 68.9697 77.4525 68.8148 77.3923 68.6703C77.3321 68.5259 77.2439 68.3948 77.1327 68.2846C77.0216 68.1745 76.8897 68.0874 76.7447 68.0285C76.5998 67.9696 76.4446 67.94 76.2881 67.9414H67.0104C65.0292 67.938 63.0884 67.3816 61.4063 66.335C59.7242 65.2883 58.3676 63.793 57.4893 62.0172L56.6113 60.2611L54.4955 61.319L55.3735 63.0645C56.4412 65.2424 58.0968 67.0781 60.1533 68.3643C62.2097 69.6505 64.5849 70.3358 67.0104 70.3428H75.135V72.723C75.1395 72.946 75.2063 73.1631 75.3278 73.3501C75.4494 73.537 75.6207 73.6863 75.8226 73.7809C75.9792 73.8502 76.1485 73.8862 76.3198 73.8867C76.6066 73.8885 76.8844 73.7871 77.1027 73.6011L85.4283 66.4603C85.5592 66.3495 85.6647 66.2119 85.7377 66.0568C85.8107 65.9016 85.8495 65.7326 85.8514 65.5611C85.8496 65.3881 85.811 65.2174 85.738 65.0606C85.665 64.9037 85.5594 64.7641 85.4283 64.6513L77.0709 57.4894Z" fill="#EAE6E5"/>
<path d="M47.2172 49.3436L48.2116 47.2278C47.277 46.794 46.2587 46.5701 45.2284 46.5719H27.4769V48.9522H45.2284C45.9149 48.951 46.5935 49.099 47.2172 49.3859" fill="#EAE6E5"/>
<path d="M38.1934 41.7691H46.318C47.9325 41.7696 49.5264 42.1311 50.9833 42.827L52.0412 40.7112C50.2618 39.8563 48.3132 39.4116 46.3391 39.41H38.1934V41.7691Z" fill="#EAE6E5"/>
<path d="M45.2284 52.4855H27.4769V54.8658H45.2284C46.55 54.8637 47.8448 54.4921 48.9664 53.7929C50.088 53.0938 50.9918 52.095 51.5757 50.9093L57.3518 39.3571C58.2414 37.561 59.6196 36.0523 61.3282 35.0044C63.0367 33.9565 65.0062 33.4118 67.0104 33.4329H76.3198C76.6369 33.4329 76.9409 33.307 77.1651 33.0828C77.3893 32.8586 77.5152 32.5545 77.5152 32.2375V31.2536L82.8047 35.8132L77.5152 40.3727V39.3888C77.5167 39.2315 77.4867 39.0754 77.4271 38.9297C77.3676 38.784 77.2795 38.6517 77.1683 38.5404C77.057 38.4291 76.9246 38.3411 76.779 38.2815C76.6333 38.222 76.4772 38.192 76.3198 38.1934H68.0683C66.748 38.1958 65.4545 38.5663 64.3332 39.2634C63.2119 39.9604 62.3073 40.9564 61.7209 42.1393L55.9025 53.7021C55.0127 55.4829 53.6427 56.9794 51.9471 58.0225C50.2516 59.0656 48.2981 59.6138 46.3074 59.6052H38.1934V61.9854H46.3074C48.742 61.9945 51.1305 61.3214 53.2022 60.0425C55.2739 58.7636 56.9459 56.93 58.0289 54.7494L63.8367 43.2078C64.2253 42.4163 64.8275 41.7492 65.5752 41.2819C66.323 40.8145 67.1865 40.5656 68.0683 40.5631H75.1033V42.9433C75.1038 43.1711 75.1693 43.394 75.2922 43.5857C75.4151 43.7775 75.5903 43.9301 75.797 44.0257C76.0037 44.1213 76.2334 44.1558 76.4591 44.1252C76.6848 44.0947 76.8971 44.0003 77.0709 43.8531L85.3965 36.7018C85.5285 36.592 85.6348 36.4545 85.7079 36.2992C85.7811 36.1438 85.8192 35.9743 85.8197 35.8026C85.8179 35.6296 85.7793 35.4589 85.7063 35.302C85.6333 35.1451 85.5277 35.0056 85.3965 34.8928L77.0709 27.7626C76.8985 27.6108 76.6858 27.5124 76.4585 27.4793C76.2312 27.4463 75.9991 27.48 75.7907 27.5764C75.5822 27.6728 75.4062 27.8277 75.2842 28.0223C75.1621 28.2169 75.0993 28.4427 75.1033 28.6724V31.0421H67.0104C64.5708 31.0288 62.1765 31.701 60.1004 32.9822C58.0243 34.2635 56.3498 36.1021 55.2678 38.2886L49.4917 49.8514C49.0996 50.6394 48.4964 51.303 47.7492 51.7681C47.002 52.2332 46.1402 52.4816 45.2601 52.4855" fill="#EAE6E5"/>
<path d="M25.0967 46.5296H22.7164V48.9099H25.0967V46.5296Z" fill="#EAE6E5"/>
<path d="M20.3362 46.5296H17.9559V48.9099H20.3362V46.5296Z" fill="#EAE6E5"/>
<path d="M25.0967 52.4855H22.7164V54.8658H25.0967V52.4855Z" fill="#EAE6E5"/>
<path d="M20.3362 52.4855H17.9559V54.8658H20.3362V52.4855Z" fill="#EAE6E5"/>
</svg>
