<svg width="100" height="100" viewBox="0 0 100 100" fill="none" xmlns="http://www.w3.org/2000/svg">
<g clip-path="url(#clip0_120_58)">
<path d="M81.7689 49.4562H81.8367C82.1614 49.4541 82.4733 49.3296 82.7101 49.1077C82.9469 48.8857 83.0911 48.5825 83.1139 48.2588C83.1139 48.0216 83.1139 47.7844 83.1139 47.5359C83.1161 41.33 81.4828 35.233 78.3782 29.8583C78.3829 29.8284 78.3829 29.7979 78.3782 29.768L78.3217 29.7002C75.205 24.3615 70.7533 19.9241 65.4032 16.8232V16.8232H65.3128C59.9331 13.7257 53.8334 12.0952 47.6247 12.0952C41.4161 12.0952 35.3164 13.7257 29.9367 16.8232H29.8349C29.8349 16.8232 29.8349 16.8232 29.7558 16.9023C28.4886 17.6211 27.2692 18.421 26.1052 19.297C25.9322 19.5189 25.8374 19.7918 25.8356 20.0732C25.8338 20.3545 25.9251 20.6286 26.0952 20.8528C26.2654 21.0769 26.5049 21.2386 26.7765 21.3127C27.0481 21.3868 27.3366 21.3691 27.5971 21.2624C28.3656 20.675 29.1568 20.1328 29.9706 19.6245L31.2138 21.7933C31.2969 21.9416 31.4085 22.0721 31.5421 22.1774C31.6757 22.2826 31.8287 22.3606 31.9924 22.4067C32.1561 22.4529 32.3273 22.4663 32.4963 22.4464C32.6652 22.4264 32.8285 22.3734 32.977 22.2903C33.1254 22.2072 33.256 22.0957 33.3613 21.9622C33.4666 21.8287 33.5446 21.6758 33.5908 21.5122C33.637 21.3485 33.6504 21.1774 33.6305 21.0086C33.6105 20.8398 33.5574 20.6765 33.4743 20.5282L32.1632 18.3481C36.527 16.0421 41.3577 14.756 46.2911 14.5867V17.0717C46.2744 17.2487 46.2948 17.4272 46.3511 17.5957C46.4074 17.7643 46.4983 17.9193 46.618 18.0508C46.7377 18.1822 46.8835 18.2872 47.0462 18.3591C47.2089 18.4309 47.3847 18.4681 47.5626 18.4681C47.7404 18.4681 47.9163 18.4309 48.0789 18.3591C48.2416 18.2872 48.3874 18.1822 48.5071 18.0508C48.6268 17.9193 48.7177 17.7643 48.774 17.5957C48.8303 17.4272 48.8508 17.2487 48.8341 17.0717V14.5754C53.7653 14.7541 58.5918 16.0479 62.9506 18.3594L61.73 20.5282C61.6166 20.7197 61.5568 20.9382 61.5568 21.1607C61.5568 21.3833 61.6166 21.6017 61.73 21.7933C61.8355 22.0024 61.997 22.1781 62.1966 22.3009C62.3961 22.4236 62.6259 22.4887 62.8602 22.4887C63.0945 22.4887 63.3243 22.4236 63.5238 22.3009C63.7234 22.1781 63.8849 22.0024 63.9904 21.7933L65.1207 19.6358C69.2873 22.2693 72.8159 25.7958 75.451 29.96L73.3261 31.2025C73.131 31.3127 72.9686 31.4728 72.8557 31.6663C72.7427 31.8598 72.6832 32.0798 72.6832 32.3038C72.6832 32.5278 72.7427 32.7478 72.8557 32.9413C72.9686 33.1348 73.131 33.2949 73.3261 33.4051C73.5206 33.5161 73.7407 33.5744 73.9647 33.5744C74.1887 33.5744 74.4088 33.5161 74.6033 33.4051L76.762 32.1513C79.2812 36.8838 80.5933 42.1642 80.5822 47.5246C80.5822 47.7166 80.5822 47.9087 80.5822 48.1007C80.5637 48.4375 80.6793 48.7679 80.9037 49.0198C81.1282 49.2717 81.4434 49.4245 81.7802 49.4449" fill="#EAE6E5"/>
<path d="M67.8785 85.6246C64.3633 85.6224 60.9275 84.5787 58.0056 82.6255C55.0837 80.6722 52.8067 77.8972 51.4625 74.651C50.1183 71.4047 49.7672 67.8331 50.4535 64.3876C51.1399 60.942 52.8329 57.777 55.3186 55.2928C57.8042 52.8086 60.971 51.1166 64.4187 50.4307C67.8663 49.7447 71.44 50.0957 74.6882 51.4391C77.9363 52.7825 80.713 55.0581 82.6674 57.9783C84.6218 60.8985 85.6661 64.3322 85.6683 67.8454C85.6683 70.1802 85.2082 72.4921 84.3142 74.6492C83.4202 76.8063 82.1098 78.7662 80.4578 80.4172C78.8059 82.0682 76.8448 83.3778 74.6864 84.2713C72.528 85.1648 70.2147 85.6246 67.8785 85.6246V85.6246ZM67.8785 47.5359C63.8549 47.5359 59.9215 48.7284 56.576 50.9625C53.2304 53.1966 50.6228 56.372 49.083 60.0872C47.5432 63.8024 47.1404 67.8905 47.9253 71.8346C48.7103 75.7786 50.6479 79.4014 53.4931 82.2449C56.3383 85.0884 59.9632 87.0248 63.9096 87.8093C67.856 88.5939 71.9465 88.1912 75.6639 86.6523C79.3813 85.1134 82.5586 82.5074 84.7941 79.1638C87.0295 75.8203 88.2227 71.8893 88.2227 67.868C88.2227 62.4756 86.0793 57.304 82.264 53.491C78.4487 49.678 73.2741 47.5359 67.8785 47.5359" fill="#EAE6E5"/>
<path d="M47.5569 50.0774C47.054 50.0774 46.5623 49.9284 46.1441 49.6491C45.7259 49.3698 45.4 48.9729 45.2075 48.5085C45.015 48.0441 44.9647 47.5331 45.0628 47.0401C45.1609 46.5471 45.4031 46.0942 45.7588 45.7388C46.1144 45.3833 46.5675 45.1413 47.0608 45.0432C47.5541 44.9452 48.0654 44.9955 48.5301 45.1879C48.9948 45.3802 49.392 45.706 49.6714 46.1239C49.9508 46.5419 50.1 47.0332 50.1 47.5359C50.1015 47.8701 50.0367 48.2012 49.9094 48.5103C49.7822 48.8193 49.5949 49.1001 49.3585 49.3364C49.122 49.5726 48.8411 49.7598 48.5319 49.887C48.2227 50.0142 47.8913 50.0789 47.5569 50.0774ZM37.5544 59.3398C37.3112 59.5685 36.9899 59.6959 36.6559 59.6959C36.3219 59.6959 36.0006 59.5685 35.7574 59.3398C35.5233 59.0994 35.3924 58.7772 35.3924 58.4418C35.3924 58.1064 35.5233 57.7842 35.7574 57.5438L43.2056 50.1C43.6359 50.8464 44.2558 51.4659 45.0026 51.896L37.5544 59.3398ZM47.5569 24.6962C47.7262 24.6935 47.8941 24.7262 48.0498 24.7924C48.2056 24.8585 48.3457 24.9566 48.4611 25.0803C48.6971 25.3132 48.8312 25.6299 48.8341 25.9613V42.6449C48.003 42.4079 47.1222 42.4079 46.2911 42.6449V25.9613C46.2911 25.6258 46.4245 25.304 46.6619 25.0668C46.8992 24.8295 47.2212 24.6962 47.5569 24.6962V24.6962ZM50.2582 23.2956C49.9079 22.9344 49.4878 22.648 49.0235 22.4539C48.5592 22.2597 48.0603 22.1618 47.5569 22.166C46.5468 22.166 45.578 22.5671 44.8637 23.281C44.1494 23.9948 43.7481 24.9631 43.7481 25.9726V44.215C43.025 45.0494 42.5927 46.0959 42.5161 47.197L33.9603 55.7478C33.2454 56.4623 32.8437 57.4313 32.8438 58.4418C32.8438 59.4522 33.2454 60.4213 33.9603 61.1358C34.6752 61.8503 35.6449 62.2517 36.6559 62.2517C37.6669 62.2517 38.6366 61.8503 39.3515 61.1358L47.9073 52.585C48.851 52.5283 49.7597 52.2075 50.5296 51.6592C51.2995 51.111 51.8997 50.3574 52.2615 49.4846C52.6233 48.6117 52.7323 47.6547 52.5759 46.7229C52.4195 45.7912 52.0041 44.9221 51.3771 44.215V25.9613C51.377 25.4623 51.277 24.9684 51.0829 24.5086C50.8887 24.0488 50.6045 23.6325 50.2469 23.2843" fill="#EAE6E5"/>
<path d="M16.8487 65.4168C19.9605 70.7313 24.3903 75.1546 29.7107 78.2599C29.7107 78.2599 29.7107 78.2599 29.7785 78.3164H29.9141C35.2816 81.4016 41.365 83.0257 47.557 83.0266H48.2803C48.6161 83.0034 48.9295 82.8497 49.1534 82.5985C49.3773 82.3473 49.4939 82.0185 49.4784 81.6825C49.4395 81.363 49.2844 81.0691 49.0426 80.8566C48.8008 80.6441 48.4893 80.528 48.1673 80.5303H47.5909C42.2176 80.5435 36.9234 79.2363 32.1746 76.7237L33.4743 74.555C33.6422 74.2554 33.6841 73.9014 33.5908 73.571C33.4976 73.2405 33.2768 72.9606 32.977 72.7928C32.6773 72.6251 32.3231 72.5832 31.9925 72.6764C31.6618 72.7696 31.3817 72.9903 31.2139 73.2898L29.9706 75.4473C25.7979 72.8071 22.2684 69.2681 19.6403 65.0893L21.7991 63.8354C21.9971 63.7212 22.1611 63.5564 22.2743 63.3579C22.3875 63.1594 22.4458 62.9344 22.4433 62.7059C22.4482 62.479 22.3925 62.2548 22.2819 62.0566C22.1713 61.8583 22.0097 61.6932 21.814 61.5781C21.6182 61.463 21.3953 61.4022 21.1682 61.4019C20.9411 61.4016 20.718 61.4618 20.5219 61.5763L18.3519 62.8188C16.062 58.4906 14.7721 53.7044 14.5769 48.8123H17.086C17.4026 48.7825 17.6966 48.6357 17.9106 48.4007C18.1246 48.1657 18.2432 47.8593 18.2432 47.5416C18.2432 47.2238 18.1246 46.9175 17.9106 46.6825C17.6966 46.4475 17.4026 46.3007 17.086 46.2708H14.5882C14.7553 41.3414 16.0382 36.5139 18.3406 32.1513L20.5332 33.4616C20.7249 33.5749 20.9435 33.6347 21.1661 33.6347C21.3888 33.6347 21.6074 33.5749 21.7991 33.4616C21.9971 33.3474 22.1611 33.1826 22.2743 32.9841C22.3875 32.7856 22.4458 32.5605 22.4433 32.3321C22.4483 32.1031 22.3909 31.8772 22.2775 31.6782C22.164 31.4793 21.9987 31.3149 21.7991 31.2025L19.6177 29.9487C20.1263 29.1467 20.6801 28.356 21.2679 27.5766C21.399 27.3996 21.4821 27.1918 21.5091 26.9732C21.5361 26.7546 21.506 26.5328 21.4218 26.3293C21.3376 26.1258 21.2022 25.9475 21.0287 25.8117C20.8551 25.676 20.6494 25.5875 20.4315 25.5547C20.2138 25.5423 19.9964 25.5843 19.7991 25.677C19.6017 25.7697 19.4306 25.9102 19.3013 26.0856C18.4211 27.2487 17.617 28.4674 16.8939 29.7341C16.8939 29.7341 16.8939 29.7341 16.8148 29.8131C16.81 29.8469 16.81 29.8811 16.8148 29.9148C13.7154 35.2913 12.084 41.3874 12.084 47.5924C12.084 53.7974 13.7154 59.8934 16.8148 65.27C16.8148 65.27 16.8148 65.3265 16.8148 65.3603L16.8487 65.4168Z" fill="#EAE6E5"/>
<path d="M72.9645 73.5609C72.9101 74.6006 72.5034 75.5909 71.8112 76.3689C71.119 77.147 70.1825 77.6665 69.1556 77.842V69.2799C70.1825 69.4554 71.119 69.9749 71.8112 70.7529C72.5034 71.531 72.9101 72.5212 72.9645 73.5609ZM62.8603 62.1411C62.9162 61.1007 63.3232 60.1099 64.0149 59.3304C64.7066 58.5509 65.6423 58.0286 66.6691 57.8488V66.4221C65.6432 66.2447 64.7078 65.7246 64.0159 64.947C63.3241 64.1694 62.9167 63.1802 62.8603 62.1411V62.1411ZM73.0323 62.1411C73.0622 62.4575 73.2091 62.7513 73.4442 62.9652C73.6794 63.179 73.9859 63.2976 74.3038 63.2976C74.6218 63.2976 74.9283 63.179 75.1634 62.9652C75.3986 62.7513 75.5455 62.4575 75.5753 62.1411C75.5094 60.4265 74.8334 58.7917 73.669 57.5306C72.5047 56.2696 70.9283 55.4652 69.2235 55.2621V55.1604C69.2402 54.9835 69.2197 54.805 69.1634 54.6364C69.1071 54.4678 69.0162 54.3128 68.8965 54.1814C68.7768 54.05 68.631 53.9449 68.4683 53.8731C68.3057 53.8012 68.1298 53.7641 67.952 53.7641C67.7741 53.7641 67.5982 53.8012 67.4356 53.8731C67.2729 53.9449 67.1271 54.05 67.0074 54.1814C66.8877 54.3128 66.7968 54.4678 66.7405 54.6364C66.6842 54.805 66.6637 54.9835 66.6804 55.1604V55.2621C64.9747 55.463 63.397 56.2668 62.2322 57.5282C61.0674 58.7897 60.3923 60.4258 60.3286 62.1411C60.3926 63.8552 61.0682 65.4898 62.2332 66.7494C63.3982 68.009 64.9757 68.8104 66.6804 69.0088V77.842C65.6516 77.6688 64.7124 77.1503 64.018 76.372C63.3235 75.5938 62.9152 74.6023 62.8603 73.5609C62.8304 73.2446 62.6835 72.9508 62.4484 72.7369C62.2132 72.523 61.9067 72.4045 61.5888 72.4045C61.2708 72.4045 60.9643 72.523 60.7292 72.7369C60.494 72.9508 60.3471 73.2446 60.3173 73.5609C60.381 75.2763 61.0561 76.9124 62.2209 78.1738C63.3857 79.4353 64.9634 80.239 66.6691 80.44V80.5416C66.699 80.858 66.8459 81.1518 67.081 81.3657C67.3162 81.5796 67.6227 81.6981 67.9407 81.6981C68.2586 81.6981 68.5651 81.5796 68.8003 81.3657C69.0354 81.1518 69.1823 80.858 69.2122 80.5416V80.44C70.9413 80.2998 72.5544 79.5143 73.7305 78.2397C74.9066 76.9651 75.5596 75.2948 75.5596 73.5609C75.5596 71.8271 74.9066 70.1568 73.7305 68.8822C72.5544 67.6076 70.9413 66.8221 69.2122 66.6819V57.8488C70.239 58.0286 71.1747 58.5509 71.8664 59.3304C72.5581 60.1099 72.9651 61.1007 73.021 62.1411" fill="#EAE6E5"/>
</g>
<defs>
<clipPath id="clip0_120_58">
<rect width="76.2" height="76.2" fill="white" transform="translate(12 12)"/>
</clipPath>
</defs>
</svg>
