<svg width="100" height="100" viewBox="0 0 100 100" fill="none" xmlns="http://www.w3.org/2000/svg">
<g clip-path="url(#clip0_119_2)">
<path d="M49.5897 70.0414C49.5915 70.3377 49.5052 70.6279 49.3418 70.8751C49.1783 71.1223 48.945 71.3153 48.6716 71.4296C48.3981 71.5438 48.0969 71.5742 47.8062 71.5169C47.5154 71.4595 47.2483 71.317 47.0387 71.1075C46.8292 70.8979 46.6867 70.6308 46.6293 70.34C46.572 70.0493 46.6024 69.7481 46.7166 69.4746C46.8309 69.2012 47.0239 68.9679 47.2711 68.8044C47.5183 68.641 47.8085 68.5547 48.1048 68.5565C48.4986 68.5565 48.8763 68.713 49.1547 68.9914C49.4332 69.2699 49.5897 69.6476 49.5897 70.0414" fill="#EAE6E5"/>
<path d="M72.3635 62.6077C71.1847 62.6096 70.0318 62.2617 69.0507 61.6081C68.0696 60.9546 67.3045 60.0247 66.8521 58.9361C66.3996 57.8475 66.2803 56.6492 66.5091 55.4928C66.738 54.3364 67.3047 53.2738 68.1376 52.4396C68.9705 51.6054 70.0321 51.037 71.1882 50.8063C72.3442 50.5756 73.5427 50.6931 74.632 51.1437C75.7213 51.5944 76.6524 52.3581 77.3076 53.3382C77.9627 54.3182 78.3124 55.4706 78.3124 56.6494C78.3099 58.2272 77.6826 59.7399 76.5678 60.8565C75.453 61.973 73.9414 62.6027 72.3635 62.6077V62.6077ZM81.2915 56.6494C81.2915 54.8836 80.7679 53.1575 79.7869 51.6893C78.8059 50.2211 77.4115 49.0768 75.7801 48.401C74.1488 47.7253 72.3536 47.5485 70.6218 47.893C68.8899 48.2374 67.2991 49.0878 66.0505 50.3364C64.8019 51.585 63.9516 53.1758 63.6071 54.9076C63.2626 56.6395 63.4394 58.4346 64.1152 60.066C64.7909 61.6974 65.9352 63.0917 67.4034 64.0727C68.8716 65.0538 70.5978 65.5774 72.3635 65.5774C74.7314 65.5774 77.0023 64.6368 78.6766 62.9624C80.3509 61.2881 81.2915 59.0172 81.2915 56.6494" fill="#EAE6E5"/>
<path d="M83.2303 80.4637H65.9607C65.9603 77.6072 65.2761 74.7924 63.9652 72.2545C65.0305 71.0874 66.3278 70.1556 67.7739 69.5188C69.2201 68.8821 70.7834 68.5543 72.3635 68.5565C78.2556 68.5565 83.2303 73.2854 83.2303 78.9599V80.4637ZM48.1048 65.5774C52.0479 65.5849 55.827 67.1566 58.6126 69.9475C61.3982 72.7384 62.9627 76.5205 62.9627 80.4637H33.2185C33.221 76.5164 34.7902 72.7314 37.5813 69.9403C40.3725 67.1491 44.1574 65.5799 48.1048 65.5774V65.5774ZM12.9792 78.9788C12.9792 73.3043 17.9539 68.5755 23.846 68.5755C25.4246 68.5745 26.986 68.9029 28.4304 69.5397C29.8749 70.1764 31.1707 71.1075 32.2349 72.2734C30.924 74.8113 30.2397 77.6261 30.2393 80.4826H12.9792V78.9788ZM72.3635 65.5774C68.6105 65.6034 65.0124 67.0772 62.3196 69.6915C60.654 67.4985 58.5037 65.7205 56.037 64.4965C53.5702 63.2724 50.8538 62.6355 48.1 62.6355C45.3463 62.6355 42.6298 63.2724 40.1631 64.4965C37.6963 65.7205 35.5461 67.4985 33.8805 69.6915C31.1871 67.0874 27.5923 65.6237 23.846 65.6058C16.3366 65.5774 10 71.7154 10 78.9788V81.9864C9.99878 82.1821 10.0363 82.3762 10.1103 82.5575C10.1844 82.7387 10.2936 82.9035 10.4316 83.0424C10.5696 83.1813 10.7337 83.2915 10.9145 83.3667C11.0952 83.4419 11.2891 83.4807 11.4849 83.4807H84.7152C84.911 83.4807 85.1048 83.4419 85.2856 83.3667C85.4664 83.2915 85.6305 83.1813 85.7685 83.0424C85.9065 82.9035 86.0157 82.7387 86.0897 82.5575C86.1638 82.3762 86.2013 82.1821 86.2 81.9864V78.9788C86.2 71.7154 79.8634 65.5774 72.3635 65.5774" fill="#EAE6E5"/>
<path d="M23.8461 62.6077C22.6672 62.6096 21.5143 62.2617 20.5332 61.6082C19.5522 60.9546 18.787 60.0247 18.3346 58.9361C17.8822 57.8475 17.7628 56.6492 17.9917 55.4928C18.2205 54.3364 18.7872 53.2738 19.6201 52.4396C20.453 51.6054 21.5147 51.037 22.6707 50.8063C23.8268 50.5756 25.0253 50.6931 26.1146 51.1438C27.2039 51.5945 28.135 52.3581 28.7901 53.3382C29.4452 54.3182 29.7949 55.4706 29.7949 56.6494C29.7924 58.2273 29.1652 59.7399 28.0504 60.8565C26.9355 61.9731 25.4239 62.6027 23.8461 62.6077V62.6077ZM32.7741 56.6494C32.7759 54.881 32.2531 53.1517 31.2718 51.6805C30.2904 50.2093 28.8947 49.0623 27.2612 48.3846C25.6277 47.707 23.8299 47.5292 22.0953 47.8738C20.3608 48.2183 18.7674 49.0697 17.5169 50.3202C16.2664 51.5707 15.415 53.1641 15.0704 54.8987C14.7259 56.6332 14.9037 58.4311 15.5813 60.0645C16.2589 61.698 17.4059 63.0938 18.8771 64.0751C20.3483 65.0565 22.0776 65.5793 23.8461 65.5774C26.2132 65.5749 28.4826 64.6335 30.1563 62.9597C31.8301 61.2859 32.7716 59.0165 32.7741 56.6494Z" fill="#EAE6E5"/>
<path d="M48.1047 59.6286C46.3362 59.6304 44.6069 59.1076 43.1357 58.1263C41.6645 57.1449 40.5175 55.7492 39.8399 54.1157C39.1623 52.4822 38.9845 50.6844 39.329 48.9498C39.6736 47.2152 40.525 45.6219 41.7755 44.3714C43.026 43.1209 44.6193 42.2695 46.3539 41.9249C48.0885 41.5804 49.8863 41.7582 51.5198 42.4358C53.1533 43.1134 54.549 44.2604 55.5303 45.7316C56.5117 47.2028 57.0345 48.9321 57.0326 50.7006C57.0276 53.0669 56.0854 55.3348 54.4122 57.0081C52.7389 58.6813 50.471 59.6236 48.1047 59.6286V59.6286ZM60.0118 50.7006C60.0118 48.3456 59.3134 46.0434 58.0051 44.0853C56.6967 42.1272 54.8371 40.601 52.6613 39.6998C50.4856 38.7986 48.0914 38.5628 45.7817 39.0222C43.4719 39.4817 41.3503 40.6157 39.685 42.281C38.0198 43.9462 36.8857 46.0678 36.4263 48.3776C35.9669 50.6874 36.2027 53.0815 37.1039 55.2572C38.0051 57.433 39.5313 59.2926 41.4894 60.601C43.4475 61.9094 45.7496 62.6077 48.1047 62.6077C51.2619 62.6052 54.289 61.3499 56.5215 59.1174C58.754 56.8849 60.0093 53.8578 60.0118 50.7006" fill="#EAE6E5"/>
<path d="M52.2189 25.1272C52.046 25.2949 51.9169 25.5024 51.8427 25.7316C51.7685 25.9607 51.7516 26.2046 51.7933 26.4418L52.5594 30.641L48.7763 28.6549C48.5634 28.543 48.3265 28.4846 48.0859 28.4846C47.8454 28.4846 47.6085 28.543 47.3955 28.6549L43.6125 30.641L44.3407 26.4418C44.378 26.2038 44.358 25.9604 44.2824 25.7318C44.2067 25.5031 44.0776 25.2959 43.9057 25.1272L40.8319 22.1575L45.0406 21.5427C45.2815 21.509 45.5103 21.4162 45.7066 21.2727C45.903 21.1291 46.0608 20.9392 46.166 20.7199L48.0576 16.8707L49.9491 20.7199C50.0543 20.9392 50.2121 21.1291 50.4085 21.2727C50.6048 21.4162 50.8336 21.509 51.0745 21.5427L55.2832 22.1575L52.2189 25.1272ZM59.8796 20.6537C59.794 20.3896 59.6361 20.1548 59.4238 19.9759C59.2115 19.7971 58.9532 19.6813 58.6785 19.6418L52.2567 18.696L49.4194 12.8134C49.2973 12.5638 49.1075 12.3536 48.8718 12.2066C48.636 12.0595 48.3638 11.9816 48.0859 11.9816C47.8081 11.9816 47.5358 12.0595 47.3001 12.2066C47.0643 12.3536 46.8746 12.5638 46.7524 12.8134L43.9151 18.696L37.4272 19.6418C37.1524 19.6813 36.8942 19.7971 36.6819 19.9759C36.4696 20.1548 36.3117 20.3896 36.2261 20.6537C36.1384 20.9173 36.1274 21.2004 36.1944 21.4699C36.2614 21.7395 36.4035 21.9845 36.6044 22.1764L41.2102 26.7161L40.1132 33.1094C40.0592 33.3888 40.0861 33.6777 40.1908 33.9423C40.2954 34.2069 40.4735 34.4361 40.7039 34.603C40.9344 34.7699 41.2077 34.8675 41.4917 34.8844C41.7758 34.9013 42.0587 34.8367 42.3073 34.6983L48.0481 31.6813L53.7983 34.6983C54.044 34.8281 54.3212 34.8865 54.5984 34.8666C54.8755 34.8468 55.1416 34.7495 55.3662 34.586C55.5909 34.4224 55.7651 34.1991 55.8692 33.9414C55.9732 33.6837 56.0028 33.402 55.9547 33.1283L54.8576 26.735L59.5013 22.1953C59.7021 22.0034 59.8443 21.7584 59.9113 21.4888C59.9782 21.2193 59.9673 20.9362 59.8796 20.6726" fill="#EAE6E5"/>
<path d="M75.967 34.8212C75.7941 34.989 75.665 35.1965 75.5908 35.4256C75.5166 35.6548 75.4996 35.8986 75.5414 36.1358L75.9008 38.2638L74.0093 37.2613C73.7946 37.1494 73.5562 37.091 73.3141 37.091C73.0721 37.091 72.8336 37.1494 72.619 37.2613L70.7275 38.2638L71.0963 36.1358C71.1336 35.8979 71.1136 35.6545 71.038 35.4258C70.9623 35.1972 70.8332 34.9899 70.6613 34.8212L69.1197 33.308L71.2571 32.9959C71.4962 32.9641 71.7235 32.873 71.9184 32.7309C72.1133 32.5889 72.2696 32.4004 72.3731 32.1825L73.3188 30.2437L74.2646 32.1825C74.3695 32.3994 74.5262 32.587 74.7208 32.7289C74.9155 32.8707 75.1421 32.9624 75.3806 32.9959L77.5275 33.308L75.967 34.8212ZM82.1239 31.861C82.0487 31.5883 81.8961 31.3431 81.6847 31.1552C81.4732 30.9672 81.2119 30.8445 80.9322 30.8017L76.5817 30.1681L74.6902 26.2242C74.5681 25.9746 74.3784 25.7643 74.1426 25.6172C73.9069 25.47 73.6346 25.392 73.3567 25.392V25.392C73.0786 25.3909 72.8058 25.4685 72.5698 25.6157C72.3339 25.763 72.1444 25.9739 72.0232 26.2242L70.0749 30.1681L65.7244 30.8017C65.4459 30.8339 65.1822 30.9442 64.9638 31.1199C64.7453 31.2956 64.5811 31.5295 64.4901 31.7947C64.3991 32.0598 64.385 32.3453 64.4494 32.6182C64.5139 32.891 64.6542 33.14 64.8543 33.3364L67.9942 36.4006L67.2565 40.7322C67.2095 41.0055 67.2394 41.2865 67.343 41.5437C67.4466 41.8009 67.6196 42.0242 67.8429 42.1887C68.0672 42.3539 68.3336 42.4522 68.6115 42.4723C68.8893 42.4924 69.1671 42.4334 69.4129 42.3022L73.3094 40.2593L77.1492 42.2644C77.3949 42.3956 77.6727 42.4546 77.9506 42.4345C78.2284 42.4144 78.4949 42.3161 78.7192 42.1509C78.9424 41.9864 79.1155 41.7631 79.219 41.5059C79.3226 41.2486 79.3525 40.9677 79.3055 40.6944L78.5678 36.3628L81.7172 33.2985C81.906 33.1162 82.0431 32.8872 82.1145 32.6346C82.186 32.3821 82.1892 32.1152 82.1239 31.861" fill="#EAE6E5"/>
<path d="M25.3593 34.8212C25.1864 34.989 25.0572 35.1965 24.983 35.4256C24.9089 35.6548 24.8919 35.8986 24.9337 36.1358L25.3025 38.2638L23.411 37.2613C23.198 37.1494 22.9611 37.091 22.7206 37.091C22.4801 37.091 22.2431 37.1494 22.0302 37.2613L20.1387 38.2638L20.5075 36.1358C20.5493 35.8986 20.5323 35.6548 20.4581 35.4256C20.3839 35.1965 20.2548 34.989 20.0819 34.8212L18.5119 33.308L20.6494 32.9959C20.8896 32.9639 21.1181 32.8729 21.3145 32.7309C21.5109 32.589 21.6691 32.4006 21.7748 32.1825L22.7206 30.2437L23.6663 32.1825C23.7721 32.4006 23.9303 32.589 24.1267 32.7309C24.3231 32.8729 24.5516 32.9639 24.7918 32.9959L26.9292 33.308L25.3593 34.8212ZM31.5256 31.861C31.44 31.5969 31.2821 31.3621 31.0698 31.1832C30.8575 31.0043 30.5993 30.8885 30.3245 30.849L25.974 30.2154L24.0257 26.1864C23.9046 25.9343 23.7147 25.7216 23.4779 25.5727C23.2412 25.4239 22.9672 25.3449 22.6875 25.3449C22.4078 25.3449 22.1338 25.4239 21.8971 25.5727C21.6603 25.7216 21.4704 25.9343 21.3492 26.1864L19.4577 30.1681L15.1072 30.8017C14.8326 30.8413 14.5746 30.957 14.3625 31.1357C14.1503 31.3145 13.9924 31.5491 13.9068 31.8129C13.8211 32.0768 13.8111 32.3594 13.8778 32.6286C13.9446 32.8979 14.0854 33.1431 14.2844 33.3364L17.3865 36.4006L16.6204 40.7322C16.5806 41.006 16.6175 41.2854 16.7271 41.5394C16.8367 41.7934 17.0147 42.0119 17.2412 42.1708C17.4677 42.3296 17.7338 42.4224 18.0099 42.439C18.286 42.4555 18.5613 42.395 18.8051 42.2644L22.6922 40.2215L26.5793 42.2644C26.8256 42.393 27.1029 42.4504 27.38 42.4302C27.6571 42.4099 27.9231 42.3128 28.1481 42.1497C28.3731 41.9866 28.5481 41.764 28.6536 41.507C28.759 41.2499 28.7907 40.9685 28.7451 40.6944L27.9696 36.4006L31.1189 33.3364C31.317 33.1426 31.4572 32.8976 31.524 32.6287C31.5908 32.3598 31.5816 32.0776 31.4972 31.8137" fill="#EAE6E5"/>
<path d="M54.6212 70.5048C54.4578 70.3974 54.275 70.3232 54.083 70.2864C53.8909 70.2497 53.6936 70.2511 53.5021 70.2906C53.3107 70.3301 53.1289 70.407 52.9671 70.5167C52.8054 70.6265 52.6668 70.7671 52.5594 70.9304C52.452 71.0937 52.3778 71.2766 52.341 71.4686C52.3042 71.6606 52.3057 71.858 52.3452 72.0494C52.3847 72.2409 52.4616 72.4227 52.5713 72.5844C52.6811 72.7462 52.8217 72.8847 52.985 72.9922C54.3585 73.8938 55.4604 75.1526 56.1722 76.6333C56.3403 76.9895 56.6429 77.2643 57.0136 77.3974C57.3843 77.5304 57.7927 77.5107 58.1488 77.3427C58.505 77.1746 58.7799 76.8719 58.9129 76.5012C59.0459 76.1306 59.0262 75.7222 58.8582 75.366C57.9172 73.391 56.4515 71.7126 54.6212 70.5143" fill="#EAE6E5"/>
</g>
<defs>
<clipPath id="clip0_119_2">
<rect width="76.2" height="76.2" fill="white" transform="translate(10 12)"/>
</clipPath>
</defs>
</svg>
