<svg width="100" height="100" viewBox="0 0 100 100" fill="none" xmlns="http://www.w3.org/2000/svg">
<g clip-path="url(#clip0_119_2)">
<g clip-path="url(#clip1_119_2)">
<path d="M65.1199 30.85C65.1199 31.1656 64.9945 31.4683 64.7714 31.6915C64.5482 31.9146 64.2455 32.04 63.9299 32.04H52.6199L49.6199 36.04L46.6199 32.04H35.3699C35.0543 32.04 34.7516 31.9146 34.5285 31.6915C34.3053 31.4683 34.1799 31.1656 34.1799 30.85V16.62C34.1799 16.3044 34.3053 16.0017 34.5285 15.7785C34.7516 15.5554 35.0543 15.43 35.3699 15.43H63.9299C64.2455 15.43 64.5482 15.5554 64.7714 15.7785C64.9945 16.0017 65.1199 16.3044 65.1199 16.62V30.85ZM63.9299 13H35.3699C34.8969 13 34.4285 13.0939 33.9921 13.2765C33.5557 13.459 33.1599 13.7264 32.8277 14.0632C32.4955 14.4001 32.2336 14.7995 32.0572 15.2385C31.8807 15.6774 31.7933 16.147 31.7999 16.62V30.85C31.7999 31.7968 32.176 32.7049 32.8455 33.3744C33.515 34.0439 34.4231 34.42 35.3699 34.42H45.4799L49.6499 39.97L53.8099 34.42H63.9299C64.8767 34.42 65.7848 34.0439 66.4543 33.3744C67.1238 32.7049 67.4999 31.7968 67.4999 30.85V16.62C67.4999 15.6732 67.1238 14.7651 66.4543 14.0956C65.7848 13.4261 64.8767 13.05 63.9299 13.05" fill="#EAE6E5"/>
<path d="M26.8353 31.3684L24.8555 32.6893L29.6173 39.8266L31.5971 38.5057L26.8353 31.3684Z" fill="#EAE6E5"/>
<path d="M19.1728 38.0876L18.2349 40.275L26.5616 43.8456L27.4996 41.6582L19.1728 38.0876Z" fill="#EAE6E5"/>
<path d="M83.0001 42.75H73.4501V40.37C73.4501 40.0544 73.5754 39.7517 73.7986 39.5285C74.0218 39.3054 74.3245 39.18 74.6401 39.18H81.7801C81.9388 39.176 82.0968 39.2038 82.2447 39.2618C82.3925 39.3198 82.5273 39.4068 82.641 39.5177C82.7547 39.6286 82.845 39.7612 82.9067 39.9076C82.9684 40.0539 83.0001 40.2112 83.0001 40.37V42.75ZM83.0001 51.08H73.4501V45.08H83.0001V51.08ZM83.0001 59.41H73.4501V53.46H83.0001V59.41ZM83.0001 67.74H73.4501V61.79H83.0001V67.74ZM83.0001 76.07H73.4501V70.07H83.0001V76.07ZM83.0001 80.83C83.0001 81.1456 82.8747 81.4483 82.6515 81.6714C82.4284 81.8946 82.1257 82.02 81.8101 82.02H74.6401C74.3245 82.02 74.0218 81.8946 73.7986 81.6714C73.5754 81.4483 73.4501 81.1456 73.4501 80.83V78.45H83.0001V80.83ZM81.8101 36.83H74.6401C73.6932 36.83 72.7852 37.2061 72.1157 37.8756C71.4462 38.5451 71.0701 39.4532 71.0701 40.4V80.83C71.0701 81.7768 71.4462 82.6849 72.1157 83.3544C72.7852 84.0239 73.6932 84.4 74.6401 84.4H81.7801C82.7269 84.4 83.6349 84.0239 84.3044 83.3544C84.9739 82.6849 85.3501 81.7768 85.3501 80.83V40.37C85.3501 39.4232 84.9739 38.5151 84.3044 37.8456C83.6349 37.1761 82.7269 36.8 81.7801 36.8" fill="#EAE6E5"/>
<path d="M65.12 42.75H55.6V40.37C55.6 40.0544 55.7254 39.7517 55.9485 39.5285C56.1717 39.3054 56.4744 39.18 56.79 39.18H63.93C64.2456 39.18 64.5483 39.3054 64.7715 39.5285C64.9946 39.7517 65.12 40.0544 65.12 40.37V42.75ZM65.12 51.08H55.6V45.08H65.12V51.08ZM65.12 59.41H55.6V53.46H65.12V59.41ZM65.12 67.74H55.6V61.79H65.12V67.74ZM65.12 76.07H55.6V70.07H65.12V76.07ZM65.12 80.83C65.12 81.1456 64.9946 81.4483 64.7715 81.6714C64.5483 81.8946 64.2456 82.02 63.93 82.02H56.79C56.4744 82.02 56.1717 81.8946 55.9485 81.6714C55.7254 81.4483 55.6 81.1456 55.6 80.83V78.45H65.12V80.83ZM50.68 46.22L49.51 48.29L41.23 43.62L42.4 41.55C42.55 41.2757 42.8028 41.0721 43.1028 40.9839C43.4028 40.8958 43.7255 40.9304 44 41.08L50.23 44.62C50.3668 44.6959 50.4871 44.7983 50.5839 44.9212C50.6808 45.0441 50.7522 45.185 50.7941 45.3358C50.836 45.4865 50.8475 45.6441 50.8279 45.7994C50.8083 45.9546 50.758 46.1044 50.68 46.24V46.22ZM45.4 55.54L37.67 51.16C37.7215 50.7386 37.7482 50.3145 37.75 49.89C37.75 49.84 37.75 49.79 37.75 49.74L40.06 45.67L48.34 50.36L45.4 55.54ZM41.29 62.78L33.54 58.39C35.15 57.1648 36.3835 55.512 37.1 53.62L44.23 57.62L41.29 62.78ZM37.18 70.03L28.9 65.34L31.84 60.16L40.12 64.86L37.18 70.03ZM33.07 77.28L24.79 72.62L27.73 67.45L36 72.1L33.07 77.28ZM30.72 81.42C30.5646 81.6943 30.3068 81.8957 30.0031 81.9801C29.6994 82.0644 29.3746 82.0248 29.1 81.87L22.89 78.35C22.615 78.1927 22.4134 77.9331 22.3291 77.6277C22.2448 77.3224 22.2847 76.9961 22.44 76.72L23.62 74.62L31.9 79.32L30.72 81.42ZM28.23 51.08C27.491 51.0808 26.77 50.8524 26.1664 50.4261C25.5628 49.9998 25.1063 49.3967 24.86 48.7H34.18C34.4956 48.7 34.7983 48.8254 35.0215 49.0485C35.2446 49.2717 35.37 49.5744 35.37 49.89C35.3702 50.2884 35.3402 50.6862 35.28 51.08H28.23ZM63.93 36.8H56.79C55.8432 36.8 54.9351 37.1761 54.2656 37.8456C53.5961 38.5151 53.22 39.4232 53.22 40.37V45.55C53.211 45.2559 53.1674 44.9639 53.09 44.68C52.9656 44.2285 52.7531 43.8061 52.4648 43.4371C52.1765 43.0681 51.818 42.7598 51.41 42.53L45.2 39.01C44.376 38.5441 43.401 38.4236 42.4884 38.6747C41.5757 38.9258 40.7997 39.5282 40.33 40.35L36.47 47.16C35.8298 46.6183 35.0186 46.3207 34.18 46.32H14V48.7H22.4C22.6725 50.0446 23.4022 51.2535 24.4649 52.1212C25.5277 52.9889 26.858 53.4619 28.23 53.46H34.56C33.882 54.8894 32.8109 56.0962 31.4721 56.9392C30.1333 57.7821 28.5821 58.2264 27 58.22H14V60.62H27C27.671 60.6171 28.3404 60.5535 29 60.43L20.37 75.55C19.905 76.3752 19.786 77.3511 20.039 78.2639C20.292 79.1767 20.8965 79.952 21.72 80.42L27.93 83.94C28.4642 84.2411 29.0668 84.3995 29.68 84.4C30.0179 84.4063 30.3549 84.3625 30.68 84.27C31.5745 84.017 32.3351 83.425 32.8 82.62L52.8 47.43C53.0886 46.9192 53.2498 46.3463 53.27 45.76V80.86C53.27 81.8068 53.6461 82.7149 54.3156 83.3844C54.9851 84.0539 55.8932 84.43 56.84 84.43H63.98C64.9268 84.43 65.8349 84.0539 66.5044 83.3844C67.1739 82.7149 67.55 81.8068 67.55 80.86V40.37C67.55 39.4232 67.1739 38.5151 66.5044 37.8456C65.8349 37.1761 64.9268 36.8 63.98 36.8" fill="#EAE6E5"/>
<path d="M57.9801 25.6L52.0301 19.65L47.2701 24.41L39.7801 16.92L38.1001 18.6L47.2701 27.77L52.0301 23.01L56.3001 27.28H53.2201V29.66H60.3601V22.52H57.9801V25.6Z" fill="#EAE6E5"/>
</g>
</g>
<defs>
<clipPath id="clip0_119_2">
<rect width="100" height="100" fill="white"/>
</clipPath>
<clipPath id="clip1_119_2">
<rect width="110.39" height="76.2" fill="white" transform="translate(-10 8)"/>
</clipPath>
</defs>
</svg>
