<svg xmlns="http://www.w3.org/2000/svg" xmlns:xlink="http://www.w3.org/1999/xlink" viewBox="0 0 39.33 40"><defs><style>.cls-1{fill:none;}.cls-2{clip-path:url(#clip-path);}.cls-3{isolation:isolate;}.cls-4{clip-path:url(#clip-path-2);}.cls-5{fill:#0084b1;}.cls-6{fill:#fff;}</style><clipPath id="clip-path"><rect class="cls-1" width="39.33" height="40"/></clipPath><clipPath id="clip-path-2"><rect class="cls-1" x="-33368.67" y="-32061.46" width="65535" height="65535"/></clipPath></defs><g id="Слой_2" data-name="Слой 2"><g id="Слой_1-2" data-name="Слой 1"><g class="cls-2"><g class="cls-3"><g class="cls-4"><rect class="cls-5" x="0.09" y="0.09" width="39.16" height="39.83"/><path class="cls-6" d="M9.3,6.14a3.32,3.32,0,0,1,3.27,3.34A3.29,3.29,0,1,1,6,9.47,3.32,3.32,0,0,1,9.3,6.14"/><path class="cls-6" d="M11.21,33.86H7.36a.91.91,0,0,1-.9-.92V16.27a.91.91,0,0,1,.9-.92h3.85a.91.91,0,0,1,.9.92V32.94a.91.91,0,0,1-.9.92"/><path class="cls-6" d="M33.33,21.21a6.28,6.28,0,0,0-6.22-6.33h-1a5.49,5.49,0,0,0-4.54,2.41,5.09,5.09,0,0,0-.3.5h-.05V15.73a.38.38,0,0,0-.38-.38H16.06a.38.38,0,0,0-.38.38V33.48a.38.38,0,0,0,.38.38H21a.38.38,0,0,0,.38-.38V23.23A3.23,3.23,0,0,1,24.46,20a3.15,3.15,0,0,1,2.28.95,3.25,3.25,0,0,1,.93,2.28V33.48a.37.37,0,0,0,.37.38H33a.38.38,0,0,0,.38-.38V21.21Z"/></g></g></g></g></g></svg>