<svg xmlns="http://www.w3.org/2000/svg" xmlns:xlink="http://www.w3.org/1999/xlink" viewBox="0 0 42.86 42.86"><defs><style>.cls-1{fill:none;}.cls-2{clip-path:url(#clip-path);}.cls-3{isolation:isolate;}.cls-4{clip-path:url(#clip-path-2);}.cls-5{fill:#021526;}</style><clipPath id="clip-path"><rect class="cls-1" width="42.86" height="42.86"/></clipPath><clipPath id="clip-path-2"><rect class="cls-1" x="-33680.98" y="-32011.16" width="65535" height="65535"/></clipPath></defs><g id="Слой_2" data-name="Слой 2"><g id="Слой_1-2" data-name="Слой 1"><g class="cls-2"><g class="cls-3"><g class="cls-4"><path class="cls-5" d="M12.72,3.63V6h1.34V3.38c.22,0,.45,0,.67,0s.45,0,.67,0V6h1.34V3.63A7.39,7.39,0,0,1,21.59,8H19.42V9.38H22a6.69,6.69,0,0,1,.13,1.34H19.42v1.34H22.1v1.33H19.42v1.34H22.1v1.34H19.42v1.34H22.1v1.34H19.42v1.34H22.1A6.69,6.69,0,0,1,22,21.43H7.49a7.5,7.5,0,0,1-.12-1.34h2.68V18.75H7.37V17.41h2.68V16.07H7.37V14.73h2.68V13.39H7.37V12.06h2.68V10.72H7.37a7.5,7.5,0,0,1,.12-1.34h2.56V8H7.88a7.39,7.39,0,0,1,4.84-4.41m2,23.83a7.38,7.38,0,0,1-6.85-4.69H21.59a7.39,7.39,0,0,1-6.86,4.69m0,1.34a8.72,8.72,0,0,0,8.71-8.71V10.72A8.71,8.71,0,1,0,6,10.72v9.37a8.71,8.71,0,0,0,8.7,8.71"/><path class="cls-5" d="M27.46,20.09A12.67,12.67,0,0,1,16,32.75a.67.67,0,0,0-.61.67v5.42a.67.67,0,0,0,.67.67h2.68v1.34h-8V39.51h2.67a.67.67,0,0,0,.67-.67V33.42a.68.68,0,0,0-.6-.67A12.66,12.66,0,0,1,2,20.09V16.74a.67.67,0,0,1,1.34,0v3.35a11.39,11.39,0,1,0,22.77,0V16.74a.67.67,0,1,1,1.34,0Zm-.67-5.36a2,2,0,0,0-2,2v3.35a10,10,0,1,1-20.09,0V16.74a2,2,0,0,0-4,0v3.35A14,14,0,0,0,12.72,34v4.16H10.05a.67.67,0,0,0-.67.67v2.68a.67.67,0,0,0,.67.67h9.37a.67.67,0,0,0,.67-.67V38.84a.67.67,0,0,0-.67-.67H16.74V34A14,14,0,0,0,28.8,20.09V16.74a2,2,0,0,0-2-2"/><path class="cls-5" d="M40.85,8.71H34.16a.71.71,0,0,0-.48.19l-1.53,1.54V9.38a.67.67,0,0,0-.67-.67H26.12V2H40.85Zm.67-8H25.45a.67.67,0,0,0-.67.67v8a.67.67,0,0,0,.67.67h5.36v2a.66.66,0,0,0,.41.62.58.58,0,0,0,.26.05.7.7,0,0,0,.47-.19l2.48-2.48h7.09a.67.67,0,0,0,.67-.67v-8a.67.67,0,0,0-.67-.67"/><rect class="cls-5" x="27.46" y="4.69" width="1.34" height="1.34"/><rect class="cls-5" x="30.14" y="4.69" width="1.34" height="1.34"/><rect class="cls-5" x="32.82" y="4.69" width="1.34" height="1.34"/><rect class="cls-5" x="35.49" y="4.69" width="1.34" height="1.34"/><rect class="cls-5" x="38.17" y="4.69" width="1.34" height="1.34"/></g></g></g></g></g></svg>