<svg width="55" height="55" viewBox="0 0 55 55" fill="none" xmlns="http://www.w3.org/2000/svg">
<g clip-path="url(#clip0_117_2)">
<path d="M7.19999 6C7.37206 6 7.54026 6.05102 7.68333 6.14662C7.8264 6.24222 7.93791 6.37809 8.00376 6.53707C8.06961 6.69604 8.08684 6.87097 8.05327 7.03973C8.0197 7.20849 7.93684 7.36351 7.81517 7.48518C7.6935 7.60685 7.53848 7.68971 7.36972 7.72328C7.20095 7.75685 7.02602 7.73962 6.86705 7.67378C6.70808 7.60793 6.57221 7.49642 6.47661 7.35335C6.38101 7.21028 6.32999 7.04207 6.32999 6.87C6.32999 6.63926 6.42165 6.41797 6.5848 6.25482C6.74796 6.09166 6.96925 6 7.19999 6" fill="#021526"/>
<path d="M10.88 6C11.052 6 11.2203 6.05102 11.3633 6.14662C11.5064 6.24222 11.6179 6.37809 11.6838 6.53707C11.7496 6.69604 11.7668 6.87097 11.7333 7.03973C11.6997 7.20849 11.6168 7.36351 11.4952 7.48518C11.3735 7.60685 11.2185 7.68971 11.0497 7.72328C10.8809 7.75685 10.706 7.73962 10.547 7.67378C10.3881 7.60793 10.2522 7.49642 10.1566 7.35335C10.061 7.21028 10.01 7.04207 10.01 6.87C10.01 6.63926 10.1016 6.41797 10.2648 6.25482C10.428 6.09166 10.6492 6 10.88 6Z" fill="#021526"/>
<path d="M14.55 6C14.7225 5.99801 14.8917 6.04735 15.036 6.14173C15.1804 6.23612 15.2935 6.37129 15.3609 6.53007C15.4283 6.68886 15.4469 6.86409 15.4145 7.03351C15.3821 7.20293 15.3 7.35888 15.1787 7.48156C15.0575 7.60423 14.9025 7.68809 14.7334 7.72248C14.5644 7.75686 14.389 7.74023 14.2294 7.67468C14.0699 7.60914 13.9334 7.49765 13.8373 7.35437C13.7413 7.21109 13.69 7.04249 13.69 6.87C13.69 6.64098 13.7803 6.42119 13.9413 6.25832C14.1023 6.09545 14.321 6.00263 14.55 6Z" fill="#021526"/>
<path d="M18.23 6.00003C18.3514 5.98695 18.4742 5.99958 18.5904 6.0371C18.7066 6.07461 18.8136 6.13616 18.9044 6.21775C18.9953 6.29934 19.0679 6.39914 19.1177 6.51066C19.1674 6.62218 19.1931 6.74292 19.1931 6.86503C19.1931 6.98713 19.1674 7.10787 19.1177 7.21939C19.0679 7.33091 18.9953 7.43071 18.9044 7.5123C18.8136 7.59389 18.7066 7.65544 18.5904 7.69296C18.4742 7.73047 18.3514 7.7431 18.23 7.73003C18.0166 7.70705 17.8192 7.60602 17.6758 7.44635C17.5324 7.28668 17.4531 7.07964 17.4531 6.86503C17.4531 6.65041 17.5324 6.44337 17.6758 6.2837C17.8192 6.12403 18.0166 6.023 18.23 6.00003Z" fill="#021526"/>
<path d="M21.91 6.00003C22.0314 5.98695 22.1542 5.99958 22.2704 6.0371C22.3866 6.07461 22.4936 6.13616 22.5844 6.21775C22.6753 6.29934 22.7479 6.39914 22.7977 6.51066C22.8474 6.62218 22.8731 6.74292 22.8731 6.86503C22.8731 6.98713 22.8474 7.10787 22.7977 7.21939C22.7479 7.33091 22.6753 7.43071 22.5844 7.5123C22.4936 7.59389 22.3866 7.65544 22.2704 7.69296C22.1542 7.73047 22.0314 7.7431 21.91 7.73003C21.6966 7.70705 21.4992 7.60602 21.3558 7.44635C21.2124 7.28668 21.1331 7.07964 21.1331 6.86503C21.1331 6.65041 21.2124 6.44337 21.3558 6.2837C21.4992 6.12403 21.6966 6.023 21.91 6.00003Z" fill="#021526"/>
<path d="M25.59 6C25.7621 6 25.9303 6.05102 26.0733 6.14662C26.2164 6.24222 26.3279 6.37809 26.3938 6.53706C26.4596 6.69604 26.4769 6.87096 26.4433 7.03973C26.4097 7.20849 26.3269 7.36351 26.2052 7.48518C26.0835 7.60685 25.9285 7.68971 25.7597 7.72328C25.591 7.75685 25.416 7.73962 25.2571 7.67377C25.0981 7.60792 24.9622 7.49641 24.8666 7.35334C24.771 7.21027 24.72 7.04207 24.72 6.87C24.7187 6.75538 24.7402 6.64164 24.7835 6.53548C24.8267 6.42932 24.8908 6.33288 24.9718 6.25183C25.0529 6.17077 25.1493 6.10674 25.2555 6.06349C25.3616 6.02024 25.4754 5.99866 25.59 6" fill="#021526"/>
<path d="M29.27 6C29.4421 6 29.6103 6.05102 29.7533 6.14662C29.8964 6.24222 30.0079 6.37809 30.0738 6.53707C30.1396 6.69604 30.1568 6.87097 30.1233 7.03973C30.0897 7.20849 30.0068 7.36351 29.8852 7.48518C29.7635 7.60685 29.6085 7.68971 29.4397 7.72328C29.271 7.75685 29.096 7.73962 28.9371 7.67378C28.7781 7.60793 28.6422 7.49642 28.5466 7.35335C28.451 7.21028 28.4 7.04207 28.4 6.87C28.4 6.63926 28.4917 6.41797 28.6548 6.25482C28.818 6.09166 29.0393 6 29.27 6Z" fill="#021526"/>
<path d="M32.94 6C33.1125 5.99801 33.2816 6.04735 33.426 6.14173C33.5704 6.23612 33.6835 6.37129 33.7509 6.53007C33.8182 6.68886 33.8369 6.86409 33.8045 7.03351C33.772 7.20293 33.69 7.35888 33.5687 7.48156C33.4475 7.60423 33.2925 7.68809 33.1234 7.72248C32.9544 7.75686 32.779 7.74023 32.6194 7.67468C32.4598 7.60914 32.3234 7.49765 32.2273 7.35437C32.1313 7.21109 32.08 7.04249 32.08 6.87C32.08 6.64098 32.1703 6.42119 32.3313 6.25832C32.4923 6.09545 32.711 6.00263 32.94 6" fill="#021526"/>
<path d="M36.62 6C36.7925 5.99801 36.9616 6.04735 37.106 6.14173C37.2504 6.23612 37.3635 6.37129 37.4309 6.53007C37.4982 6.68886 37.5169 6.86409 37.4845 7.03351C37.452 7.20293 37.37 7.35888 37.2487 7.48156C37.1274 7.60423 36.9725 7.68809 36.8034 7.72248C36.6344 7.75686 36.459 7.74023 36.2994 7.67468C36.1398 7.60914 36.0034 7.49765 35.9073 7.35437C35.8113 7.21109 35.76 7.04249 35.76 6.87C35.76 6.64098 35.8503 6.42119 36.0113 6.25832C36.1723 6.09545 36.391 6.00263 36.62 6" fill="#021526"/>
<path d="M40.3 6.00003C40.4214 5.98695 40.5442 5.99958 40.6604 6.0371C40.7766 6.07461 40.8836 6.13616 40.9745 6.21775C41.0653 6.29934 41.138 6.39914 41.1877 6.51066C41.2374 6.62218 41.2631 6.74292 41.2631 6.86503C41.2631 6.98713 41.2374 7.10787 41.1877 7.21939C41.138 7.33091 41.0653 7.43071 40.9745 7.5123C40.8836 7.59389 40.7766 7.65544 40.6604 7.69296C40.5442 7.73047 40.4214 7.7431 40.3 7.73003C40.0866 7.70705 39.8893 7.60602 39.7459 7.44635C39.6025 7.28668 39.5231 7.07964 39.5231 6.86503C39.5231 6.65041 39.6025 6.44337 39.7459 6.2837C39.8893 6.12403 40.0866 6.023 40.3 6.00003" fill="#021526"/>
<path d="M44 6.00001C44.127 5.9723 44.2586 5.9734 44.3851 6.00323C44.5117 6.03307 44.6299 6.09088 44.7311 6.17242C44.8324 6.25396 44.9141 6.35715 44.9702 6.47441C45.0263 6.59167 45.0555 6.72001 45.0555 6.85001C45.0555 6.98001 45.0263 7.10836 44.9702 7.22561C44.9141 7.34287 44.8324 7.44606 44.7311 7.5276C44.6299 7.60914 44.5117 7.66695 44.3851 7.69679C44.2586 7.72662 44.127 7.72772 44 7.70001C43.806 7.65769 43.6324 7.55031 43.5079 7.39569C43.3834 7.24108 43.3155 7.04853 43.3155 6.85001C43.3155 6.65149 43.3834 6.45894 43.5079 6.30433C43.6324 6.14971 43.806 6.04233 44 6.00001" fill="#021526"/>
<path d="M47.66 6C47.832 6 48.0002 6.05102 48.1433 6.14662C48.2864 6.24222 48.3979 6.37809 48.4638 6.53706C48.5296 6.69604 48.5468 6.87096 48.5133 7.03973C48.4797 7.20849 48.3968 7.36351 48.2752 7.48518C48.1535 7.60685 47.9985 7.68971 47.8297 7.72328C47.6609 7.75685 47.486 7.73962 47.327 7.67377C47.1681 7.60792 47.0322 7.49641 46.9366 7.35334C46.841 7.21027 46.79 7.04207 46.79 6.87C46.7886 6.75538 46.8102 6.64164 46.8535 6.53548C46.8967 6.42932 46.9607 6.33288 47.0418 6.25183C47.1229 6.17077 47.2193 6.10674 47.3255 6.06349C47.4316 6.02024 47.5454 5.99866 47.66 6" fill="#021526"/>
<path d="M7.19999 9.70001C7.41336 9.72298 7.61072 9.82402 7.75412 9.98369C7.89752 10.1434 7.97685 10.3504 7.97685 10.565C7.97685 10.7796 7.89752 10.9867 7.75412 11.1463C7.61072 11.306 7.41336 11.407 7.19999 11.43C7.07858 11.4431 6.95578 11.4304 6.83958 11.3929C6.72338 11.3554 6.61637 11.2939 6.52553 11.2123C6.43468 11.1307 6.36202 11.0309 6.31229 10.9194C6.26255 10.8079 6.23685 10.6871 6.23685 10.565C6.23685 10.4429 6.26255 10.3222 6.31229 10.2106C6.36202 10.0991 6.43468 9.99932 6.52553 9.91773C6.61637 9.83614 6.72338 9.77459 6.83958 9.73708C6.95578 9.69957 7.07858 9.68693 7.19999 9.70001" fill="#021526"/>
<path d="M10.88 9.70001C11.0934 9.72298 11.2907 9.82402 11.4341 9.98369C11.5775 10.1434 11.6568 10.3504 11.6568 10.565C11.6568 10.7796 11.5775 10.9867 11.4341 11.1463C11.2907 11.306 11.0934 11.407 10.88 11.43C10.7586 11.4431 10.6358 11.4304 10.5196 11.3929C10.4034 11.3554 10.2964 11.2939 10.2055 11.2123C10.1147 11.1307 10.042 11.0309 9.99228 10.9194C9.94254 10.8079 9.91684 10.6871 9.91684 10.565C9.91684 10.4429 9.94254 10.3222 9.99228 10.2106C10.042 10.0991 10.1147 9.99932 10.2055 9.91773C10.2964 9.83614 10.4034 9.77459 10.5196 9.73708C10.6358 9.69957 10.7586 9.68693 10.88 9.70001Z" fill="#021526"/>
<path d="M14.55 9.70001C14.7229 9.69803 14.8925 9.74763 15.0371 9.84246C15.1817 9.93729 15.2947 10.0731 15.3618 10.2324C15.4289 10.3918 15.447 10.5676 15.4137 10.7372C15.3805 10.9069 15.2974 11.0629 15.1751 11.1851C15.0529 11.3074 14.8969 11.3905 14.7272 11.4237C14.5575 11.457 14.3818 11.4389 14.2224 11.3718C14.063 11.3047 13.9273 11.1917 13.8324 11.0471C13.7376 10.9025 13.688 10.7329 13.69 10.56C13.69 10.3319 13.7806 10.1132 13.9419 9.9519C14.1032 9.79061 14.3219 9.70001 14.55 9.70001Z" fill="#021526"/>
<path d="M18.23 9.70001C18.4029 9.69803 18.5725 9.74763 18.7171 9.84246C18.8617 9.93729 18.9747 10.0731 19.0418 10.2324C19.1089 10.3918 19.1269 10.5676 19.0937 10.7372C19.0604 10.9069 18.9774 11.0629 18.8551 11.1851C18.7328 11.3074 18.5769 11.3905 18.4072 11.4237C18.2375 11.457 18.0618 11.4389 17.9024 11.3718C17.743 11.3047 17.6073 11.1917 17.5124 11.0471C17.4176 10.9025 17.368 10.7329 17.37 10.56C17.37 10.3319 17.4606 10.1132 17.6219 9.9519C17.7832 9.79061 18.0019 9.70001 18.23 9.70001Z" fill="#021526"/>
<path d="M21.91 9.70001C22.0829 9.69803 22.2525 9.74763 22.3971 9.84246C22.5416 9.93729 22.6547 10.0731 22.7218 10.2324C22.7889 10.3918 22.8069 10.5676 22.7737 10.7372C22.7404 10.9069 22.6574 11.0629 22.5351 11.1851C22.4128 11.3074 22.2569 11.3905 22.0872 11.4237C21.9175 11.457 21.7418 11.4389 21.5824 11.3718C21.423 11.3047 21.2873 11.1917 21.1924 11.0471C21.0976 10.9025 21.048 10.7329 21.05 10.56C21.05 10.3319 21.1406 10.1132 21.3019 9.9519C21.4632 9.79061 21.6819 9.70001 21.91 9.70001Z" fill="#021526"/>
<path d="M25.59 9.70001C25.8034 9.72298 26.0007 9.82402 26.1441 9.98369C26.2875 10.1434 26.3669 10.3504 26.3669 10.565C26.3669 10.7796 26.2875 10.9867 26.1441 11.1463C26.0007 11.306 25.8034 11.407 25.59 11.43C25.4686 11.4431 25.3458 11.4304 25.2296 11.3929C25.1134 11.3554 25.0064 11.2939 24.9155 11.2123C24.8247 11.1307 24.752 11.0309 24.7023 10.9194C24.6526 10.8079 24.6269 10.6871 24.6269 10.565C24.6269 10.4429 24.6526 10.3222 24.7023 10.2106C24.752 10.0991 24.8247 9.99932 24.9155 9.91773C25.0064 9.83614 25.1134 9.77459 25.2296 9.73708C25.3458 9.69957 25.4686 9.68693 25.59 9.70001" fill="#021526"/>
<path d="M29.27 9.70001C29.4834 9.72298 29.6807 9.82402 29.8241 9.98369C29.9675 10.1434 30.0469 10.3504 30.0469 10.565C30.0469 10.7796 29.9675 10.9867 29.8241 11.1463C29.6807 11.306 29.4834 11.407 29.27 11.43C29.1486 11.4431 29.0258 11.4304 28.9096 11.3929C28.7934 11.3554 28.6864 11.2939 28.5955 11.2123C28.5047 11.1307 28.432 11.0309 28.3823 10.9194C28.3326 10.8079 28.3069 10.6871 28.3069 10.565C28.3069 10.4429 28.3326 10.3222 28.3823 10.2106C28.432 10.0991 28.5047 9.99932 28.5955 9.91773C28.6864 9.83614 28.7934 9.77459 28.9096 9.73708C29.0258 9.69957 29.1486 9.68693 29.27 9.70001Z" fill="#021526"/>
<path d="M32.94 9.70001C33.1129 9.69803 33.2825 9.74763 33.4271 9.84246C33.5716 9.93729 33.6847 10.0731 33.7518 10.2324C33.8189 10.3918 33.8369 10.5676 33.8037 10.7372C33.7704 10.9069 33.6874 11.0629 33.5651 11.1851C33.4428 11.3074 33.2869 11.3905 33.1172 11.4237C32.9475 11.457 32.7718 11.4389 32.6124 11.3718C32.453 11.3047 32.3173 11.1917 32.2224 11.0471C32.1276 10.9025 32.078 10.7329 32.08 10.56C32.08 10.3319 32.1706 10.1132 32.3319 9.9519C32.4931 9.79061 32.7119 9.70001 32.94 9.70001" fill="#021526"/>
<path d="M36.62 9.70001C36.7929 9.69803 36.9625 9.74763 37.107 9.84246C37.2516 9.93729 37.3647 10.0731 37.4318 10.2324C37.4989 10.3918 37.5169 10.5676 37.4837 10.7372C37.4504 10.9069 37.3674 11.0629 37.2451 11.1851C37.1228 11.3074 36.9669 11.3905 36.7972 11.4237C36.6275 11.457 36.4518 11.4389 36.2924 11.3718C36.133 11.3047 35.9973 11.1917 35.9024 11.0471C35.8076 10.9025 35.758 10.7329 35.76 10.56C35.76 10.3319 35.8506 10.1132 36.0119 9.9519C36.1731 9.79061 36.3919 9.70001 36.62 9.70001" fill="#021526"/>
<path d="M40.3 9.70001C40.4729 9.69803 40.6425 9.74763 40.7871 9.84246C40.9317 9.93729 41.0447 10.0731 41.1118 10.2324C41.1789 10.3918 41.197 10.5676 41.1637 10.7372C41.1305 10.9069 41.0474 11.0629 40.9251 11.1851C40.8029 11.3074 40.6469 11.3905 40.4772 11.4237C40.3075 11.457 40.1318 11.4389 39.9724 11.3718C39.813 11.3047 39.6773 11.1917 39.5824 11.0471C39.4876 10.9025 39.438 10.7329 39.44 10.56C39.44 10.3319 39.5306 10.1132 39.6919 9.9519C39.8532 9.79061 40.0719 9.70001 40.3 9.70001" fill="#021526"/>
<path d="M44 9.70001C44.1729 9.69803 44.3425 9.74763 44.4871 9.84246C44.6316 9.93729 44.7447 10.0731 44.8118 10.2324C44.8789 10.3918 44.8969 10.5676 44.8637 10.7372C44.8304 10.9069 44.7474 11.0629 44.6251 11.1851C44.5028 11.3074 44.3469 11.3905 44.1772 11.4237C44.0075 11.457 43.8318 11.4389 43.6724 11.3718C43.513 11.3047 43.3773 11.1917 43.2824 11.0471C43.1876 10.9025 43.138 10.7329 43.14 10.56C43.14 10.3319 43.2306 10.1132 43.3919 9.9519C43.5531 9.79061 43.7719 9.70001 44 9.70001" fill="#021526"/>
<path d="M47.66 9.70001C47.8734 9.72298 48.0707 9.82402 48.2141 9.98369C48.3575 10.1434 48.4368 10.3504 48.4368 10.565C48.4368 10.7796 48.3575 10.9867 48.2141 11.1463C48.0707 11.306 47.8734 11.407 47.66 11.43C47.5386 11.4431 47.4158 11.4304 47.2996 11.3929C47.1834 11.3554 47.0764 11.2939 46.9855 11.2123C46.8947 11.1307 46.822 11.0309 46.7723 10.9194C46.7225 10.8079 46.6968 10.6871 46.6968 10.565C46.6968 10.4429 46.7225 10.3222 46.7723 10.2106C46.822 10.0991 46.8947 9.99932 46.9855 9.91773C47.0764 9.83614 47.1834 9.77459 47.2996 9.73708C47.4158 9.69957 47.5386 9.68693 47.66 9.70001" fill="#021526"/>
<path d="M7.19999 13.45C7.37206 13.45 7.54026 13.501 7.68333 13.5966C7.8264 13.6922 7.93791 13.8281 8.00376 13.9871C8.06961 14.146 8.08684 14.321 8.05327 14.4897C8.0197 14.6585 7.93684 14.8135 7.81517 14.9352C7.6935 15.0569 7.53848 15.1397 7.36972 15.1733C7.20095 15.2069 7.02602 15.1896 6.86705 15.1238C6.70808 15.0579 6.57221 14.9464 6.47661 14.8034C6.38101 14.6603 6.32999 14.4921 6.32999 14.32C6.32999 14.0893 6.42165 13.868 6.5848 13.7048C6.74796 13.5417 6.96925 13.45 7.19999 13.45" fill="#021526"/>
<path d="M10.88 13.45C11.052 13.45 11.2203 13.501 11.3633 13.5966C11.5064 13.6922 11.6179 13.8281 11.6838 13.9871C11.7496 14.146 11.7668 14.321 11.7333 14.4897C11.6997 14.6585 11.6168 14.8135 11.4952 14.9352C11.3735 15.0569 11.2185 15.1397 11.0497 15.1733C10.8809 15.2069 10.706 15.1896 10.547 15.1238C10.3881 15.0579 10.2522 14.9464 10.1566 14.8034C10.061 14.6603 10.01 14.4921 10.01 14.32C10.01 14.0893 10.1016 13.868 10.2648 13.7048C10.428 13.5417 10.6492 13.45 10.88 13.45Z" fill="#021526"/>
<path d="M44 13.45C44.1214 13.4369 44.2442 13.4496 44.3604 13.4871C44.4766 13.5246 44.5836 13.5861 44.6745 13.6677C44.7653 13.7493 44.838 13.8491 44.8877 13.9606C44.9374 14.0722 44.9631 14.1929 44.9631 14.315C44.9631 14.4371 44.9374 14.5579 44.8877 14.6694C44.838 14.7809 44.7653 14.8807 44.6745 14.9623C44.5836 15.0439 44.4766 15.1054 44.3604 15.1429C44.2442 15.1804 44.1214 15.1931 44 15.18C43.7866 15.157 43.5893 15.056 43.4459 14.8963C43.3025 14.7367 43.2231 14.5296 43.2231 14.315C43.2231 14.1004 43.3025 13.8934 43.4459 13.7337C43.5893 13.574 43.7866 13.473 44 13.45Z" fill="#021526"/>
<path d="M47.66 13.45C47.832 13.45 48.0002 13.501 48.1433 13.5966C48.2864 13.6922 48.3979 13.8281 48.4638 13.9871C48.5296 14.146 48.5468 14.321 48.5133 14.4897C48.4797 14.6585 48.3968 14.8135 48.2752 14.9352C48.1535 15.0569 47.9985 15.1397 47.8297 15.1733C47.6609 15.2069 47.486 15.1896 47.327 15.1238C47.1681 15.0579 47.0322 14.9464 46.9366 14.8034C46.841 14.6603 46.79 14.4921 46.79 14.32C46.7886 14.2054 46.8102 14.0917 46.8535 13.9855C46.8967 13.8793 46.9607 13.7829 47.0418 13.7018C47.1229 13.6208 47.2193 13.5568 47.3255 13.5135C47.4316 13.4703 47.5454 13.4487 47.66 13.45Z" fill="#021526"/>
<path d="M7.19999 17.18C7.37206 17.18 7.54026 17.231 7.68333 17.3266C7.8264 17.4222 7.93791 17.5581 8.00376 17.7171C8.06961 17.876 8.08684 18.051 8.05327 18.2197C8.0197 18.3885 7.93684 18.5435 7.81517 18.6652C7.6935 18.7869 7.53848 18.8697 7.36972 18.9033C7.20095 18.9369 7.02602 18.9196 6.86705 18.8538C6.70808 18.7879 6.57221 18.6764 6.47661 18.5334C6.38101 18.3903 6.32999 18.2221 6.32999 18.05C6.32999 17.9358 6.35249 17.8226 6.39621 17.7171C6.43993 17.6115 6.50402 17.5156 6.5848 17.4348C6.66559 17.354 6.7615 17.29 6.86705 17.2462C6.97261 17.2025 7.08574 17.18 7.19999 17.18" fill="#021526"/>
<path d="M10.88 17.18C11.052 17.18 11.2203 17.231 11.3633 17.3266C11.5064 17.4222 11.6179 17.5581 11.6838 17.7171C11.7496 17.876 11.7668 18.051 11.7333 18.2197C11.6997 18.3885 11.6168 18.5435 11.4952 18.6652C11.3735 18.7869 11.2185 18.8697 11.0497 18.9033C10.8809 18.9369 10.706 18.9196 10.547 18.8538C10.3881 18.7879 10.2522 18.6764 10.1566 18.5334C10.061 18.3903 10.01 18.2221 10.01 18.05C10.01 17.9358 10.0325 17.8226 10.0762 17.7171C10.1199 17.6115 10.184 17.5156 10.2648 17.4348C10.3456 17.354 10.4415 17.29 10.547 17.2462C10.6526 17.2025 10.7657 17.18 10.88 17.18" fill="#021526"/>
<path d="M44 17.18C44.1214 17.1669 44.2442 17.1796 44.3604 17.2171C44.4766 17.2546 44.5836 17.3162 44.6745 17.3977C44.7653 17.4793 44.838 17.5791 44.8877 17.6907C44.9374 17.8022 44.9631 17.9229 44.9631 18.045C44.9631 18.1671 44.9374 18.2879 44.8877 18.3994C44.838 18.5109 44.7653 18.6107 44.6745 18.6923C44.5836 18.7739 44.4766 18.8354 44.3604 18.8729C44.2442 18.9105 44.1214 18.9231 44 18.91C43.7866 18.887 43.5893 18.786 43.4459 18.6263C43.3025 18.4667 43.2231 18.2596 43.2231 18.045C43.2231 17.8304 43.3025 17.6234 43.4459 17.4637C43.5893 17.304 43.7866 17.203 44 17.18Z" fill="#021526"/>
<path d="M47.66 17.18C47.832 17.18 48.0002 17.231 48.1433 17.3266C48.2864 17.4222 48.3979 17.5581 48.4638 17.7171C48.5296 17.876 48.5468 18.051 48.5133 18.2197C48.4797 18.3885 48.3968 18.5435 48.2752 18.6652C48.1535 18.7869 47.9985 18.8697 47.8297 18.9033C47.6609 18.9369 47.486 18.9196 47.327 18.8538C47.1681 18.7879 47.0322 18.6764 46.9366 18.5334C46.841 18.3903 46.79 18.2221 46.79 18.05C46.7886 17.9354 46.8102 17.8217 46.8535 17.7155C46.8967 17.6093 46.9607 17.5129 47.0418 17.4318C47.1229 17.3508 47.2193 17.2867 47.3255 17.2435C47.4316 17.2003 47.5454 17.1787 47.66 17.18" fill="#021526"/>
<path d="M7.19998 20.94C7.37248 20.94 7.54107 20.9913 7.68435 21.0874C7.82763 21.1834 7.93913 21.3199 8.00467 21.4794C8.07021 21.639 8.08685 21.8144 8.05246 21.9835C8.01807 22.1525 7.93422 22.3075 7.81154 22.4287C7.68887 22.55 7.53292 22.6321 7.3635 22.6645C7.19408 22.6969 7.01885 22.6783 6.86006 22.6109C6.70127 22.5435 6.5661 22.4304 6.47172 22.2861C6.37734 22.1417 6.328 21.9725 6.32998 21.8C6.33262 21.571 6.42544 21.3523 6.58831 21.1913C6.75118 21.0303 6.97097 20.94 7.19998 20.94" fill="#021526"/>
<path d="M10.88 20.94C11.0525 20.94 11.2211 20.9913 11.3644 21.0874C11.5077 21.1834 11.6191 21.3199 11.6847 21.4794C11.7502 21.639 11.7669 21.8144 11.7325 21.9835C11.6981 22.1525 11.6142 22.3075 11.4916 22.4287C11.3689 22.55 11.2129 22.6321 11.0435 22.6645C10.8741 22.6969 10.6989 22.6783 10.5401 22.6109C10.3813 22.5435 10.2461 22.4304 10.1517 22.2861C10.0574 22.1417 10.008 21.9725 10.01 21.8C10.0126 21.571 10.1055 21.3523 10.2683 21.1913C10.4312 21.0303 10.651 20.94 10.88 20.94" fill="#021526"/>
<path d="M44 20.94C44.1729 20.938 44.3425 20.9876 44.4871 21.0825C44.6316 21.1773 44.7447 21.3131 44.8118 21.4724C44.8789 21.6318 44.8969 21.8076 44.8637 21.9772C44.8304 22.1469 44.7474 22.3029 44.6251 22.4251C44.5028 22.5474 44.3469 22.6305 44.1772 22.6637C44.0075 22.697 43.8318 22.6789 43.6724 22.6118C43.513 22.5447 43.3773 22.4317 43.2824 22.2871C43.1876 22.1425 43.138 21.9729 43.14 21.8C43.1426 21.5727 43.234 21.3555 43.3947 21.1948C43.5555 21.0341 43.7727 20.9426 44 20.94" fill="#021526"/>
<path d="M47.66 20.94C47.8734 20.963 48.0707 21.064 48.2141 21.2237C48.3575 21.3834 48.4368 21.5904 48.4368 21.805C48.4368 22.0196 48.3575 22.2267 48.2141 22.3863C48.0707 22.546 47.8734 22.647 47.66 22.67C47.5386 22.6831 47.4158 22.6705 47.2996 22.6329C47.1834 22.5954 47.0764 22.5339 46.9855 22.4523C46.8947 22.3707 46.822 22.2709 46.7723 22.1594C46.7225 22.0479 46.6968 21.9271 46.6968 21.805C46.6968 21.6829 46.7225 21.5622 46.7723 21.4506C46.822 21.3391 46.8947 21.2393 46.9855 21.1577C47.0764 21.0761 47.1834 21.0146 47.2996 20.9771C47.4158 20.9396 47.5386 20.9269 47.66 20.94" fill="#021526"/>
<path d="M7.19999 24.66C7.37206 24.66 7.54026 24.711 7.68333 24.8066C7.8264 24.9022 7.93791 25.0381 8.00376 25.1971C8.06961 25.356 8.08684 25.531 8.05327 25.6997C8.0197 25.8685 7.93684 26.0235 7.81517 26.1452C7.6935 26.2669 7.53848 26.3497 7.36972 26.3833C7.20095 26.4169 7.02602 26.3996 6.86705 26.3338C6.70808 26.2679 6.57221 26.1564 6.47661 26.0133C6.38101 25.8703 6.32999 25.7021 6.32999 25.53C6.32999 25.2993 6.42165 25.078 6.5848 24.9148C6.74796 24.7517 6.96925 24.66 7.19999 24.66" fill="#021526"/>
<path d="M10.88 24.66C11.052 24.66 11.2203 24.711 11.3633 24.8066C11.5064 24.9022 11.6179 25.0381 11.6838 25.1971C11.7496 25.356 11.7668 25.531 11.7333 25.6997C11.6997 25.8685 11.6168 26.0235 11.4952 26.1452C11.3735 26.2669 11.2185 26.3497 11.0497 26.3833C10.8809 26.4169 10.706 26.3996 10.547 26.3338C10.3881 26.2679 10.2522 26.1564 10.1566 26.0133C10.061 25.8703 10.01 25.7021 10.01 25.53C10.01 25.2993 10.1016 25.078 10.2648 24.9148C10.428 24.7517 10.6492 24.66 10.88 24.66" fill="#021526"/>
<path d="M44 24.66C44.1214 24.6469 44.2442 24.6596 44.3604 24.6971C44.4766 24.7346 44.5836 24.7961 44.6745 24.8777C44.7653 24.9593 44.838 25.0591 44.8877 25.1706C44.9374 25.2822 44.9631 25.4029 44.9631 25.525C44.9631 25.6471 44.9374 25.7679 44.8877 25.8794C44.838 25.9909 44.7653 26.0907 44.6745 26.1723C44.5836 26.2539 44.4766 26.3154 44.3604 26.3529C44.2442 26.3905 44.1214 26.4031 44 26.39C43.7866 26.367 43.5893 26.266 43.4459 26.1063C43.3025 25.9467 43.2231 25.7396 43.2231 25.525C43.2231 25.3104 43.3025 25.1034 43.4459 24.9437C43.5893 24.784 43.7866 24.683 44 24.66Z" fill="#021526"/>
<path d="M47.66 24.66C47.832 24.66 48.0002 24.711 48.1433 24.8066C48.2864 24.9022 48.3979 25.0381 48.4638 25.1971C48.5296 25.3561 48.5468 25.531 48.5133 25.6997C48.4797 25.8685 48.3968 26.0235 48.2752 26.1452C48.1535 26.2669 47.9985 26.3497 47.8297 26.3833C47.6609 26.4169 47.486 26.3996 47.327 26.3338C47.1681 26.2679 47.0322 26.1564 46.9366 26.0134C46.841 25.8703 46.79 25.7021 46.79 25.53C46.7886 25.4154 46.8102 25.3017 46.8535 25.1955C46.8967 25.0893 46.9607 24.9929 47.0418 24.9118C47.1229 24.8308 47.2193 24.7668 47.3255 24.7235C47.4316 24.6803 47.5454 24.6587 47.66 24.66" fill="#021526"/>
<path d="M7.19999 28.42C7.37206 28.42 7.54026 28.471 7.68333 28.5666C7.8264 28.6622 7.93791 28.7981 8.00376 28.9571C8.06961 29.1161 8.08684 29.291 8.05327 29.4597C8.0197 29.6285 7.93684 29.7835 7.81517 29.9052C7.6935 30.0269 7.53848 30.1097 7.36972 30.1433C7.20095 30.1769 7.02602 30.1596 6.86705 30.0938C6.70808 30.0279 6.57221 29.9164 6.47661 29.7734C6.38101 29.6303 6.32999 29.4621 6.32999 29.29C6.32999 29.0593 6.42165 28.838 6.5848 28.6748C6.74796 28.5117 6.96925 28.42 7.19999 28.42" fill="#021526"/>
<path d="M10.88 28.42C11.052 28.42 11.2203 28.471 11.3633 28.5666C11.5064 28.6622 11.6179 28.7981 11.6838 28.9571C11.7496 29.1161 11.7668 29.291 11.7333 29.4597C11.6997 29.6285 11.6168 29.7835 11.4952 29.9052C11.3735 30.0269 11.2185 30.1097 11.0497 30.1433C10.8809 30.1769 10.706 30.1596 10.547 30.0938C10.3881 30.0279 10.2522 29.9164 10.1566 29.7734C10.061 29.6303 10.01 29.4621 10.01 29.29C10.01 29.0593 10.1016 28.838 10.2648 28.6748C10.428 28.5117 10.6492 28.42 10.88 28.42Z" fill="#021526"/>
<path d="M44 28.42C44.1214 28.4069 44.2442 28.4196 44.3604 28.4571C44.4766 28.4946 44.5836 28.5561 44.6745 28.6377C44.7653 28.7193 44.838 28.8191 44.8877 28.9306C44.9374 29.0422 44.9631 29.1629 44.9631 29.285C44.9631 29.4071 44.9374 29.5279 44.8877 29.6394C44.838 29.7509 44.7653 29.8507 44.6745 29.9323C44.5836 30.0139 44.4766 30.0754 44.3604 30.1129C44.2442 30.1505 44.1214 30.1631 44 30.15C43.7866 30.127 43.5893 30.026 43.4459 29.8663C43.3025 29.7067 43.2231 29.4996 43.2231 29.285C43.2231 29.0704 43.3025 28.8634 43.4459 28.7037C43.5893 28.544 43.7866 28.443 44 28.42Z" fill="#021526"/>
<path d="M47.66 28.42C47.832 28.42 48.0002 28.471 48.1433 28.5666C48.2864 28.6622 48.3979 28.7981 48.4638 28.9571C48.5296 29.116 48.5468 29.291 48.5133 29.4597C48.4797 29.6285 48.3968 29.7835 48.2752 29.9052C48.1535 30.0269 47.9985 30.1097 47.8297 30.1433C47.6609 30.1769 47.486 30.1596 47.327 30.0938C47.1681 30.0279 47.0322 29.9164 46.9366 29.7734C46.841 29.6303 46.79 29.4621 46.79 29.29C46.7886 29.1754 46.8102 29.0617 46.8535 28.9555C46.8967 28.8493 46.9607 28.7529 47.0418 28.6718C47.1229 28.5908 47.2193 28.5268 47.3255 28.4835C47.4316 28.4403 47.5454 28.4187 47.66 28.42" fill="#021526"/>
<path d="M7.19998 32.15C7.37248 32.15 7.54107 32.2013 7.68435 32.2974C7.82763 32.3934 7.93913 32.5299 8.00467 32.6894C8.07021 32.849 8.08685 33.0244 8.05246 33.1934C8.01807 33.3625 7.93422 33.5175 7.81154 33.6387C7.68887 33.76 7.53292 33.8421 7.3635 33.8745C7.19408 33.9069 7.01885 33.8883 6.86006 33.8209C6.70127 33.7535 6.5661 33.6404 6.47172 33.496C6.37734 33.3517 6.328 33.1825 6.32998 33.01C6.33262 32.781 6.42544 32.5623 6.58831 32.4013C6.75118 32.2403 6.97097 32.15 7.19998 32.15" fill="#021526"/>
<path d="M10.88 32.15C11.0525 32.152 11.2204 32.2053 11.3626 32.303C11.5047 32.4007 11.6146 32.5385 11.6783 32.6987C11.742 32.859 11.7566 33.0347 11.7202 33.2033C11.6839 33.3719 11.5982 33.5259 11.4742 33.6457C11.3501 33.7655 11.1932 33.8458 11.0235 33.8763C10.8537 33.9067 10.6787 33.8861 10.5207 33.8169C10.3627 33.7477 10.2289 33.6331 10.1361 33.4876C10.0434 33.3422 9.99603 33.1725 9.99998 33C10.0026 32.771 10.0954 32.5523 10.2583 32.3913C10.4212 32.2303 10.641 32.14 10.87 32.14" fill="#021526"/>
<path d="M44 32.15C44.1729 32.148 44.3425 32.1976 44.4871 32.2925C44.6316 32.3873 44.7447 32.5231 44.8118 32.6824C44.8789 32.8418 44.8969 33.0176 44.8637 33.1873C44.8304 33.3569 44.7474 33.5129 44.6251 33.6351C44.5028 33.7574 44.3469 33.8405 44.1772 33.8737C44.0075 33.907 43.8318 33.8889 43.6724 33.8218C43.513 33.7547 43.3773 33.6417 43.2824 33.4971C43.1876 33.3525 43.138 33.1829 43.14 33.01C43.1426 32.7827 43.234 32.5655 43.3947 32.4048C43.5555 32.2441 43.7727 32.1526 44 32.15Z" fill="#021526"/>
<path d="M47.66 32.15C47.8734 32.173 48.0707 32.274 48.2141 32.4337C48.3575 32.5934 48.4368 32.8004 48.4368 33.015C48.4368 33.2296 48.3575 33.4367 48.2141 33.5963C48.0707 33.756 47.8734 33.857 47.66 33.88C47.5386 33.8931 47.4158 33.8805 47.2996 33.8429C47.1834 33.8054 47.0764 33.7439 46.9855 33.6623C46.8947 33.5807 46.822 33.4809 46.7723 33.3694C46.7225 33.2579 46.6968 33.1371 46.6968 33.015C46.6968 32.8929 46.7225 32.7722 46.7723 32.6607C46.822 32.5491 46.8947 32.4493 46.9855 32.3677C47.0764 32.2862 47.1834 32.2246 47.2996 32.1871C47.4158 32.1496 47.5386 32.1369 47.66 32.15" fill="#021526"/>
<path d="M7.19999 35.91C7.41336 35.933 7.61072 36.034 7.75412 36.1937C7.89752 36.3534 7.97685 36.5604 7.97685 36.775C7.97685 36.9896 7.89752 37.1967 7.75412 37.3563C7.61072 37.516 7.41336 37.617 7.19999 37.64C7.07858 37.6531 6.95578 37.6405 6.83958 37.6029C6.72338 37.5654 6.61637 37.5039 6.52553 37.4223C6.43468 37.3407 6.36202 37.2409 6.31229 37.1294C6.26255 37.0179 6.23685 36.8971 6.23685 36.775C6.23685 36.6529 6.26255 36.5322 6.31229 36.4206C6.36202 36.3091 6.43468 36.2093 6.52553 36.1277C6.61637 36.0461 6.72338 35.9846 6.83958 35.9471C6.95578 35.9096 7.07858 35.8969 7.19999 35.91" fill="#021526"/>
<path d="M10.88 35.91C11.0934 35.933 11.2907 36.034 11.4341 36.1937C11.5775 36.3534 11.6568 36.5604 11.6568 36.775C11.6568 36.9896 11.5775 37.1967 11.4341 37.3563C11.2907 37.516 11.0934 37.617 10.88 37.64C10.7586 37.6531 10.6358 37.6405 10.5196 37.6029C10.4034 37.5654 10.2964 37.5039 10.2055 37.4223C10.1147 37.3407 10.042 37.2409 9.99228 37.1294C9.94254 37.0179 9.91684 36.8971 9.91684 36.775C9.91684 36.6529 9.94254 36.5322 9.99228 36.4206C10.042 36.3091 10.1147 36.2093 10.2055 36.1277C10.2964 36.0461 10.4034 35.9846 10.5196 35.9471C10.6358 35.9096 10.7586 35.8969 10.88 35.91" fill="#021526"/>
<path d="M44 35.91C44.1729 35.908 44.3425 35.9576 44.4871 36.0525C44.6316 36.1473 44.7447 36.2831 44.8118 36.4424C44.8789 36.6018 44.8969 36.7776 44.8637 36.9472C44.8304 37.1169 44.7474 37.2729 44.6251 37.3951C44.5028 37.5174 44.3469 37.6005 44.1772 37.6337C44.0075 37.667 43.8318 37.6489 43.6724 37.5818C43.513 37.5147 43.3773 37.4017 43.2824 37.2571C43.1876 37.1125 43.138 36.9429 43.14 36.77C43.14 36.5419 43.2306 36.3232 43.3919 36.1619C43.5531 36.0006 43.7719 35.91 44 35.91" fill="#021526"/>
<path d="M47.66 35.91C47.8734 35.933 48.0707 36.034 48.2141 36.1937C48.3575 36.3534 48.4368 36.5604 48.4368 36.775C48.4368 36.9896 48.3575 37.1967 48.2141 37.3563C48.0707 37.516 47.8734 37.617 47.66 37.64C47.5386 37.6531 47.4158 37.6405 47.2996 37.6029C47.1834 37.5654 47.0764 37.5039 46.9855 37.4223C46.8947 37.3407 46.822 37.2409 46.7723 37.1294C46.7225 37.0179 46.6968 36.8971 46.6968 36.775C46.6968 36.6529 46.7225 36.5322 46.7723 36.4206C46.822 36.3091 46.8947 36.2093 46.9855 36.1277C47.0764 36.0461 47.1834 35.9846 47.2996 35.9471C47.4158 35.9096 47.5386 35.8969 47.66 35.91" fill="#021526"/>
<path d="M7.19999 39.63C7.37206 39.63 7.54026 39.681 7.68333 39.7766C7.8264 39.8722 7.93791 40.0081 8.00376 40.1671C8.06961 40.326 8.08684 40.501 8.05327 40.6697C8.0197 40.8385 7.93684 40.9935 7.81517 41.1152C7.6935 41.2369 7.53848 41.3197 7.36972 41.3533C7.20095 41.3869 7.02602 41.3696 6.86705 41.3038C6.70808 41.2379 6.57221 41.1264 6.47661 40.9833C6.38101 40.8403 6.32999 40.6721 6.32999 40.5C6.32999 40.2693 6.42165 40.048 6.5848 39.8848C6.74796 39.7217 6.96925 39.63 7.19999 39.63" fill="#021526"/>
<path d="M10.88 39.63C11.052 39.63 11.2203 39.681 11.3633 39.7766C11.5064 39.8722 11.6179 40.0081 11.6838 40.1671C11.7496 40.326 11.7668 40.501 11.7333 40.6697C11.6997 40.8385 11.6168 40.9935 11.4952 41.1152C11.3735 41.2369 11.2185 41.3197 11.0497 41.3533C10.8809 41.3869 10.706 41.3696 10.547 41.3038C10.3881 41.2379 10.2522 41.1264 10.1566 40.9833C10.061 40.8403 10.01 40.6721 10.01 40.5C10.01 40.2693 10.1016 40.048 10.2648 39.8848C10.428 39.7217 10.6492 39.63 10.88 39.63Z" fill="#021526"/>
<path d="M44 39.63C44.1214 39.6169 44.2442 39.6296 44.3604 39.6671C44.4766 39.7046 44.5836 39.7661 44.6745 39.8477C44.7653 39.9293 44.838 40.0291 44.8877 40.1406C44.9374 40.2522 44.9631 40.3729 44.9631 40.495C44.9631 40.6171 44.9374 40.7379 44.8877 40.8494C44.838 40.9609 44.7653 41.0607 44.6745 41.1423C44.5836 41.2239 44.4766 41.2854 44.3604 41.3229C44.2442 41.3605 44.1214 41.3731 44 41.36C43.7866 41.337 43.5893 41.236 43.4459 41.0763C43.3025 40.9167 43.2231 40.7096 43.2231 40.495C43.2231 40.2804 43.3025 40.0734 43.4459 39.9137C43.5893 39.754 43.7866 39.653 44 39.63Z" fill="#021526"/>
<path d="M47.66 39.63C47.832 39.63 48.0002 39.681 48.1433 39.7766C48.2864 39.8722 48.3979 40.0081 48.4638 40.1671C48.5296 40.3261 48.5468 40.501 48.5133 40.6697C48.4797 40.8385 48.3968 40.9935 48.2752 41.1152C48.1535 41.2369 47.9985 41.3197 47.8297 41.3533C47.6609 41.3869 47.486 41.3696 47.327 41.3038C47.1681 41.2379 47.0322 41.1264 46.9366 40.9834C46.841 40.8403 46.79 40.6721 46.79 40.5C46.7886 40.3854 46.8102 40.2717 46.8535 40.1655C46.8967 40.0593 46.9607 39.9629 47.0418 39.8818C47.1229 39.8008 47.2193 39.7368 47.3255 39.6935C47.4316 39.6503 47.5454 39.6287 47.66 39.63" fill="#021526"/>
<path d="M7.19999 43.39C7.37206 43.39 7.54026 43.441 7.68333 43.5366C7.8264 43.6322 7.93791 43.7681 8.00376 43.9271C8.06961 44.0861 8.08684 44.261 8.05327 44.4297C8.0197 44.5985 7.93684 44.7535 7.81517 44.8752C7.6935 44.9969 7.53848 45.0797 7.36972 45.1133C7.20095 45.1469 7.02602 45.1296 6.86705 45.0638C6.70808 44.9979 6.57221 44.8864 6.47661 44.7434C6.38101 44.6003 6.32999 44.4321 6.32999 44.26C6.32999 44.0293 6.42165 43.808 6.5848 43.6448C6.74796 43.4817 6.96925 43.39 7.19999 43.39" fill="#021526"/>
<path d="M10.88 43.39C11.052 43.39 11.2203 43.441 11.3633 43.5366C11.5064 43.6322 11.6179 43.7681 11.6838 43.9271C11.7496 44.0861 11.7668 44.261 11.7333 44.4297C11.6997 44.5985 11.6168 44.7535 11.4952 44.8752C11.3735 44.9969 11.2185 45.0797 11.0497 45.1133C10.8809 45.1469 10.706 45.1296 10.547 45.0638C10.3881 44.9979 10.2522 44.8864 10.1566 44.7434C10.061 44.6003 10.01 44.4321 10.01 44.26C10.01 44.0293 10.1016 43.808 10.2648 43.6448C10.428 43.4817 10.6492 43.39 10.88 43.39Z" fill="#021526"/>
<path d="M14.55 43.39C14.7225 43.388 14.8917 43.4374 15.036 43.5317C15.1804 43.6261 15.2935 43.7613 15.3609 43.9201C15.4283 44.0789 15.4469 44.2541 15.4145 44.4235C15.3821 44.5929 15.3 44.7489 15.1787 44.8716C15.0575 44.9942 14.9025 45.0781 14.7334 45.1125C14.5644 45.1469 14.389 45.1302 14.2294 45.0647C14.0699 44.9992 13.9334 44.8877 13.8373 44.7444C13.7413 44.6011 13.69 44.4325 13.69 44.26C13.69 44.031 13.7803 43.8112 13.9413 43.6483C14.1023 43.4855 14.321 43.3926 14.55 43.39" fill="#021526"/>
<path d="M18.23 43.39C18.3514 43.3769 18.4742 43.3896 18.5904 43.4271C18.7066 43.4646 18.8136 43.5261 18.9044 43.6077C18.9953 43.6893 19.0679 43.7891 19.1177 43.9006C19.1674 44.0122 19.1931 44.1329 19.1931 44.255C19.1931 44.3771 19.1674 44.4979 19.1177 44.6094C19.0679 44.7209 18.9953 44.8207 18.9044 44.9023C18.8136 44.9839 18.7066 45.0454 18.5904 45.0829C18.4742 45.1205 18.3514 45.1331 18.23 45.12C18.0166 45.097 17.8192 44.996 17.6758 44.8363C17.5324 44.6767 17.4531 44.4696 17.4531 44.255C17.4531 44.0404 17.5324 43.8334 17.6758 43.6737C17.8192 43.514 18.0166 43.413 18.23 43.39Z" fill="#021526"/>
<path d="M21.91 43.39C22.0314 43.3769 22.1542 43.3896 22.2704 43.4271C22.3866 43.4646 22.4936 43.5261 22.5844 43.6077C22.6753 43.6893 22.7479 43.7891 22.7977 43.9006C22.8474 44.0122 22.8731 44.1329 22.8731 44.255C22.8731 44.3771 22.8474 44.4979 22.7977 44.6094C22.7479 44.7209 22.6753 44.8207 22.5844 44.9023C22.4936 44.9839 22.3866 45.0454 22.2704 45.0829C22.1542 45.1205 22.0314 45.1331 21.91 45.12C21.6966 45.097 21.4992 44.996 21.3558 44.8363C21.2124 44.6767 21.1331 44.4696 21.1331 44.255C21.1331 44.0404 21.2124 43.8334 21.3558 43.6737C21.4992 43.514 21.6966 43.413 21.91 43.39Z" fill="#021526"/>
<path d="M25.59 43.39C25.7621 43.39 25.9303 43.441 26.0733 43.5366C26.2164 43.6322 26.3279 43.7681 26.3938 43.9271C26.4596 44.0861 26.4769 44.261 26.4433 44.4297C26.4097 44.5985 26.3269 44.7535 26.2052 44.8752C26.0835 44.9969 25.9285 45.0797 25.7597 45.1133C25.591 45.1469 25.416 45.1296 25.2571 45.0638C25.0981 44.9979 24.9622 44.8864 24.8666 44.7434C24.771 44.6003 24.72 44.4321 24.72 44.26C24.7187 44.1454 24.7402 44.0317 24.7835 43.9255C24.8267 43.8193 24.8908 43.7229 24.9718 43.6418C25.0529 43.5608 25.1493 43.4968 25.2555 43.4535C25.3616 43.4103 25.4754 43.3887 25.59 43.39" fill="#021526"/>
<path d="M29.27 43.39C29.4421 43.39 29.6103 43.441 29.7533 43.5366C29.8964 43.6322 30.0079 43.7681 30.0738 43.9271C30.1396 44.0861 30.1568 44.261 30.1233 44.4297C30.0897 44.5985 30.0068 44.7535 29.8852 44.8752C29.7635 44.9969 29.6085 45.0797 29.4397 45.1133C29.271 45.1469 29.096 45.1296 28.9371 45.0638C28.7781 44.9979 28.6422 44.8864 28.5466 44.7434C28.451 44.6003 28.4 44.4321 28.4 44.26C28.4 44.0293 28.4917 43.808 28.6548 43.6448C28.818 43.4817 29.0393 43.39 29.27 43.39Z" fill="#021526"/>
<path d="M32.94 43.39C33.1125 43.388 33.2816 43.4374 33.426 43.5317C33.5704 43.6261 33.6835 43.7613 33.7509 43.9201C33.8182 44.0789 33.8369 44.2541 33.8045 44.4235C33.772 44.5929 33.69 44.7489 33.5687 44.8716C33.4475 44.9942 33.2925 45.0781 33.1234 45.1125C32.9544 45.1469 32.779 45.1302 32.6194 45.0647C32.4598 44.9992 32.3234 44.8877 32.2273 44.7444C32.1313 44.6011 32.08 44.4325 32.08 44.26C32.08 44.031 32.1703 43.8112 32.3313 43.6483C32.4923 43.4855 32.711 43.3926 32.94 43.39" fill="#021526"/>
<path d="M36.62 43.39C36.7925 43.388 36.9616 43.4374 37.106 43.5317C37.2504 43.6261 37.3635 43.7613 37.4309 43.9201C37.4982 44.0789 37.5169 44.2541 37.4845 44.4235C37.452 44.5929 37.37 44.7489 37.2487 44.8716C37.1274 44.9942 36.9725 45.0781 36.8034 45.1125C36.6344 45.1469 36.459 45.1302 36.2994 45.0647C36.1398 44.9992 36.0034 44.8877 35.9073 44.7444C35.8113 44.6011 35.76 44.4325 35.76 44.26C35.76 44.031 35.8503 43.8112 36.0113 43.6483C36.1723 43.4855 36.391 43.3926 36.62 43.39" fill="#021526"/>
<path d="M40.3 43.39C40.4214 43.3769 40.5442 43.3896 40.6604 43.4271C40.7766 43.4646 40.8836 43.5261 40.9745 43.6077C41.0653 43.6893 41.138 43.7891 41.1877 43.9006C41.2374 44.0122 41.2631 44.1329 41.2631 44.255C41.2631 44.3771 41.2374 44.4979 41.1877 44.6094C41.138 44.7209 41.0653 44.8207 40.9745 44.9023C40.8836 44.9839 40.7766 45.0454 40.6604 45.0829C40.5442 45.1205 40.4214 45.1331 40.3 45.12C40.0866 45.097 39.8893 44.996 39.7459 44.8363C39.6025 44.6767 39.5231 44.4696 39.5231 44.255C39.5231 44.0404 39.6025 43.8334 39.7459 43.6737C39.8893 43.514 40.0866 43.413 40.3 43.39" fill="#021526"/>
<path d="M44 43.39C44.1214 43.3769 44.2442 43.3896 44.3604 43.4271C44.4766 43.4646 44.5836 43.5261 44.6745 43.6077C44.7653 43.6893 44.838 43.7891 44.8877 43.9006C44.9374 44.0122 44.9631 44.1329 44.9631 44.255C44.9631 44.3771 44.9374 44.4979 44.8877 44.6094C44.838 44.7209 44.7653 44.8207 44.6745 44.9023C44.5836 44.9839 44.4766 45.0454 44.3604 45.0829C44.2442 45.1205 44.1214 45.1331 44 45.12C43.7866 45.097 43.5893 44.996 43.4459 44.8363C43.3025 44.6767 43.2231 44.4696 43.2231 44.255C43.2231 44.0404 43.3025 43.8334 43.4459 43.6737C43.5893 43.514 43.7866 43.413 44 43.39Z" fill="#021526"/>
<path d="M47.66 43.39C47.832 43.39 48.0002 43.441 48.1433 43.5366C48.2864 43.6322 48.3979 43.7681 48.4638 43.9271C48.5296 44.0861 48.5468 44.261 48.5133 44.4297C48.4797 44.5985 48.3968 44.7535 48.2752 44.8752C48.1535 44.9969 47.9985 45.0797 47.8297 45.1133C47.6609 45.1469 47.486 45.1296 47.327 45.0638C47.1681 44.9979 47.0322 44.8864 46.9366 44.7434C46.841 44.6003 46.79 44.4321 46.79 44.26C46.7886 44.1454 46.8102 44.0317 46.8535 43.9255C46.8967 43.8193 46.9607 43.7229 47.0418 43.6418C47.1229 43.5608 47.2193 43.4968 47.3255 43.4535C47.4316 43.4103 47.5454 43.3887 47.66 43.39" fill="#021526"/>
<path d="M7.19999 47.12C7.36964 47.122 7.53492 47.1741 7.67502 47.2698C7.81513 47.3655 7.9238 47.5005 7.98736 47.6578C8.05092 47.8151 8.06653 47.9877 8.03222 48.1538C7.99792 48.32 7.91524 48.4723 7.79457 48.5916C7.67391 48.7108 7.52067 48.7918 7.35412 48.8241C7.18758 48.8565 7.01517 48.8389 6.85861 48.7735C6.70205 48.7082 6.56832 48.5979 6.47426 48.4567C6.38019 48.3155 6.33 48.1497 6.32999 47.98C6.32998 47.8662 6.35255 47.7536 6.39639 47.6486C6.44024 47.5436 6.50448 47.4483 6.5854 47.3683C6.66632 47.2883 6.76231 47.2252 6.86781 47.1826C6.9733 47.14 7.08621 47.1187 7.19999 47.12" fill="#021526"/>
<path d="M10.88 47.12C11.0483 47.124 11.2118 47.1773 11.3501 47.2733C11.4884 47.3693 11.5955 47.5037 11.6581 47.66C11.7207 47.8163 11.7361 47.9876 11.7022 48.1525C11.6684 48.3174 11.5869 48.4688 11.4679 48.5879C11.3488 48.7069 11.1974 48.7884 11.0325 48.8222C10.8676 48.8561 10.6963 48.8407 10.54 48.7781C10.3837 48.7155 10.2492 48.6084 10.1532 48.4701C10.0572 48.3318 10.004 48.1683 10 48C9.99999 47.8862 10.0226 47.7736 10.0664 47.6686C10.1103 47.5636 10.1745 47.4683 10.2554 47.3883C10.3363 47.3083 10.4323 47.2452 10.5378 47.2026C10.6433 47.16 10.7562 47.1387 10.87 47.14" fill="#021526"/>
<path d="M14.55 47.12C14.7201 47.12 14.8864 47.1704 15.0278 47.2649C15.1692 47.3594 15.2794 47.4938 15.3445 47.6509C15.4096 47.808 15.4267 47.981 15.3935 48.1478C15.3603 48.3146 15.2784 48.4679 15.1581 48.5881C15.0378 48.7084 14.8846 48.7903 14.7178 48.8235C14.551 48.8567 14.378 48.8396 14.2209 48.7745C14.0638 48.7095 13.9294 48.5992 13.8349 48.4578C13.7404 48.3164 13.69 48.1501 13.69 47.98C13.69 47.7519 13.7806 47.5332 13.9419 47.3719C14.1032 47.2106 14.3219 47.12 14.55 47.12" fill="#021526"/>
<path d="M18.23 47.12C18.4001 47.12 18.5664 47.1704 18.7078 47.2649C18.8492 47.3594 18.9594 47.4938 19.0245 47.6509C19.0896 47.808 19.1067 47.981 19.0735 48.1478C19.0403 48.3146 18.9584 48.4679 18.8381 48.5881C18.7178 48.7084 18.5646 48.7903 18.3978 48.8235C18.2309 48.8567 18.058 48.8396 17.9009 48.7745C17.7437 48.7095 17.6094 48.5992 17.5149 48.4578C17.4204 48.3164 17.37 48.1501 17.37 47.98C17.37 47.7519 17.4606 47.5332 17.6219 47.3719C17.7832 47.2106 18.0019 47.12 18.23 47.12" fill="#021526"/>
<path d="M21.91 47.12C22.0801 47.12 22.2464 47.1704 22.3878 47.2649C22.5292 47.3594 22.6394 47.4938 22.7045 47.6509C22.7696 47.808 22.7866 47.981 22.7535 48.1478C22.7203 48.3146 22.6384 48.4679 22.5181 48.5881C22.3978 48.7084 22.2446 48.7903 22.0778 48.8235C21.9109 48.8567 21.738 48.8396 21.5809 48.7745C21.4237 48.7095 21.2894 48.5992 21.1949 48.4578C21.1004 48.3164 21.05 48.1501 21.05 47.98C21.05 47.7519 21.1406 47.5332 21.3019 47.3719C21.4632 47.2106 21.6819 47.12 21.91 47.12" fill="#021526"/>
<path d="M25.59 47.12C25.7597 47.122 25.9249 47.1741 26.065 47.2698C26.2051 47.3655 26.3138 47.5005 26.3774 47.6578C26.4409 47.8151 26.4565 47.9877 26.4222 48.1538C26.3879 48.32 26.3053 48.4723 26.1846 48.5916C26.0639 48.7109 25.9107 48.7918 25.7441 48.8242C25.5776 48.8565 25.4052 48.8389 25.2486 48.7736C25.0921 48.7082 24.9583 48.598 24.8643 48.4568C24.7702 48.3156 24.72 48.1497 24.72 47.98C24.7186 47.8659 24.7403 47.7526 24.7836 47.647C24.827 47.5413 24.8912 47.4455 24.9724 47.3653C25.0536 47.285 25.1501 47.2219 25.2562 47.1798C25.3623 47.1377 25.4759 47.1173 25.59 47.12" fill="#021526"/>
<path d="M29.27 47.12C29.4396 47.122 29.6049 47.1741 29.745 47.2698C29.8851 47.3655 29.9938 47.5005 30.0574 47.6578C30.1209 47.8151 30.1365 47.9877 30.1022 48.1538C30.0679 48.32 29.9852 48.4723 29.8646 48.5916C29.7439 48.7108 29.5907 48.7918 29.4241 48.8241C29.2576 48.8565 29.0852 48.8389 28.9286 48.7735C28.7721 48.7082 28.6383 48.5979 28.5443 48.4567C28.4502 48.3155 28.4 48.1497 28.4 47.98C28.4 47.8662 28.4226 47.7536 28.4664 47.6486C28.5102 47.5436 28.5745 47.4483 28.6554 47.3683C28.7363 47.2883 28.8323 47.2252 28.9378 47.1826C29.0433 47.14 29.1562 47.1187 29.27 47.12" fill="#021526"/>
<path d="M32.94 47.12C33.1101 47.12 33.2763 47.1704 33.4178 47.2649C33.5592 47.3594 33.6694 47.4938 33.7345 47.6509C33.7996 47.808 33.8166 47.981 33.7835 48.1478C33.7503 48.3146 33.6684 48.4679 33.5481 48.5881C33.4278 48.7084 33.2746 48.7903 33.1078 48.8235C32.9409 48.8567 32.768 48.8396 32.6109 48.7745C32.4537 48.7095 32.3194 48.5992 32.2249 48.4578C32.1304 48.3164 32.08 48.1501 32.08 47.98C32.08 47.7519 32.1706 47.5332 32.3319 47.3719C32.4932 47.2106 32.7119 47.12 32.94 47.12" fill="#021526"/>
<path d="M36.62 47.12C36.7901 47.12 36.9563 47.1704 37.0978 47.2649C37.2392 47.3594 37.3494 47.4938 37.4145 47.6509C37.4796 47.808 37.4966 47.981 37.4635 48.1478C37.4303 48.3146 37.3484 48.4679 37.2281 48.5881C37.1078 48.7084 36.9546 48.7903 36.7878 48.8235C36.6209 48.8567 36.448 48.8396 36.2909 48.7745C36.1337 48.7095 35.9994 48.5992 35.9049 48.4578C35.8104 48.3164 35.76 48.1501 35.76 47.98C35.76 47.7519 35.8506 47.5332 36.0119 47.3719C36.1731 47.2106 36.3919 47.12 36.62 47.12" fill="#021526"/>
<path d="M40.3 47.12C40.4701 47.12 40.6364 47.1704 40.7778 47.2649C40.9192 47.3594 41.0294 47.4938 41.0945 47.6509C41.1596 47.808 41.1767 47.981 41.1435 48.1478C41.1103 48.3146 41.0284 48.4679 40.9081 48.5881C40.7878 48.7084 40.6346 48.7903 40.4678 48.8235C40.301 48.8567 40.128 48.8396 39.9709 48.7745C39.8138 48.7095 39.6794 48.5992 39.5849 48.4578C39.4904 48.3164 39.44 48.1501 39.44 47.98C39.44 47.7519 39.5306 47.5332 39.6919 47.3719C39.8532 47.2106 40.0719 47.12 40.3 47.12Z" fill="#021526"/>
<path d="M44 47.12C44.1701 47.12 44.3363 47.1704 44.4778 47.2649C44.6192 47.3594 44.7294 47.4938 44.7945 47.6509C44.8596 47.808 44.8766 47.981 44.8435 48.1478C44.8103 48.3146 44.7284 48.4679 44.6081 48.5881C44.4878 48.7084 44.3346 48.7903 44.1678 48.8235C44.0009 48.8567 43.828 48.8396 43.6709 48.7745C43.5137 48.7095 43.3794 48.5992 43.2849 48.4578C43.1904 48.3164 43.14 48.1501 43.14 47.98C43.14 47.7519 43.2306 47.5332 43.3919 47.3719C43.5532 47.2106 43.7719 47.12 44 47.12" fill="#021526"/>
<path d="M47.66 47.12C47.8296 47.122 47.9949 47.1741 48.135 47.2698C48.2751 47.3655 48.3838 47.5005 48.4474 47.6578C48.5109 47.8151 48.5265 47.9877 48.4922 48.1538C48.4579 48.32 48.3752 48.4723 48.2546 48.5916C48.1339 48.7109 47.9807 48.7918 47.8141 48.8242C47.6476 48.8565 47.4752 48.8389 47.3186 48.7736C47.162 48.7082 47.0283 48.598 46.9342 48.4568C46.8402 48.3156 46.79 48.1497 46.79 47.98C46.7886 47.8659 46.8102 47.7526 46.8536 47.647C46.897 47.5413 46.9612 47.4455 47.0424 47.3653C47.1236 47.285 47.2201 47.2219 47.3262 47.1798C47.4323 47.1377 47.5458 47.1173 47.66 47.12" fill="#021526"/>
<path d="M40 13.13H15C14.504 13.13 14.0284 13.327 13.6777 13.6777C13.327 14.0284 13.13 14.504 13.13 15V25.35C13.1174 25.4633 13.1288 25.5779 13.1634 25.6864C13.1981 25.795 13.2553 25.895 13.3313 25.9799C13.4073 26.0648 13.5003 26.1328 13.6044 26.1793C13.7084 26.2258 13.821 26.2499 13.935 26.2499C14.049 26.2499 14.1616 26.2258 14.2656 26.1793C14.3697 26.1328 14.4627 26.0648 14.5387 25.9799C14.6147 25.895 14.6719 25.795 14.7066 25.6864C14.7412 25.5779 14.7526 25.4633 14.74 25.35V15C14.7386 14.9655 14.7443 14.931 14.7569 14.8989C14.7695 14.8667 14.7886 14.8375 14.813 14.813C14.8374 14.7886 14.8667 14.7695 14.8989 14.7569C14.931 14.7444 14.9655 14.7386 15 14.74H40C40.0345 14.7386 40.069 14.7444 40.1011 14.7569C40.1333 14.7695 40.1626 14.7886 40.187 14.813C40.2114 14.8375 40.2305 14.8667 40.2431 14.8989C40.2557 14.931 40.2614 14.9655 40.26 15V25.35C40.2474 25.4633 40.2588 25.5779 40.2934 25.6864C40.3281 25.795 40.3853 25.895 40.4613 25.9799C40.5373 26.0648 40.6303 26.1328 40.7344 26.1793C40.8384 26.2258 40.951 26.2499 41.065 26.2499C41.179 26.2499 41.2916 26.2258 41.3956 26.1793C41.4997 26.1328 41.5927 26.0648 41.6687 25.9799C41.7447 25.895 41.8019 25.795 41.8366 25.6864C41.8712 25.5779 41.8826 25.4633 41.87 25.35V15C41.87 14.504 41.673 14.0284 41.3223 13.6777C40.9716 13.327 40.496 13.13 40 13.13" fill="#021526"/>
<path d="M41.07 28.84C40.9636 28.84 40.8583 28.861 40.76 28.9017C40.6618 28.9424 40.5725 29.002 40.4972 29.0773C40.422 29.1525 40.3624 29.2418 40.3217 29.34C40.281 29.4383 40.26 29.5436 40.26 29.65V34.57C40.2583 34.7656 40.1792 34.9526 40.04 35.09L35.04 40.09C34.9718 40.158 34.8906 40.2116 34.8013 40.2477C34.712 40.2838 34.6163 40.3016 34.52 40.3H15C14.9655 40.3014 14.931 40.2957 14.8989 40.2831C14.8667 40.2705 14.8374 40.2514 14.813 40.227C14.7886 40.2026 14.7695 40.1733 14.7569 40.1412C14.7443 40.109 14.7386 40.0745 14.74 40.04V29.65C14.7526 29.5368 14.7412 29.4221 14.7066 29.3136C14.6719 29.205 14.6147 29.105 14.5387 29.0201C14.4627 28.9352 14.3697 28.8672 14.2656 28.8207C14.1616 28.7742 14.049 28.7502 13.935 28.7502C13.821 28.7502 13.7084 28.7742 13.6044 28.8207C13.5003 28.8672 13.4073 28.9352 13.3313 29.0201C13.2553 29.105 13.1981 29.205 13.1634 29.3136C13.1288 29.4221 13.1174 29.5368 13.13 29.65V40C13.13 40.496 13.327 40.9716 13.6777 41.3223C14.0284 41.673 14.504 41.87 15 41.87H34.52C34.8264 41.8718 35.13 41.8125 35.4133 41.6958C35.6966 41.579 35.9538 41.4071 36.17 41.19L41.17 36.19C41.61 35.7494 41.858 35.1527 41.86 34.53V29.65C41.8613 29.5441 41.8416 29.439 41.802 29.3408C41.7624 29.2426 41.7037 29.1532 41.6292 29.0779C41.5548 29.0025 41.4662 28.9427 41.3685 28.9019C41.2708 28.861 41.1659 28.84 41.06 28.84" fill="#021526"/>
<path d="M50.26 8.70001V15V21.26V27.5V33.77V40V46.3V48.69C50.2613 48.897 50.2217 49.1023 50.1434 49.2939C50.0651 49.4855 49.9496 49.6598 49.8037 49.8066C49.6578 49.9535 49.4843 50.07 49.2931 50.1496C49.102 50.2291 48.897 50.27 48.69 50.27H6.30999C5.89095 50.27 5.48907 50.1035 5.19276 49.8072C4.89645 49.5109 4.72999 49.1091 4.72999 48.69V6.31001C4.72999 6.10299 4.77092 5.89802 4.85045 5.70688C4.92997 5.51574 5.04651 5.34222 5.19336 5.1963C5.34021 5.05038 5.51447 4.93495 5.70611 4.85664C5.89774 4.77833 6.10298 4.73869 6.30999 4.74001H48.69C49.1064 4.74001 49.5057 4.90542 49.8001 5.19985C50.0946 5.49429 50.26 5.89362 50.26 6.31001V8.70001ZM54.19 15.77C54.3032 15.7827 54.4179 15.7713 54.5264 15.7366C54.635 15.7019 54.735 15.6447 54.8199 15.5687C54.9048 15.4927 54.9728 15.3997 55.0193 15.2957C55.0658 15.1916 55.0899 15.079 55.0899 14.965C55.0899 14.8511 55.0658 14.7384 55.0193 14.6344C54.9728 14.5303 54.9048 14.4373 54.8199 14.3613C54.735 14.2853 54.635 14.2281 54.5264 14.1935C54.4179 14.1588 54.3032 14.1474 54.19 14.16H51.88V9.50001H54.19C54.3032 9.51265 54.4179 9.50126 54.5264 9.46657C54.635 9.43188 54.735 9.37468 54.8199 9.2987C54.9048 9.22273 54.9728 9.12969 55.0193 9.02566C55.0658 8.92163 55.0899 8.80896 55.0899 8.69501C55.0899 8.58106 55.0658 8.46839 55.0193 8.36436C54.9728 8.26034 54.9048 8.16729 54.8199 8.09132C54.735 8.01534 54.635 7.95814 54.5264 7.92345C54.4179 7.88876 54.3032 7.87737 54.19 7.89001H51.88V6.31001C51.88 5.46397 51.5439 4.65258 50.9457 4.05434C50.3474 3.4561 49.536 3.12001 48.69 3.12001H47.11V0.810011C47.1226 0.696762 47.1112 0.582119 47.0765 0.473575C47.0419 0.36503 46.9847 0.265026 46.9087 0.180098C46.8327 0.0951689 46.7397 0.0272265 46.6356 -0.01929C46.5316 -0.0658065 46.4189 -0.0898503 46.305 -0.0898503C46.191 -0.0898503 46.0784 -0.0658065 45.9743 -0.01929C45.8703 0.0272265 45.7773 0.0951689 45.7013 0.180098C45.6253 0.265026 45.5681 0.36503 45.5334 0.473575C45.4987 0.582119 45.4873 0.696762 45.5 0.810011V3.12001H40.84V0.810011C40.8526 0.696762 40.8412 0.582119 40.8065 0.473575C40.7719 0.36503 40.7147 0.265026 40.6387 0.180098C40.5627 0.0951689 40.4697 0.0272265 40.3656 -0.01929C40.2616 -0.0658065 40.1489 -0.0898503 40.035 -0.0898503C39.921 -0.0898503 39.8084 -0.0658065 39.7043 -0.01929C39.6003 0.0272265 39.5073 0.0951689 39.4313 0.180098C39.3553 0.265026 39.2981 0.36503 39.2634 0.473575C39.2287 0.582119 39.2173 0.696762 39.23 0.810011V3.12001H34.57V0.810011C34.6004 0.690443 34.6031 0.565508 34.5779 0.444738C34.5527 0.323968 34.5002 0.210556 34.4245 0.113155C34.3487 0.0157537 34.2518 -0.0630618 34.1409 -0.117278C34.0301 -0.171493 33.9084 -0.199677 33.785 -0.199677C33.6616 -0.199677 33.5399 -0.171493 33.429 -0.117278C33.3182 -0.0630618 33.2212 0.0157537 33.1455 0.113155C33.0698 0.210556 33.0173 0.323968 32.9921 0.444738C32.9669 0.565508 32.9696 0.690443 33 0.810011V3.12001H28.3V0.810011C28.3126 0.696762 28.3012 0.582119 28.2665 0.473575C28.2319 0.36503 28.1747 0.265026 28.0987 0.180098C28.0227 0.0951689 27.9297 0.0272265 27.8256 -0.01929C27.7216 -0.0658065 27.6089 -0.0898503 27.495 -0.0898503C27.381 -0.0898503 27.2684 -0.0658065 27.1643 -0.01929C27.0603 0.0272265 26.9673 0.0951689 26.8913 0.180098C26.8153 0.265026 26.7581 0.36503 26.7234 0.473575C26.6887 0.582119 26.6773 0.696762 26.69 0.810011V3.12001H22V0.810011C22.0126 0.696762 22.0012 0.582119 21.9665 0.473575C21.9319 0.36503 21.8747 0.265026 21.7987 0.180098C21.7227 0.0951689 21.6297 0.0272265 21.5256 -0.01929C21.4216 -0.0658065 21.3089 -0.0898503 21.195 -0.0898503C21.081 -0.0898503 20.9684 -0.0658065 20.8643 -0.01929C20.7603 0.0272265 20.6673 0.0951689 20.5913 0.180098C20.5153 0.265026 20.4581 0.36503 20.4234 0.473575C20.3887 0.582119 20.3773 0.696762 20.39 0.810011V3.12001H15.77V0.810011C15.7826 0.696762 15.7712 0.582119 15.7365 0.473575C15.7019 0.36503 15.6447 0.265026 15.5687 0.180098C15.4927 0.0951689 15.3997 0.0272265 15.2956 -0.01929C15.1916 -0.0658065 15.0789 -0.0898503 14.965 -0.0898503C14.851 -0.0898503 14.7384 -0.0658065 14.6343 -0.01929C14.5303 0.0272265 14.4373 0.0951689 14.3613 0.180098C14.2853 0.265026 14.2281 0.36503 14.1934 0.473575C14.1587 0.582119 14.1473 0.696762 14.16 0.810011V3.12001H9.49999V0.810011C9.51263 0.696762 9.50124 0.582119 9.46655 0.473575C9.43186 0.36503 9.37466 0.265026 9.29868 0.180098C9.22271 0.0951689 9.12967 0.0272265 9.02564 -0.01929C8.92161 -0.0658065 8.80894 -0.0898503 8.69499 -0.0898503C8.58104 -0.0898503 8.46837 -0.0658065 8.36434 -0.01929C8.26032 0.0272265 8.16727 0.0951689 8.0913 0.180098C8.01532 0.265026 7.95812 0.36503 7.92343 0.473575C7.88874 0.582119 7.87735 0.696762 7.88999 0.810011V3.12001H6.30999C5.46395 3.12001 4.65256 3.4561 4.05432 4.05434C3.45608 4.65258 3.11999 5.46397 3.11999 6.31001V7.89001H0.79999C0.601954 7.91212 0.419016 8.00645 0.286159 8.15496C0.153303 8.30347 0.0798512 8.49574 0.0798512 8.69501C0.0798512 8.89428 0.153303 9.08655 0.286159 9.23506C0.419016 9.38358 0.601954 9.4779 0.79999 9.50001H3.11999V14.16H0.79999C0.601954 14.1821 0.419016 14.2764 0.286159 14.425C0.153303 14.5735 0.0798512 14.7657 0.0798512 14.965C0.0798512 15.1643 0.153303 15.3566 0.286159 15.5051C0.419016 15.6536 0.601954 15.7479 0.79999 15.77H3.11999V20.43H0.79999C0.625477 20.4744 0.470732 20.5757 0.360206 20.7178C0.249681 20.86 0.189677 21.0349 0.189677 21.215C0.189677 21.3951 0.249681 21.57 0.360206 21.7122C0.470732 21.8543 0.625477 21.9556 0.79999 22H3.11999V26.65H0.79999C0.585165 26.65 0.379138 26.7354 0.227234 26.8873C0.0753293 27.0392 -0.0100098 27.2452 -0.0100098 27.46C-0.0100098 27.6748 0.0753293 27.8809 0.227234 28.0328C0.379138 28.1847 0.585165 28.27 0.79999 28.27H3.11999V33H0.79999C0.601954 33.0221 0.419016 33.1164 0.286159 33.265C0.153303 33.4135 0.0798512 33.6057 0.0798512 33.805C0.0798512 34.0043 0.153303 34.1965 0.286159 34.3451C0.419016 34.4936 0.601954 34.5879 0.79999 34.61H3.11999V39.27H0.79999C0.601954 39.2921 0.419016 39.3864 0.286159 39.535C0.153303 39.6835 0.0798512 39.8757 0.0798512 40.075C0.0798512 40.2743 0.153303 40.4666 0.286159 40.6151C0.419016 40.7636 0.601954 40.8579 0.79999 40.88H3.11999V45.5H0.79999C0.601954 45.5221 0.419016 45.6164 0.286159 45.765C0.153303 45.9135 0.0798512 46.1057 0.0798512 46.305C0.0798512 46.5043 0.153303 46.6965 0.286159 46.8451C0.419016 46.9936 0.601954 47.0879 0.79999 47.11H3.11999V48.69C3.11999 49.5361 3.45608 50.3474 4.05432 50.9457C4.65256 51.5439 5.46395 51.88 6.30999 51.88H7.88999V54.19C7.87735 54.3033 7.88874 54.4179 7.92343 54.5264C7.95812 54.635 8.01532 54.735 8.0913 54.8199C8.16727 54.9049 8.26032 54.9728 8.36434 55.0193C8.46837 55.0658 8.58104 55.0899 8.69499 55.0899C8.80894 55.0899 8.92161 55.0658 9.02564 55.0193C9.12967 54.9728 9.22271 54.9049 9.29868 54.8199C9.37466 54.735 9.43186 54.635 9.46655 54.5264C9.50124 54.4179 9.51263 54.3033 9.49999 54.19V51.88H14.16V54.19C14.1473 54.3033 14.1587 54.4179 14.1934 54.5264C14.2281 54.635 14.2853 54.735 14.3613 54.8199C14.4373 54.9049 14.5303 54.9728 14.6343 55.0193C14.7384 55.0658 14.851 55.0899 14.965 55.0899C15.0789 55.0899 15.1916 55.0658 15.2956 55.0193C15.3997 54.9728 15.4927 54.9049 15.5687 54.8199C15.6447 54.735 15.7019 54.635 15.7365 54.5264C15.7712 54.4179 15.7826 54.3033 15.77 54.19V51.88H20.43V54.19C20.4173 54.3033 20.4287 54.4179 20.4634 54.5264C20.4981 54.635 20.5553 54.735 20.6313 54.8199C20.7073 54.9049 20.8003 54.9728 20.9043 55.0193C21.0084 55.0658 21.121 55.0899 21.235 55.0899C21.3489 55.0899 21.4616 55.0658 21.5656 55.0193C21.6697 54.9728 21.7627 54.9049 21.8387 54.8199C21.9147 54.735 21.9719 54.635 22.0065 54.5264C22.0412 54.4179 22.0526 54.3033 22.04 54.19V51.88H26.69V54.19C26.6773 54.3033 26.6887 54.4179 26.7234 54.5264C26.7581 54.635 26.8153 54.735 26.8913 54.8199C26.9673 54.9049 27.0603 54.9728 27.1643 55.0193C27.2684 55.0658 27.381 55.0899 27.495 55.0899C27.6089 55.0899 27.7216 55.0658 27.8256 55.0193C27.9297 54.9728 28.0227 54.9049 28.0987 54.8199C28.1747 54.735 28.2319 54.635 28.2665 54.5264C28.3012 54.4179 28.3126 54.3033 28.3 54.19V51.88H33V54.19C32.9873 54.3033 32.9987 54.4179 33.0334 54.5264C33.0681 54.635 33.1253 54.735 33.2013 54.8199C33.2773 54.9049 33.3703 54.9728 33.4743 55.0193C33.5784 55.0658 33.691 55.0899 33.805 55.0899C33.9189 55.0899 34.0316 55.0658 34.1356 55.0193C34.2397 54.9728 34.3327 54.9049 34.4087 54.8199C34.4847 54.735 34.5419 54.635 34.5765 54.5264C34.6112 54.4179 34.6226 54.3033 34.61 54.19V51.88H39.27V54.19C39.2573 54.3033 39.2687 54.4179 39.3034 54.5264C39.3381 54.635 39.3953 54.735 39.4713 54.8199C39.5473 54.9049 39.6403 54.9728 39.7443 55.0193C39.8484 55.0658 39.961 55.0899 40.075 55.0899C40.1889 55.0899 40.3016 55.0658 40.4056 55.0193C40.5097 54.9728 40.6027 54.9049 40.6787 54.8199C40.7547 54.735 40.8119 54.635 40.8465 54.5264C40.8812 54.4179 40.8926 54.3033 40.88 54.19V51.88H45.5V54.19C45.4873 54.3033 45.4987 54.4179 45.5334 54.5264C45.5681 54.635 45.6253 54.735 45.7013 54.8199C45.7773 54.9049 45.8703 54.9728 45.9743 55.0193C46.0784 55.0658 46.191 55.0899 46.305 55.0899C46.4189 55.0899 46.5316 55.0658 46.6356 55.0193C46.7397 54.9728 46.8327 54.9049 46.9087 54.8199C46.9847 54.735 47.0419 54.635 47.0765 54.5264C47.1112 54.4179 47.1226 54.3033 47.11 54.19V51.88H48.69C49.536 51.88 50.3474 51.5439 50.9457 50.9457C51.5439 50.3474 51.88 49.5361 51.88 48.69V47.11H54.19C54.3032 47.1227 54.4179 47.1113 54.5264 47.0766C54.635 47.0419 54.735 46.9847 54.8199 46.9087C54.9048 46.8327 54.9728 46.7397 55.0193 46.6357C55.0658 46.5316 55.0899 46.419 55.0899 46.305C55.0899 46.1911 55.0658 46.0784 55.0193 45.9744C54.9728 45.8703 54.9048 45.7773 54.8199 45.7013C54.735 45.6253 54.635 45.5681 54.5264 45.5335C54.4179 45.4988 54.3032 45.4874 54.19 45.5H51.88V40.84H54.19C54.3032 40.8527 54.4179 40.8413 54.5264 40.8066C54.635 40.7719 54.735 40.7147 54.8199 40.6387C54.9048 40.5627 54.9728 40.4697 55.0193 40.3657C55.0658 40.2616 55.0899 40.149 55.0899 40.035C55.0899 39.9211 55.0658 39.8084 55.0193 39.7044C54.9728 39.6003 54.9048 39.5073 54.8199 39.4313C54.735 39.3553 54.635 39.2981 54.5264 39.2635C54.4179 39.2288 54.3032 39.2174 54.19 39.23H51.88V34.57H54.19C54.3032 34.5827 54.4179 34.5713 54.5264 34.5366C54.635 34.5019 54.735 34.4447 54.8199 34.3687C54.9048 34.2927 54.9728 34.1997 55.0193 34.0957C55.0658 33.9916 55.0899 33.879 55.0899 33.765C55.0899 33.6511 55.0658 33.5384 55.0193 33.4344C54.9728 33.3303 54.9048 33.2373 54.8199 33.1613C54.735 33.0853 54.635 33.0281 54.5264 32.9935C54.4179 32.9588 54.3032 32.9474 54.19 32.96H51.88V28.31H54.19C54.4048 28.31 54.6108 28.2247 54.7627 28.0728C54.9146 27.9209 55 27.7148 55 27.5C55 27.2852 54.9146 27.0792 54.7627 26.9273C54.6108 26.7754 54.4048 26.69 54.19 26.69H51.88V22H54.19C54.3032 22.0127 54.4179 22.0013 54.5264 21.9666C54.635 21.9319 54.735 21.8747 54.8199 21.7987C54.9048 21.7227 54.9728 21.6297 55.0193 21.5257C55.0658 21.4216 55.0899 21.309 55.0899 21.195C55.0899 21.0811 55.0658 20.9684 55.0193 20.8644C54.9728 20.7603 54.9048 20.6673 54.8199 20.5913C54.735 20.5153 54.635 20.4581 54.5264 20.4235C54.4179 20.3888 54.3032 20.3774 54.19 20.39H51.88V15.77H54.19Z" fill="#021526"/>
</g>
<defs>
<clipPath id="clip0_117_2">
<rect width="55" height="55" fill="white"/>
</clipPath>
</defs>
</svg>
