<svg xmlns="http://www.w3.org/2000/svg" xmlns:xlink="http://www.w3.org/1999/xlink" viewBox="0 0 45.27 45.26"><defs><style>.cls-1{fill:none;}.cls-2{clip-path:url(#clip-path);}.cls-3{isolation:isolate;}.cls-4{clip-path:url(#clip-path-2);}.cls-5{fill:#021526;}.cls-6{fill:#fff;}</style><clipPath id="clip-path"><rect class="cls-1" width="45.27" height="45.26"/></clipPath><clipPath id="clip-path-2"><rect class="cls-1" x="-33831.39" y="-32611.36" width="65535" height="65535"/></clipPath></defs><g id="Слой_2" data-name="Слой 2"><g id="Слой_1-2" data-name="Слой 1"><g class="cls-2"><g class="cls-3"><g class="cls-4"><path class="cls-5" d="M18.65,23.15c-.33,0-.6.09-.62.36a.87.87,0,0,1-1,.95.91.91,0,0,1-1-1V21a.91.91,0,0,1,1-1c.91,0,1,.6,1,.88s.27.36.63.36.63-.11.63-.57c0-1-1-1.68-2.3-1.68s-2.23.55-2.23,2v2.47c0,1.48,1,2,2.22,2s2.31-.68,2.31-1.75c0-.46-.21-.57-.64-.57"/><path class="cls-5" d="M23.49,21.08a.91.91,0,0,1-1,1H21.39V20h1.08a.92.92,0,0,1,1,1Zm-.94-2.14H20.61c-.29,0-.47.17-.47.35v5.76c0,.24.3.37.62.37s.63-.13.63-.37V23h1.08c1.28,0,2.27-.56,2.27-2v-.06c0-1.45-1-2-2.19-2"/><path class="cls-5" d="M29.5,18.94c-.32,0-.63.11-.63.35v4.15a1.07,1.07,0,0,1-2.13,0V19.29c0-.24-.32-.35-.63-.35s-.62.11-.62.35v4.15c0,1.48,1,2,2.31,2s2.32-.55,2.32-2V19.29c0-.24-.32-.35-.62-.35"/><path class="cls-5" d="M5.92,4.91a.72.72,0,1,1-.71.72.72.72,0,0,1,.71-.72"/><path class="cls-5" d="M9,4.91a.72.72,0,1,1-.71.72A.71.71,0,0,1,9,4.91"/><path class="cls-5" d="M12,4.91a.72.72,0,1,1-.71.72A.71.71,0,0,1,12,4.91"/><path class="cls-5" d="M15,4.91a.72.72,0,1,1-.72.72A.71.71,0,0,1,15,4.91"/><path class="cls-5" d="M18,4.91a.72.72,0,1,1-.71.72A.71.71,0,0,1,18,4.91"/><path class="cls-5" d="M21.06,4.91a.72.72,0,1,1-.71.72.71.71,0,0,1,.71-.72"/><path class="cls-5" d="M24.09,4.91a.72.72,0,1,1-.72.72.71.71,0,0,1,.72-.72"/><path class="cls-5" d="M27.11,4.91a.72.72,0,1,1-.71.72.72.72,0,0,1,.71-.72"/><path class="cls-5" d="M30.14,4.91a.72.72,0,1,1-.71.72.71.71,0,0,1,.71-.72"/><path class="cls-5" d="M33.17,4.91a.72.72,0,1,1-.71.72.71.71,0,0,1,.71-.72"/><path class="cls-5" d="M36.2,4.91a.72.72,0,1,1-.72.72.71.71,0,0,1,.72-.72"/><path class="cls-5" d="M39.22,4.91a.72.72,0,1,1-.71.72.72.72,0,0,1,.71-.72"/><path class="cls-5" d="M5.92,8a.71.71,0,1,1,0,1.42A.71.71,0,0,1,5.92,8"/><path class="cls-5" d="M9,8a.71.71,0,1,1-.71.71A.71.71,0,0,1,9,8"/><path class="cls-5" d="M12,8a.71.71,0,1,1-.71.71A.71.71,0,0,1,12,8"/><path class="cls-5" d="M15,8a.71.71,0,1,1-.72.71A.71.71,0,0,1,15,8"/><path class="cls-5" d="M18,8a.71.71,0,1,1-.71.71A.71.71,0,0,1,18,8"/><path class="cls-5" d="M21.06,8a.71.71,0,1,1-.71.71A.71.71,0,0,1,21.06,8"/><path class="cls-5" d="M24.09,8a.71.71,0,1,1-.72.71A.71.71,0,0,1,24.09,8"/><path class="cls-5" d="M27.11,8a.71.71,0,1,1,0,1.42.71.71,0,1,1,0-1.42"/><path class="cls-5" d="M30.14,8a.71.71,0,1,1-.71.71A.71.71,0,0,1,30.14,8"/><path class="cls-5" d="M33.17,8a.71.71,0,1,1-.71.71A.71.71,0,0,1,33.17,8"/><path class="cls-5" d="M36.2,8a.71.71,0,1,1-.72.71A.71.71,0,0,1,36.2,8"/><path class="cls-5" d="M39.22,8a.71.71,0,1,1,0,1.42.71.71,0,1,1,0-1.42"/><path class="cls-5" d="M5.92,11.07a.72.72,0,1,1-.71.72.72.72,0,0,1,.71-.72"/><path class="cls-5" d="M9,11.07a.72.72,0,1,1-.71.72A.71.71,0,0,1,9,11.07"/><path class="cls-5" d="M36.2,11.07a.72.72,0,1,1-.72.72.71.71,0,0,1,.72-.72"/><path class="cls-5" d="M39.22,11.07a.72.72,0,1,1-.71.72.72.72,0,0,1,.71-.72"/><path class="cls-5" d="M5.92,14.14a.71.71,0,1,1-.71.71.71.71,0,0,1,.71-.71"/><path class="cls-5" d="M9,14.14a.71.71,0,1,1-.71.71A.71.71,0,0,1,9,14.14"/><path class="cls-5" d="M36.2,14.14a.71.71,0,1,1-.72.71.71.71,0,0,1,.72-.71"/><path class="cls-5" d="M39.22,14.14a.71.71,0,1,1-.71.71.71.71,0,0,1,.71-.71"/><path class="cls-5" d="M5.92,17.23a.72.72,0,1,1-.71.71.71.71,0,0,1,.71-.71"/><path class="cls-5" d="M9,17.23a.72.72,0,1,1-.71.71A.71.71,0,0,1,9,17.23"/><path class="cls-5" d="M36.2,17.23a.72.72,0,1,1-.72.71.71.71,0,0,1,.72-.71"/><path class="cls-5" d="M39.22,17.23a.72.72,0,1,1-.71.71.71.71,0,0,1,.71-.71"/><path class="cls-5" d="M5.92,20.3a.71.71,0,1,1-.71.71.71.71,0,0,1,.71-.71"/><path class="cls-5" d="M9,20.3a.71.71,0,1,1-.71.71A.71.71,0,0,1,9,20.3"/><path class="cls-5" d="M36.2,20.3a.71.71,0,1,1-.72.71.71.71,0,0,1,.72-.71"/><path class="cls-5" d="M39.22,20.3a.71.71,0,1,1-.71.71.71.71,0,0,1,.71-.71"/><path class="cls-5" d="M5.92,23.39a.72.72,0,1,1-.71.71.71.71,0,0,1,.71-.71"/><path class="cls-5" d="M9,23.39a.72.72,0,1,1-.71.71A.71.71,0,0,1,9,23.39"/><path class="cls-5" d="M36.2,23.39a.72.72,0,1,1-.72.71.71.71,0,0,1,.72-.71"/><path class="cls-5" d="M39.22,23.39a.72.72,0,1,1-.71.71.71.71,0,0,1,.71-.71"/><path class="cls-5" d="M5.92,26.46a.71.71,0,1,1-.71.71.71.71,0,0,1,.71-.71"/><path class="cls-5" d="M9,26.46a.71.71,0,1,1-.71.71A.71.71,0,0,1,9,26.46"/><path class="cls-5" d="M36.2,26.46a.71.71,0,1,1-.72.71.71.71,0,0,1,.72-.71"/><path class="cls-5" d="M39.22,26.46a.71.71,0,1,1-.71.71.71.71,0,0,1,.71-.71"/><path class="cls-5" d="M5.92,29.55a.71.71,0,1,1,0,1.42.71.71,0,1,1,0-1.42"/><path class="cls-5" d="M9,29.55a.71.71,0,1,1-.71.71A.71.71,0,0,1,9,29.55"/><path class="cls-5" d="M36.2,29.55a.71.71,0,1,1-.72.71.71.71,0,0,1,.72-.71"/><path class="cls-5" d="M39.22,29.55a.71.71,0,1,1,0,1.42.71.71,0,0,1,0-1.42"/><path class="cls-5" d="M5.92,32.62a.71.71,0,1,1-.71.71.71.71,0,0,1,.71-.71"/><path class="cls-5" d="M9,32.62a.71.71,0,1,1-.71.71A.71.71,0,0,1,9,32.62"/><path class="cls-5" d="M36.2,32.62a.71.71,0,1,1-.72.71.71.71,0,0,1,.72-.71"/><path class="cls-5" d="M39.22,32.62a.71.71,0,1,1-.71.71.71.71,0,0,1,.71-.71"/><path class="cls-5" d="M5.92,35.71a.71.71,0,1,1,0,1.42.71.71,0,1,1,0-1.42"/><path class="cls-5" d="M9,35.71a.71.71,0,1,1-.71.71A.71.71,0,0,1,9,35.71"/><path class="cls-5" d="M12,35.71a.71.71,0,1,1-.71.71.71.71,0,0,1,.71-.71"/><path class="cls-5" d="M15,35.71a.71.71,0,1,1-.72.71.71.71,0,0,1,.72-.71"/><path class="cls-5" d="M18,35.71a.71.71,0,1,1-.71.71.71.71,0,0,1,.71-.71"/><path class="cls-5" d="M21.06,35.71a.71.71,0,1,1-.71.71.71.71,0,0,1,.71-.71"/><path class="cls-5" d="M24.09,35.71a.71.71,0,1,1-.72.71.71.71,0,0,1,.72-.71"/><path class="cls-5" d="M27.11,35.71a.71.71,0,1,1,0,1.42.71.71,0,0,1,0-1.42"/><path class="cls-5" d="M30.14,35.71a.71.71,0,1,1-.71.71.71.71,0,0,1,.71-.71"/><path class="cls-5" d="M33.17,35.71a.71.71,0,1,1-.71.71.71.71,0,0,1,.71-.71"/><path class="cls-5" d="M36.2,35.71a.71.71,0,1,1-.72.71.71.71,0,0,1,.72-.71"/><path class="cls-5" d="M39.22,35.71a.71.71,0,1,1,0,1.42.71.71,0,0,1,0-1.42"/><path class="cls-5" d="M5.92,38.78a.71.71,0,1,1-.71.71.71.71,0,0,1,.71-.71"/><path class="cls-5" d="M9,38.78a.71.71,0,1,1-.71.71A.71.71,0,0,1,9,38.78"/><path class="cls-5" d="M12,38.78a.71.71,0,1,1-.71.71.71.71,0,0,1,.71-.71"/><path class="cls-5" d="M15,38.78a.71.71,0,1,1-.72.71.71.71,0,0,1,.72-.71"/><path class="cls-5" d="M18,38.78a.71.71,0,1,1-.71.71.71.71,0,0,1,.71-.71"/><path class="cls-5" d="M21.06,38.78a.71.71,0,1,1-.71.71.71.71,0,0,1,.71-.71"/><path class="cls-5" d="M24.09,38.78a.71.71,0,1,1-.72.71.71.71,0,0,1,.72-.71"/><path class="cls-5" d="M27.11,38.78a.71.71,0,1,1-.71.71.71.71,0,0,1,.71-.71"/><path class="cls-5" d="M30.14,38.78a.71.71,0,1,1-.71.71.71.71,0,0,1,.71-.71"/><path class="cls-5" d="M33.17,38.78a.71.71,0,1,1-.71.71.71.71,0,0,1,.71-.71"/><path class="cls-5" d="M36.2,38.78a.71.71,0,1,1-.72.71.71.71,0,0,1,.72-.71"/><path class="cls-5" d="M39.22,38.78a.71.71,0,1,1-.71.71.71.71,0,0,1,.71-.71"/><path class="cls-5" d="M32.92,10.8H12.34a1.54,1.54,0,0,0-1.54,1.54v8.52a.67.67,0,1,0,1.33,0V12.34a.21.21,0,0,1,.21-.21H32.92a.21.21,0,0,1,.21.21v8.52a.67.67,0,1,0,1.33,0V12.34a1.54,1.54,0,0,0-1.54-1.54"/><path class="cls-5" d="M33.8,23.74a.67.67,0,0,0-.67.66v4.05a.61.61,0,0,1-.17.43L28.84,33a.64.64,0,0,1-.43.18H12.34a.21.21,0,0,1-.21-.22V24.4a.67.67,0,0,0-1.33,0v8.52a1.54,1.54,0,0,0,1.54,1.54H28.41a1.92,1.92,0,0,0,1.36-.56l4.12-4.08a2,2,0,0,0,.57-1.37V24.4a.67.67,0,0,0-.66-.66"/><path class="cls-5" d="M41.37,7.16h0v5.16h0v5.15h0v5.15h0v5.16h0V33h0v5.16h0v2a1.3,1.3,0,0,1-1.3,1.3H5.19a1.3,1.3,0,0,1-1.29-1.3V5.19A1.29,1.29,0,0,1,5.19,3.9H40.07a1.3,1.3,0,0,1,1.3,1.29ZM44.6,13a.67.67,0,0,0,0-1.33H42.69V7.82H44.6a.66.66,0,1,0,0-1.32H42.69V5.19a2.62,2.62,0,0,0-2.62-2.62h-1.3V.66a.67.67,0,0,0-1.33,0V2.57H33.61V.66a.67.67,0,0,0-1.33,0V2.57H28.45V.66a.66.66,0,1,0-1.32,0V2.57H23.3V.66A.67.67,0,0,0,22,.66V2.57H18.14V.66a.67.67,0,0,0-1.33,0V2.57H13V.66a.67.67,0,0,0-1.33,0V2.57H7.82V.66A.66.66,0,0,0,6.5.66V2.57H5.19A2.63,2.63,0,0,0,2.57,5.19V6.5H.66a.66.66,0,0,0,0,1.32H2.57v3.83H.66A.67.67,0,0,0,.66,13H2.57v3.83H.66a.67.67,0,0,0,0,1.33H2.57V22H.66a.67.67,0,0,0,0,1.33H2.57v3.83H.66a.66.66,0,1,0,0,1.32H2.57v3.84H.66a.66.66,0,1,0,0,1.32H2.57v3.83H.66a.67.67,0,0,0,0,1.33H2.57v1.3a2.62,2.62,0,0,0,2.62,2.62H6.5V44.6a.66.66,0,0,0,1.32,0V42.69h3.83V44.6a.67.67,0,0,0,1.33,0V42.69h3.83V44.6a.67.67,0,0,0,1.33,0V42.69H22V44.6a.67.67,0,0,0,1.33,0V42.69h3.83V44.6a.66.66,0,1,0,1.32,0V42.69h3.83V44.6a.67.67,0,0,0,1.33,0V42.69h3.83V44.6a.67.67,0,0,0,1.33,0V42.69h1.3a2.62,2.62,0,0,0,2.62-2.62v-1.3H44.6a.67.67,0,0,0,0-1.33H42.69V33.61H44.6a.66.66,0,1,0,0-1.32H42.69V28.45H44.6a.66.66,0,0,0,0-1.32H42.69V23.3H44.6a.67.67,0,0,0,0-1.33H42.69V18.14H44.6a.67.67,0,0,0,0-1.33H42.69V13Z"/></g></g></g><rect class="cls-6" x="12.29" y="17.29" width="20.72" height="11.53"/></g></g></svg>