<svg xmlns="http://www.w3.org/2000/svg" xmlns:xlink="http://www.w3.org/1999/xlink" viewBox="0 0 55 55"><defs><style>.cls-1{fill:none;}.cls-2{clip-path:url(#clip-path);}.cls-3{isolation:isolate;}.cls-4{clip-path:url(#clip-path-2);}.cls-5{fill:#021526;}.cls-6{fill:#0c5395;}</style><clipPath id="clip-path"><rect class="cls-1" width="55" height="55"/></clipPath><clipPath id="clip-path-2"><rect class="cls-1" x="-33753.42" y="-32539.96" width="65535" height="65535"/></clipPath></defs><g id="Слой_2" data-name="Слой 2"><g id="Слой_1-2" data-name="Слой 1"><g class="cls-2"><g class="cls-3"><g class="cls-4"><path class="cls-5" d="M22.66,28.13c-.4,0-.73.11-.75.44a1.06,1.06,0,0,1-1.2,1.15,1.11,1.11,0,0,1-1.26-1.24v-3a1.11,1.11,0,0,1,1.24-1.24c1.11,0,1.19.73,1.22,1.07s.33.44.76.44.76-.13.76-.69c0-1.25-1.16-2-2.79-2s-2.71.67-2.71,2.47v3c0,1.8,1.22,2.47,2.7,2.47,1.64,0,2.8-.83,2.8-2.13,0-.55-.24-.69-.77-.69"/><path class="cls-5" d="M28.54,25.61a1.11,1.11,0,0,1-1.23,1.24H26V24.24h1.32a1.11,1.11,0,0,1,1.23,1.24ZM27.4,23H25c-.35,0-.57.21-.57.43v7c0,.29.37.44.76.44s.76-.15.76-.44v-2.5h1.32c1.55,0,2.75-.67,2.75-2.44v-.06c0-1.77-1.17-2.43-2.66-2.43"/><path class="cls-5" d="M35.84,23c-.39,0-.76.13-.76.43v5a1.3,1.3,0,0,1-2.59,0v-5c0-.3-.38-.43-.76-.43s-.76.13-.76.43v5C31,30.28,32.2,31,33.79,31s2.81-.67,2.81-2.47v-5c0-.3-.38-.43-.76-.43"/><path class="cls-5" d="M7.2,6a.87.87,0,1,1-.87.87A.87.87,0,0,1,7.2,6"/><path class="cls-5" d="M10.88,6a.87.87,0,1,1-.87.87A.87.87,0,0,1,10.88,6"/><path class="cls-5" d="M14.55,6a.87.87,0,1,1-.86.87A.87.87,0,0,1,14.55,6"/><path class="cls-5" d="M18.23,6a.87.87,0,1,1,0,1.73.87.87,0,0,1,0-1.73"/><path class="cls-5" d="M21.91,6a.87.87,0,1,1,0,1.73.87.87,0,0,1,0-1.73"/><path class="cls-5" d="M25.59,6a.87.87,0,1,1-.87.87A.86.86,0,0,1,25.59,6"/><path class="cls-5" d="M29.27,6a.87.87,0,1,1-.87.87A.87.87,0,0,1,29.27,6"/><path class="cls-5" d="M32.94,6a.87.87,0,1,1-.86.87A.87.87,0,0,1,32.94,6"/><path class="cls-5" d="M36.62,6a.87.87,0,1,1-.86.87A.87.87,0,0,1,36.62,6"/><path class="cls-5" d="M40.3,6a.87.87,0,1,1,0,1.73A.87.87,0,0,1,40.3,6"/><path class="cls-5" d="M44,6A.87.87,0,1,1,44,7.7.87.87,0,0,1,44,6"/><path class="cls-5" d="M47.66,6a.87.87,0,1,1-.87.87A.86.86,0,0,1,47.66,6"/><path class="cls-5" d="M7.2,9.7a.87.87,0,0,1,0,1.73.87.87,0,1,1,0-1.73"/><path class="cls-5" d="M10.88,9.7a.87.87,0,0,1,0,1.73.87.87,0,1,1,0-1.73"/><path class="cls-5" d="M14.55,9.7a.87.87,0,1,1-.86.86.86.86,0,0,1,.86-.86"/><path class="cls-5" d="M18.23,9.7a.87.87,0,1,1-.86.86.86.86,0,0,1,.86-.86"/><path class="cls-5" d="M21.91,9.7a.87.87,0,1,1-.86.86.86.86,0,0,1,.86-.86"/><path class="cls-5" d="M25.59,9.7a.87.87,0,0,1,0,1.73.87.87,0,1,1,0-1.73"/><path class="cls-5" d="M29.27,9.7a.87.87,0,0,1,0,1.73.87.87,0,1,1,0-1.73"/><path class="cls-5" d="M32.94,9.7a.87.87,0,1,1-.86.86.86.86,0,0,1,.86-.86"/><path class="cls-5" d="M36.62,9.7a.87.87,0,1,1-.86.86.86.86,0,0,1,.86-.86"/><path class="cls-5" d="M40.3,9.7a.87.87,0,1,1-.86.86.86.86,0,0,1,.86-.86"/><path class="cls-5" d="M44,9.7a.87.87,0,1,1-.86.86A.86.86,0,0,1,44,9.7"/><path class="cls-5" d="M47.66,9.7a.87.87,0,0,1,0,1.73.87.87,0,1,1,0-1.73"/><path class="cls-5" d="M7.2,13.45a.87.87,0,1,1-.87.87.87.87,0,0,1,.87-.87"/><path class="cls-5" d="M10.88,13.45a.87.87,0,1,1-.87.87.87.87,0,0,1,.87-.87"/><path class="cls-5" d="M44,13.45a.87.87,0,1,1,0,1.73.87.87,0,0,1,0-1.73"/><path class="cls-5" d="M47.66,13.45a.87.87,0,1,1-.87.87.86.86,0,0,1,.87-.87"/><path class="cls-5" d="M7.2,17.18a.87.87,0,1,1-.87.87.87.87,0,0,1,.87-.87"/><path class="cls-5" d="M10.88,17.18a.87.87,0,1,1-.87.87.87.87,0,0,1,.87-.87"/><path class="cls-5" d="M44,17.18a.87.87,0,1,1,0,1.73.87.87,0,0,1,0-1.73"/><path class="cls-5" d="M47.66,17.18a.87.87,0,1,1-.87.87.86.86,0,0,1,.87-.87"/><path class="cls-5" d="M7.2,20.94a.87.87,0,1,1-.87.86.87.87,0,0,1,.87-.86"/><path class="cls-5" d="M10.88,20.94a.87.87,0,1,1-.87.86.87.87,0,0,1,.87-.86"/><path class="cls-5" d="M44,20.94a.87.87,0,1,1-.86.86.87.87,0,0,1,.86-.86"/><path class="cls-5" d="M47.66,20.94a.87.87,0,0,1,0,1.73.87.87,0,1,1,0-1.73"/><path class="cls-5" d="M7.2,24.66a.87.87,0,1,1-.87.87.87.87,0,0,1,.87-.87"/><path class="cls-5" d="M10.88,24.66a.87.87,0,1,1-.87.87.87.87,0,0,1,.87-.87"/><path class="cls-5" d="M44,24.66a.87.87,0,1,1,0,1.73.87.87,0,0,1,0-1.73"/><path class="cls-5" d="M47.66,24.66a.87.87,0,1,1-.87.87.86.86,0,0,1,.87-.87"/><path class="cls-5" d="M7.2,28.42a.87.87,0,1,1-.87.87.87.87,0,0,1,.87-.87"/><path class="cls-5" d="M10.88,28.42a.87.87,0,1,1-.87.87.87.87,0,0,1,.87-.87"/><path class="cls-5" d="M44,28.42a.87.87,0,1,1,0,1.73.87.87,0,0,1,0-1.73"/><path class="cls-5" d="M47.66,28.42a.87.87,0,1,1-.87.87.86.86,0,0,1,.87-.87"/><path class="cls-5" d="M7.2,32.15a.87.87,0,1,1-.87.86.87.87,0,0,1,.87-.86"/><path class="cls-5" d="M10.88,32.15A.87.87,0,1,1,10,33a.87.87,0,0,1,.87-.86"/><path class="cls-5" d="M44,32.15a.87.87,0,1,1-.86.86.87.87,0,0,1,.86-.86"/><path class="cls-5" d="M47.66,32.15a.87.87,0,0,1,0,1.73.87.87,0,1,1,0-1.73"/><path class="cls-5" d="M7.2,35.91a.87.87,0,0,1,0,1.73.87.87,0,1,1,0-1.73"/><path class="cls-5" d="M10.88,35.91a.87.87,0,0,1,0,1.73.87.87,0,1,1,0-1.73"/><path class="cls-5" d="M44,35.91a.87.87,0,1,1-.86.86.86.86,0,0,1,.86-.86"/><path class="cls-5" d="M47.66,35.91a.87.87,0,0,1,0,1.73.87.87,0,1,1,0-1.73"/><path class="cls-5" d="M7.2,39.63a.87.87,0,1,1-.87.87.87.87,0,0,1,.87-.87"/><path class="cls-5" d="M10.88,39.63a.87.87,0,1,1-.87.87.87.87,0,0,1,.87-.87"/><path class="cls-5" d="M44,39.63a.87.87,0,1,1,0,1.73.87.87,0,0,1,0-1.73"/><path class="cls-5" d="M47.66,39.63a.87.87,0,1,1-.87.87.86.86,0,0,1,.87-.87"/><path class="cls-5" d="M7.2,43.39a.87.87,0,1,1-.87.87.87.87,0,0,1,.87-.87"/><path class="cls-5" d="M10.88,43.39a.87.87,0,1,1-.87.87.87.87,0,0,1,.87-.87"/><path class="cls-5" d="M14.55,43.39a.87.87,0,1,1-.86.87.87.87,0,0,1,.86-.87"/><path class="cls-5" d="M18.23,43.39a.87.87,0,1,1,0,1.73.87.87,0,0,1,0-1.73"/><path class="cls-5" d="M21.91,43.39a.87.87,0,1,1,0,1.73.87.87,0,0,1,0-1.73"/><path class="cls-5" d="M25.59,43.39a.87.87,0,1,1-.87.87.86.86,0,0,1,.87-.87"/><path class="cls-5" d="M29.27,43.39a.87.87,0,1,1-.87.87.87.87,0,0,1,.87-.87"/><path class="cls-5" d="M32.94,43.39a.87.87,0,1,1-.86.87.87.87,0,0,1,.86-.87"/><path class="cls-5" d="M36.62,43.39a.87.87,0,1,1-.86.87.87.87,0,0,1,.86-.87"/><path class="cls-5" d="M40.3,43.39a.87.87,0,1,1,0,1.73.87.87,0,0,1,0-1.73"/><path class="cls-5" d="M44,43.39a.87.87,0,1,1,0,1.73.87.87,0,0,1,0-1.73"/><path class="cls-5" d="M47.66,43.39a.87.87,0,1,1-.87.87.86.86,0,0,1,.87-.87"/><path class="cls-5" d="M7.2,47.12a.86.86,0,1,1-.87.86.86.86,0,0,1,.87-.86"/><path class="cls-5" d="M10.88,47.12A.86.86,0,1,1,10,48a.86.86,0,0,1,.87-.86"/><path class="cls-5" d="M14.55,47.12a.86.86,0,1,1-.86.86.86.86,0,0,1,.86-.86"/><path class="cls-5" d="M18.23,47.12a.86.86,0,1,1-.86.86.86.86,0,0,1,.86-.86"/><path class="cls-5" d="M21.91,47.12a.86.86,0,1,1-.86.86.86.86,0,0,1,.86-.86"/><path class="cls-5" d="M25.59,47.12a.86.86,0,1,1-.87.86.85.85,0,0,1,.87-.86"/><path class="cls-5" d="M29.27,47.12a.86.86,0,1,1-.87.86.86.86,0,0,1,.87-.86"/><path class="cls-5" d="M32.94,47.12a.86.86,0,1,1-.86.86.86.86,0,0,1,.86-.86"/><path class="cls-5" d="M36.62,47.12a.86.86,0,1,1-.86.86.86.86,0,0,1,.86-.86"/><path class="cls-5" d="M40.3,47.12a.86.86,0,1,1-.86.86.86.86,0,0,1,.86-.86"/><path class="cls-5" d="M44,47.12a.86.86,0,1,1-.86.86.86.86,0,0,1,.86-.86"/><path class="cls-5" d="M47.66,47.12a.86.86,0,1,1-.87.86.85.85,0,0,1,.87-.86"/><path class="cls-5" d="M40,13.13H15A1.87,1.87,0,0,0,13.13,15V25.35a.81.81,0,1,0,1.61,0V15a.25.25,0,0,1,.26-.26H40a.25.25,0,0,1,.26.26V25.35a.81.81,0,1,0,1.61,0V15A1.87,1.87,0,0,0,40,13.13"/><path class="cls-5" d="M41.07,28.84a.81.81,0,0,0-.81.81v4.92a.74.74,0,0,1-.22.52l-5,5a.72.72,0,0,1-.52.21H15a.25.25,0,0,1-.26-.26V29.65a.81.81,0,1,0-1.61,0V40A1.87,1.87,0,0,0,15,41.87H34.52a2.31,2.31,0,0,0,1.65-.68l5-5a2.36,2.36,0,0,0,.69-1.66V29.65a.8.8,0,0,0-.8-.81"/><path class="cls-5" d="M50.26,8.7h0V15h0v6.26h0V27.5h0v6.27h0V40h0V46.3h0v2.39a1.57,1.57,0,0,1-1.57,1.58H6.31a1.58,1.58,0,0,1-1.58-1.58V6.31A1.57,1.57,0,0,1,6.31,4.74H48.69a1.57,1.57,0,0,1,1.57,1.57Zm3.93,7.07a.81.81,0,1,0,0-1.61H51.88V9.5h2.31a.81.81,0,1,0,0-1.61H51.88V6.31a3.19,3.19,0,0,0-3.19-3.19H47.11V.81a.81.81,0,1,0-1.61,0V3.12H40.84V.81a.81.81,0,1,0-1.61,0V3.12H34.57V.81A.81.81,0,1,0,33,.81V3.12H28.3V.81a.81.81,0,1,0-1.61,0V3.12H22V.81a.81.81,0,1,0-1.61,0V3.12H15.77V.81a.81.81,0,1,0-1.61,0V3.12H9.5V.81a.81.81,0,1,0-1.61,0V3.12H6.31A3.19,3.19,0,0,0,3.12,6.31V7.89H.8A.81.81,0,0,0,.8,9.5H3.12v4.66H.8a.81.81,0,0,0,0,1.61H3.12v4.66H.8A.81.81,0,0,0,.8,22H3.12v4.65H.8a.81.81,0,0,0,0,1.62H3.12V33H.8a.81.81,0,0,0,0,1.61H3.12v4.66H.8a.81.81,0,0,0,0,1.61H3.12V45.5H.8a.81.81,0,0,0,0,1.61H3.12v1.58a3.19,3.19,0,0,0,3.19,3.19H7.89v2.31a.81.81,0,1,0,1.61,0V51.88h4.66v2.31a.81.81,0,1,0,1.61,0V51.88h4.66v2.31a.81.81,0,1,0,1.61,0V51.88h4.65v2.31a.81.81,0,1,0,1.61,0V51.88H33v2.31a.81.81,0,1,0,1.61,0V51.88h4.66v2.31a.81.81,0,1,0,1.61,0V51.88H45.5v2.31a.81.81,0,1,0,1.61,0V51.88h1.58a3.19,3.19,0,0,0,3.19-3.19V47.11h2.31a.81.81,0,1,0,0-1.61H51.88V40.84h2.31a.81.81,0,1,0,0-1.61H51.88V34.57h2.31a.81.81,0,1,0,0-1.61H51.88V28.31h2.31a.81.81,0,1,0,0-1.62H51.88V22h2.31a.81.81,0,1,0,0-1.61H51.88V15.77Z"/></g></g></g><rect class="cls-6" x="14.91" y="20.49" width="25.18" height="14.01"/></g></g></svg>