<svg xmlns="http://www.w3.org/2000/svg" xmlns:xlink="http://www.w3.org/1999/xlink" viewBox="0 0 47.92 47.92"><defs><style>.cls-1{fill:none;}.cls-2{clip-path:url(#clip-path);}.cls-3{isolation:isolate;}.cls-4{clip-path:url(#clip-path-2);}.cls-5{fill:#021526;}</style><clipPath id="clip-path"><rect class="cls-1" width="47.92" height="47.92"/></clipPath><clipPath id="clip-path-2"><rect class="cls-1" x="-33753.42" y="-32465.58" width="65535" height="65535"/></clipPath></defs><g id="Слой_2" data-name="Слой 2"><g id="Слой_1-2" data-name="Слой 1"><g class="cls-2"><g class="cls-3"><g class="cls-4"><path class="cls-5" d="M39.69,40.64a4.51,4.51,0,0,1,.93.92,4.51,4.51,0,0,1,.93-.92,4.82,4.82,0,0,1-.93-.93,4.82,4.82,0,0,1-.93.93m.93,4.62a.93.93,0,0,1-.93-.92,2.78,2.78,0,0,0-2.77-2.78.93.93,0,1,1,0-1.85,2.78,2.78,0,0,0,2.77-2.78.93.93,0,0,1,1.86,0,2.78,2.78,0,0,0,2.77,2.78.93.93,0,1,1,0,1.85,2.78,2.78,0,0,0-2.77,2.78.93.93,0,0,1-.93.92"/><path class="cls-5" d="M6.37,7.31a5.12,5.12,0,0,1,.93.93,4.77,4.77,0,0,1,.92-.93,4.27,4.27,0,0,1-.92-.93,4.55,4.55,0,0,1-.93.93m.93,4.63A.92.92,0,0,1,6.37,11,2.78,2.78,0,0,0,3.59,8.24a.93.93,0,0,1,0-1.85A2.79,2.79,0,0,0,6.37,3.61a.93.93,0,1,1,1.85,0A2.79,2.79,0,0,0,11,6.39a.93.93,0,0,1,0,1.85A2.78,2.78,0,0,0,8.22,11a.92.92,0,0,1-.92.93"/><path class="cls-5" d="M14.58,44.31h1.83L16.83,42a.93.93,0,0,1,.71-.73,9.74,9.74,0,0,0,1.58-.52,1,1,0,0,1,1,.18l1.69,1.62,1.48-1.08-1-2.11a.93.93,0,0,1,.13-1,8.6,8.6,0,0,0,1-1.35.93.93,0,0,1,.92-.44l2.32.31.57-1.74L25.15,34a.93.93,0,0,1-.49-.9,8.63,8.63,0,0,0,0-1.66.93.93,0,0,1,.49-.9l2.06-1.11-.57-1.74L24.32,28a1,1,0,0,1-.92-.44,8.6,8.6,0,0,0-1-1.35.93.93,0,0,1-.13-1l1-2.11L21.82,22l-1.69,1.62a1,1,0,0,1-1,.18,9.74,9.74,0,0,0-1.58-.52.93.93,0,0,1-.71-.73l-.42-2.31H14.58l-.42,2.31a.91.91,0,0,1-.7.73,9.85,9.85,0,0,0-1.59.52.94.94,0,0,1-1-.18L9.18,22,7.69,23.11l1,2.11a.92.92,0,0,1-.14,1,10.11,10.11,0,0,0-1,1.35.94.94,0,0,1-.92.44L4.35,27.7l-.56,1.75,2.06,1.11a.9.9,0,0,1,.48.9c0,.28,0,.56,0,.83s0,.55,0,.83a.9.9,0,0,1-.48.9L3.79,35.13l.56,1.74,2.32-.31a.92.92,0,0,1,.92.44,10.11,10.11,0,0,0,1,1.35.92.92,0,0,1,.14,1l-1,2.11,1.49,1.08,1.69-1.62a.94.94,0,0,1,1-.18,9.85,9.85,0,0,0,1.59.52.91.91,0,0,1,.7.73Zm2.61,1.85H13.81a.92.92,0,0,1-.91-.76l-.45-2.48c-.25-.07-.49-.15-.73-.24L9.9,44.42a.93.93,0,0,1-1.19.08L6,42.52a.94.94,0,0,1-.29-1.15l1.09-2.28c-.15-.2-.3-.4-.45-.62l-2.5.34a.92.92,0,0,1-1-.63L1.79,35a.91.91,0,0,1,.44-1.1l2.22-1.2c0-.13,0-.25,0-.38s0-.25,0-.38l-2.22-1.2a.92.92,0,0,1-.44-1.1l1-3.21a.92.92,0,0,1,1-.63l2.5.33.45-.61L5.69,23.21A.93.93,0,0,1,6,22.06l2.73-2a.93.93,0,0,1,1.19.08l1.82,1.74c.24-.09.48-.17.73-.24l.45-2.48a.92.92,0,0,1,.91-.76h3.38a.93.93,0,0,1,.91.76l.45,2.48c.24.07.49.15.73.24l1.82-1.74a.91.91,0,0,1,1.18-.08l2.74,2a.93.93,0,0,1,.29,1.15l-1.1,2.28c.16.2.31.4.45.61l2.5-.33a.92.92,0,0,1,1,.63l1,3.21a.92.92,0,0,1-.44,1.1l-2.22,1.2v.76l2.22,1.2a.92.92,0,0,1,.44,1.1l-1,3.21a.93.93,0,0,1-1,.63l-2.5-.34a7,7,0,0,1-.45.62l1.1,2.28A.94.94,0,0,1,25,42.52l-2.74,2a.91.91,0,0,1-1.18-.08l-1.82-1.74c-.24.09-.49.17-.73.24L18.1,45.4a.93.93,0,0,1-.91.76"/><path class="cls-5" d="M15.5,27.52a4.77,4.77,0,1,0,4.77,4.77,4.78,4.78,0,0,0-4.77-4.77m0,11.39a6.62,6.62,0,1,1,6.62-6.62,6.64,6.64,0,0,1-6.62,6.62"/><path class="cls-5" d="M34.6,22.12h1.11l.3-1.65a.92.92,0,0,1,.71-.73,7.46,7.46,0,0,0,1.21-.4.94.94,0,0,1,1,.18l1.21,1.16L41,20l-.72-1.51a.93.93,0,0,1,.13-1,6.31,6.31,0,0,0,.75-1,1,1,0,0,1,.92-.44l1.67.23.34-1.06-1.48-.8a.9.9,0,0,1-.48-.9c0-.21,0-.43,0-.63s0-.43,0-.64a.91.91,0,0,1,.48-.9l1.48-.8-.34-1-1.67.22a.93.93,0,0,1-.92-.44,6.77,6.77,0,0,0-.75-1,.91.91,0,0,1-.13-1L41,5.7l-.9-.65L38.93,6.21a.91.91,0,0,1-1,.18A6.56,6.56,0,0,0,36.72,6,.92.92,0,0,1,36,5.26l-.3-1.65H34.6l-.3,1.65a.93.93,0,0,1-.71.74,6.56,6.56,0,0,0-1.21.39.92.92,0,0,1-1-.18L30.16,5.05l-.9.65L30,7.22a.92.92,0,0,1-.14,1,7.52,7.52,0,0,0-.75,1,.92.92,0,0,1-.92.44l-1.66-.22-.34,1,1.48.8a1,1,0,0,1,.48.9c0,.21,0,.43,0,.64s0,.42,0,.63a.94.94,0,0,1-.48.9l-1.48.8.34,1.06L28.18,16a.94.94,0,0,1,.92.44,7,7,0,0,0,.75,1,.93.93,0,0,1,.14,1L29.26,20l.9.65,1.21-1.16a1,1,0,0,1,1-.18,7.46,7.46,0,0,0,1.21.4.93.93,0,0,1,.71.73ZM36.48,24H33.83a.93.93,0,0,1-.92-.76l-.33-1.83-.35-.11-1.35,1.28a.91.91,0,0,1-1.18.08l-2.15-1.56a.93.93,0,0,1-.29-1.15l.81-1.68-.22-.3L26,18.19a.92.92,0,0,1-1-.63L24.18,15a.94.94,0,0,1,.44-1.11l1.64-.88v-.37l-1.64-.88a.93.93,0,0,1-.44-1.1L25,8.17a.93.93,0,0,1,1-.63l1.85.25.22-.3-.81-1.68a.93.93,0,0,1,.29-1.15L29.7,3.1a.92.92,0,0,1,1.18.08l1.35,1.28.35-.11.33-1.83a.93.93,0,0,1,.92-.76h2.65a.92.92,0,0,1,.91.76l.34,1.83.35.11,1.34-1.28a.94.94,0,0,1,1.19-.08l2.15,1.56a.93.93,0,0,1,.29,1.15l-.81,1.68.22.3,1.84-.25a.93.93,0,0,1,1,.63l.82,2.53a.93.93,0,0,1-.44,1.1l-1.64.88v.37l1.64.88A.94.94,0,0,1,46.13,15l-.82,2.52a.92.92,0,0,1-1,.63l-1.84-.25-.22.3.81,1.68a.93.93,0,0,1-.29,1.15l-2.15,1.56a.93.93,0,0,1-1.19-.08l-1.34-1.28-.35.11-.34,1.83a.92.92,0,0,1-.91.76"/><path class="cls-5" d="M35.15,10.23a2.64,2.64,0,1,0,2.63,2.64,2.64,2.64,0,0,0-2.63-2.64m0,7.12a4.49,4.49,0,1,1,4.49-4.48,4.49,4.49,0,0,1-4.49,4.48"/><path class="cls-5" d="M44.32,24.9a.93.93,0,1,1,0,1.85.93.93,0,0,1,0-1.85"/><path class="cls-5" d="M32.29,35.08a.93.93,0,1,1-.93.93.93.93,0,0,1,.93-.93"/><path class="cls-5" d="M20.26,3.61a.93.93,0,1,1-.93.93.92.92,0,0,1,.93-.93"/><path class="cls-5" d="M9.15,14.72a.93.93,0,0,1,0,1.85.93.93,0,1,1,0-1.85"/></g></g></g></g></g></svg>