<svg xmlns="http://www.w3.org/2000/svg" xmlns:xlink="http://www.w3.org/1999/xlink" viewBox="0 0 78.09 78.08"><defs><style>.cls-1{fill:none;}.cls-2{clip-path:url(#clip-path);}.cls-3{isolation:isolate;}.cls-4{clip-path:url(#clip-path-2);}.cls-5{fill:#021526;}</style><clipPath id="clip-path"><rect class="cls-1" width="78.09" height="78.08"/></clipPath><clipPath id="clip-path-2"><rect class="cls-1" x="-33741.88" y="-32384.97" width="65535" height="65535"/></clipPath></defs><g id="Слой_2" data-name="Слой 2"><g id="Слой_1-2" data-name="Слой 1"><g class="cls-2"><g class="cls-3"><g class="cls-4"><path class="cls-5" d="M32.54,9.76a3.26,3.26,0,1,1-3.26-3.25,3.25,3.25,0,0,1,3.26,3.25"/><path class="cls-5" d="M19.52,29.28A3.26,3.26,0,1,1,16.27,26a3.26,3.26,0,0,1,3.25,3.25"/><path class="cls-5" d="M32.54,29.28A3.26,3.26,0,1,1,29.28,26a3.26,3.26,0,0,1,3.26,3.25"/><path class="cls-5" d="M52.06,29.28A3.26,3.26,0,1,1,48.8,26a3.26,3.26,0,0,1,3.26,3.25"/><path class="cls-5" d="M65.07,29.28A3.26,3.26,0,1,1,61.82,26a3.26,3.26,0,0,1,3.25,3.25"/><path class="cls-5" d="M19.52,48.8a3.26,3.26,0,1,1-3.25-3.25,3.26,3.26,0,0,1,3.25,3.25"/><path class="cls-5" d="M32.54,48.8a3.26,3.26,0,1,1-3.26-3.25,3.26,3.26,0,0,1,3.26,3.25"/><path class="cls-5" d="M52.06,48.8a3.26,3.26,0,1,1-3.26-3.25,3.26,3.26,0,0,1,3.26,3.25"/><path class="cls-5" d="M42.3,68.32A3.26,3.26,0,1,1,39,65.07a3.26,3.26,0,0,1,3.26,3.25"/><path class="cls-5" d="M65.07,48.8a3.26,3.26,0,1,1-3.25-3.25,3.26,3.26,0,0,1,3.25,3.25"/><path class="cls-5" d="M52.06,9.76A3.26,3.26,0,1,1,48.8,6.51a3.25,3.25,0,0,1,3.26,3.25"/><path class="cls-5" d="M28.47,14.56v9.92a4.07,4.07,0,0,1,1.63,0V14.56A4.07,4.07,0,0,1,28.47,14.56Z"/><path class="cls-5" d="M17.08,44V34.08a4.07,4.07,0,0,1-1.63,0V44a4.47,4.47,0,0,1,1.63,0"/><path class="cls-5" d="M35.94,64.59,20.44,51.3a4.5,4.5,0,0,1-1.07,1.23l15.5,13.3A4.69,4.69,0,0,1,35.94,64.59Z"/><path class="cls-5" d="M30.71,53.45l5.45,11a4.63,4.63,0,0,1,1.46-.72l-5.46-11A4.74,4.74,0,0,1,30.71,53.45Z"/><path class="cls-5" d="M27.28,14.2a4.72,4.72,0,0,1-1.35-.91L18.27,24.84a4.93,4.93,0,0,1,1.35.91Z"/><path class="cls-5" d="M58.47,25.75a4.79,4.79,0,0,1,1.35-.91L52.15,13.29a4.79,4.79,0,0,1-1.35.91Z"/><path class="cls-5" d="M47.38,53.45a5,5,0,0,1-1.46-.73l-5.45,11a4.88,4.88,0,0,1,1.46.73Z"/><path class="cls-5" d="M57.65,51.3,42.15,64.59a4.85,4.85,0,0,1,1.06,1.24l15.5-13.29a4.85,4.85,0,0,1-1.06-1.24"/><path class="cls-5" d="M61,34.08V44a4.47,4.47,0,0,1,1.63,0V34.08a4.07,4.07,0,0,1-1.63,0"/><path class="cls-5" d="M32.1,33.25,37.89,39,32.1,44.83A5,5,0,0,1,33.25,46L39,40.19,44.83,46A5.23,5.23,0,0,1,46,44.83L40.19,39,46,33.25a5,5,0,0,1-1.15-1.15L39,37.89,33.25,32.1a4.83,4.83,0,0,1-1.15,1.15"/><path class="cls-5" d="M49.62,24.48V14.56a4.07,4.07,0,0,1-1.63,0v9.92a4.47,4.47,0,0,1,1.63,0"/></g></g></g></g></g></svg>