<svg xmlns="http://www.w3.org/2000/svg" xmlns:xlink="http://www.w3.org/1999/xlink" viewBox="0 0 41.44 41.44"><defs><style>.cls-1{fill:none;}.cls-2{clip-path:url(#clip-path);}.cls-3{isolation:isolate;}.cls-4{clip-path:url(#clip-path-2);}.cls-5{fill:#021526;}</style><clipPath id="clip-path"><rect class="cls-1" width="41.44" height="41.44"/></clipPath><clipPath id="clip-path-2"><rect class="cls-1" x="-33676.3" y="-31924.62" width="65535" height="65535"/></clipPath></defs><g id="Слой_2" data-name="Слой 2"><g id="Слой_1-2" data-name="Слой 1"><g class="cls-2"><g class="cls-3"><g class="cls-4"><path class="cls-5" d="M18.13,19.67l1.56-1.54h3.62v5.18H18.13Zm-1.3-.27V24a.65.65,0,0,0,.65.64H24A.64.64,0,0,0,24.6,24V17.48a.65.65,0,0,0-.64-.65H19.43A.64.64,0,0,0,19,17L17,18.94a.61.61,0,0,0-.2.46"/><path class="cls-5" d="M37.55,33a1.3,1.3,0,1,1,1.3-1.29A1.29,1.29,0,0,1,37.55,33M2.82,20.72a33.38,33.38,0,0,1,10.9-7.61,10.31,10.31,0,0,0-.67,14.56q.31.34.66.66A33.58,33.58,0,0,1,2.82,20.72M19.42,3.89a1.3,1.3,0,1,1,1.3,1.29,1.3,1.3,0,0,1-1.3-1.29M14.24,24.6v1.95a.65.65,0,0,0,.65.64h1.94V28.9a9.13,9.13,0,0,1-4.29-4.3Zm0-3.23v1.94H12a8.6,8.6,0,0,1-.35-1.94ZM12,18.13h2.2v1.94H11.69A8.5,8.5,0,0,1,12,18.13m4.79-5.59v1.7H14.89a.65.65,0,0,0-.65.65v1.94h-1.7a9.11,9.11,0,0,1,4.29-4.29m10.36,4.29V14.89a.65.65,0,0,0-.65-.65H24.6v-1.7a9.13,9.13,0,0,1,4.3,4.29Zm0,3.24V18.13H29.4a9.08,9.08,0,0,1,.35,1.94Zm2.21,3.24H27.19V21.37h2.56a9.19,9.19,0,0,1-.35,1.94m-4.8,3.88h1.94a.65.65,0,0,0,.65-.64V24.6H28.9a9.15,9.15,0,0,1-4.3,4.3Zm-3.23,0h1.94V29.4a8.6,8.6,0,0,1-1.94.35Zm-1.3,0v2.56a8.5,8.5,0,0,1-1.94-.35V27.19ZM25.9,25.9H15.54V15.54H25.9ZM18.13,14.24V12a8.5,8.5,0,0,1,1.94-.35v2.55Zm3.24,0V11.69a8.6,8.6,0,0,1,1.94.35v2.2Zm17.24,6.48a33.46,33.46,0,0,1-10.89,7.61,10.31,10.31,0,0,0,.66-14.56q-.31-.35-.66-.66a33.46,33.46,0,0,1,10.89,7.61M27.19,37.55a1.3,1.3,0,1,1-1.29-1.29,1.3,1.3,0,0,1,1.29,1.29m-12.3,0a1.3,1.3,0,1,1,1.3-1.29,1.29,1.29,0,0,1-1.3,1.29M5.18,33a1.3,1.3,0,1,1,1.29-1.29A1.3,1.3,0,0,1,5.18,33M7.12,5.18a1.3,1.3,0,1,1,1.3-1.29,1.29,1.29,0,0,1-1.3,1.29M35,2.59a1.3,1.3,0,1,1-1.29,1.3A1.3,1.3,0,0,1,35,2.59m2.59,26.55a2.59,2.59,0,0,0-2.5,1.94H33.67V26.61A35,35,0,0,0,40,21.14a.64.64,0,0,0,0-.84,34.93,34.93,0,0,0-8.9-7V7.46l2.23-1.6A2.57,2.57,0,0,0,35,6.47a2.61,2.61,0,1,0-2.59-2.63,2.69,2.69,0,0,0,.18,1L30.05,6.6a.63.63,0,0,0-.27.52v5.46a21.42,21.42,0,0,0-8.41-2.2v-4a2.59,2.59,0,1,0-1.3,0v4a21.08,21.08,0,0,0-7.77,1.9V7.12A.63.63,0,0,0,12,6.6L9.53,4.81A2.58,2.58,0,1,0,6.2,6.31a2.41,2.41,0,0,0,.92.16,2.59,2.59,0,0,0,1.66-.61L11,7.46V12.9a35,35,0,0,0-9.56,7.4.64.64,0,0,0,0,.84,35.13,35.13,0,0,0,7.61,6.3v3.64H7.68a2.59,2.59,0,1,0,0,1.29h2a.65.65,0,0,0,.65-.64V28.19A22.86,22.86,0,0,0,18.78,31v4.64H17.39a2.59,2.59,0,1,0,0,1.29h2a.65.65,0,0,0,.65-.64v-5.2l.65,0a18.69,18.69,0,0,0,4.53-.58v4.55a2.6,2.6,0,1,0,1.29,0V30.14a26.4,26.4,0,0,0,5.83-2.7v4.29a.65.65,0,0,0,.65.64h2a2.59,2.59,0,1,0,2.5-3.23"/><path class="cls-5" d="M16.83,16.19a.65.65,0,1,1-.64.64.65.65,0,0,1,.64-.64"/></g></g></g></g></g></svg>