<svg xmlns="http://www.w3.org/2000/svg" xmlns:xlink="http://www.w3.org/1999/xlink" viewBox="0 0 41.44 41.44"><defs><style>.cls-1{fill:none;}.cls-2{clip-path:url(#clip-path);}.cls-3{isolation:isolate;}.cls-4{clip-path:url(#clip-path-2);}.cls-5{fill:#021526;}</style><clipPath id="clip-path"><rect class="cls-1" width="41.44" height="41.44"/></clipPath><clipPath id="clip-path-2"><rect class="cls-1" x="-33681.69" y="-32105.39" width="65535" height="65535"/></clipPath></defs><g id="Слой_2" data-name="Слой 2"><g id="Слой_1-2" data-name="Слой 1"><g class="cls-2"><g class="cls-3"><g class="cls-4"><path class="cls-5" d="M33,34.19a3.15,3.15,0,0,0-3.11-3.11H24.54A.57.57,0,0,1,24,30.5V27.06a3.68,3.68,0,0,0-3.57-3.69l2.85-6.28.07-.77V14.89A13.2,13.2,0,0,1,40.59,1.94L41,.65A17.12,17.12,0,0,0,37.88,0,15,15,0,0,0,22,13.92v1a8.86,8.86,0,0,0,.07,1.36l-.07.39-2.85,6.28a1.19,1.19,0,0,0,.59,1.55,1.1,1.1,0,0,0,.45.13,2.5,2.5,0,0,1,2.46,2.46V30.5a1.88,1.88,0,0,0,1.88,1.87h5.37a1.85,1.85,0,0,1,1.81,1.82v7.25h9.72v-1.3H33Z"/><path class="cls-5" d="M.65,28.49H3.24a.62.62,0,0,0,.58-.39L5,25.7l1.48,5.51a.65.65,0,0,0,.65.45h.07a.57.57,0,0,0,.58-.52l1.49-9.06,2.39,7.25a.63.63,0,0,0,.59.45.7.7,0,0,0,.64-.39l1.95-4.27,1.42,4.27a.63.63,0,0,0,.58.46h2a.65.65,0,0,0,0-1.3H17.29l-1.82-5.37a.56.56,0,0,0-.58-.52.71.71,0,0,0-.65.39L12.3,27.32,9.58,19.16a.64.64,0,0,0-.84-.38.6.6,0,0,0-.45.51L6.8,28l-1-4.27a.63.63,0,0,0-.59-.45.8.8,0,0,0-.64.32L2.85,27.19H.65a.65.65,0,1,0,0,1.3"/><rect class="cls-5" x="25.9" y="16.19" width="2.59" height="1.29"/><path class="cls-5" d="M30,16.06a.64.64,0,0,0,.91-.2.63.63,0,0,0-.2-.9l-1.36-.91a3.22,3.22,0,0,0-1.68-.52H25.25a.65.65,0,1,0,0,1.3h2.53a1.78,1.78,0,0,1,1,.32Z"/></g></g></g></g></g></svg>