<svg width="182" height="8" viewBox="0 0 182 8" fill="none" xmlns="http://www.w3.org/2000/svg">
<g clip-path="url(#clip0_108_75)">
<rect width="182" height="8" fill="white"/>
<line x1="10.3536" y1="0.353553" x2="3.35355" y2="7.35355" stroke="#EAE6E5"/>
<line x1="7.35355" y1="0.353553" x2="0.353553" y2="7.35355" stroke="#EAE6E5"/>
<line x1="16.3536" y1="0.353553" x2="9.35355" y2="7.35355" stroke="#EAE6E5"/>
<line x1="19.3536" y1="0.353553" x2="12.3536" y2="7.35355" stroke="#EAE6E5"/>
<line x1="13.3536" y1="0.353553" x2="6.35355" y2="7.35355" stroke="#EAE6E5"/>
<line x1="25.3536" y1="0.353553" x2="18.3536" y2="7.35355" stroke="#0C5395"/>
<line x1="22.3536" y1="0.353553" x2="15.3536" y2="7.35355" stroke="#0C5395"/>
<line x1="31.3536" y1="0.353553" x2="24.3536" y2="7.35355" stroke="#0C5395"/>
<line x1="34.3536" y1="0.353553" x2="27.3536" y2="7.35355" stroke="#0C5395"/>
<line x1="37.3536" y1="0.353553" x2="30.3536" y2="7.35355" stroke="#0C5395"/>
<line x1="28.3536" y1="0.353553" x2="21.3536" y2="7.35355" stroke="#0C5395"/>
<line x1="154.354" y1="0.353553" x2="147.354" y2="7.35355" stroke="#EAE6E5"/>
<line x1="151.354" y1="0.353553" x2="144.354" y2="7.35355" stroke="#EAE6E5"/>
<line x1="160.354" y1="0.353553" x2="153.354" y2="7.35355" stroke="#EAE6E5"/>
<line x1="163.354" y1="0.353553" x2="156.354" y2="7.35355" stroke="#EAE6E5"/>
<line x1="157.354" y1="0.353553" x2="150.354" y2="7.35355" stroke="#EAE6E5"/>
<line x1="169.354" y1="0.353553" x2="162.354" y2="7.35355" stroke="#EAE6E5"/>
<line x1="166.354" y1="0.353553" x2="159.354" y2="7.35355" stroke="#EAE6E5"/>
<line x1="175.354" y1="0.353553" x2="168.354" y2="7.35355" stroke="#EAE6E5"/>
<line x1="178.354" y1="0.353553" x2="171.354" y2="7.35355" stroke="#EAE6E5"/>
<line x1="181.354" y1="0.353553" x2="174.354" y2="7.35355" stroke="#EAE6E5"/>
<line x1="172.354" y1="0.353553" x2="165.354" y2="7.35355" stroke="#EAE6E5"/>
<line x1="43.3536" y1="0.353553" x2="36.3536" y2="7.35355" stroke="#0C5395"/>
<line x1="40.3536" y1="0.353553" x2="33.3536" y2="7.35355" stroke="#0C5395"/>
<line x1="49.3536" y1="0.353553" x2="42.3536" y2="7.35355" stroke="#0C5395"/>
<line x1="52.3536" y1="0.353553" x2="45.3536" y2="7.35355" stroke="#0C5395"/>
<line x1="46.3536" y1="0.353553" x2="39.3536" y2="7.35355" stroke="#0C5395"/>
<line x1="58.3536" y1="0.353553" x2="51.3536" y2="7.35355" stroke="#0C5395"/>
<line x1="55.3536" y1="0.353553" x2="48.3536" y2="7.35355" stroke="#0C5395"/>
<line x1="64.3536" y1="0.353553" x2="57.3536" y2="7.35355" stroke="#0C5395"/>
<line x1="67.3536" y1="0.353553" x2="60.3536" y2="7.35355" stroke="#0C5395"/>
<line x1="70.3536" y1="0.353553" x2="63.3536" y2="7.35355" stroke="#0C5395"/>
<line x1="61.3536" y1="0.353553" x2="54.3536" y2="7.35355" stroke="#0C5395"/>
<line x1="73.3536" y1="0.353553" x2="66.3536" y2="7.35355" stroke="#0C5395"/>
<line x1="70.3536" y1="0.353553" x2="63.3536" y2="7.35355" stroke="#0C5395"/>
<line x1="79.3536" y1="0.353553" x2="72.3536" y2="7.35355" stroke="#0C5395"/>
<line x1="82.3536" y1="0.353553" x2="75.3536" y2="7.35355" stroke="#0C5395"/>
<line x1="76.3536" y1="0.353553" x2="69.3536" y2="7.35355" stroke="#0C5395"/>
<line x1="88.3536" y1="0.353553" x2="81.3536" y2="7.35355" stroke="#0C5395"/>
<line x1="85.3536" y1="0.353553" x2="78.3536" y2="7.35355" stroke="#0C5395"/>
<line x1="94.3536" y1="0.353553" x2="87.3536" y2="7.35355" stroke="#0C5395"/>
<line x1="97.3536" y1="0.353553" x2="90.3536" y2="7.35355" stroke="#0C5395"/>
<line x1="100.354" y1="0.353553" x2="93.3536" y2="7.35355" stroke="#0C5395"/>
<line x1="91.3536" y1="0.353553" x2="84.3536" y2="7.35355" stroke="#0C5395"/>
<line x1="121.354" y1="0.353553" x2="114.354" y2="7.35355" stroke="#0C5395"/>
<line x1="127.354" y1="0.353553" x2="120.354" y2="7.35355" stroke="#0C5395"/>
<line x1="130.354" y1="0.353553" x2="123.354" y2="7.35355" stroke="#0C5395"/>
<line x1="124.354" y1="0.353553" x2="117.354" y2="7.35355" stroke="#0C5395"/>
<line x1="136.354" y1="0.353553" x2="129.354" y2="7.35355" stroke="#0C5395"/>
<line x1="133.354" y1="0.353553" x2="126.354" y2="7.35355" stroke="#0C5395"/>
<line x1="142.354" y1="0.353553" x2="135.354" y2="7.35355" stroke="#0C5395"/>
<line x1="145.354" y1="0.353553" x2="138.354" y2="7.35355" stroke="#0C5395"/>
<line x1="148.354" y1="0.353553" x2="141.354" y2="7.35355" stroke="#0C5395"/>
<line x1="139.354" y1="0.353553" x2="132.354" y2="7.35355" stroke="#0C5395"/>
<line x1="106.354" y1="0.353553" x2="99.3536" y2="7.35355" stroke="#0C5395"/>
<line x1="103.354" y1="0.353553" x2="96.3536" y2="7.35355" stroke="#0C5395"/>
<line x1="112.354" y1="0.353553" x2="105.354" y2="7.35355" stroke="#0C5395"/>
<line x1="115.354" y1="0.353553" x2="108.354" y2="7.35355" stroke="#0C5395"/>
<line x1="118.354" y1="0.353553" x2="111.354" y2="7.35355" stroke="#0C5395"/>
<line x1="109.354" y1="0.353553" x2="102.354" y2="7.35355" stroke="#0C5395"/>
</g>
<defs>
<clipPath id="clip0_108_75">
<rect width="182" height="8" fill="white"/>
</clipPath>
</defs>
</svg>
